M48
METRIC,TZ
T1C0.400
T2C0.800
T3C1.001
%
G90
G05
T1
X132080Y-123190
X134620Y-120650
X147320Y-123190
X148590Y-120650
X149860Y-118110
T2
X106680Y-83820
X106680Y-86360
X106680Y-88900
X106680Y-91440
X106680Y-93980
X106680Y-96520
X106680Y-99060
X106680Y-101600
X106680Y-104140
X106680Y-106680
X106680Y-109220
X106680Y-111760
X106680Y-114300
X106680Y-116840
X106680Y-119380
X106680Y-121920
X106680Y-124460
X106680Y-127000
X106680Y-129540
X106680Y-132080
X121920Y-83820
X121920Y-86360
X121920Y-88900
X121920Y-91440
X121920Y-93980
X121920Y-96520
X121920Y-99060
X121920Y-101600
X121920Y-104140
X121920Y-106680
X121920Y-109220
X121920Y-111760
X121920Y-114300
X121920Y-116840
X121920Y-119380
X121920Y-121920
X121920Y-124460
X121920Y-127000
X121920Y-129540
X121920Y-132080
X129540Y-83820
X129540Y-86360
X129540Y-88900
X129540Y-91440
X129540Y-93980
X129540Y-96520
X129540Y-99060
X129540Y-109220
X129540Y-111760
X129540Y-114300
X129540Y-116840
X137160Y-83820
X137160Y-86360
X137160Y-88900
X137160Y-91440
X137160Y-93980
X137160Y-96520
X137160Y-99060
X137160Y-109220
X137160Y-111760
X137160Y-114300
X137160Y-116840
X144780Y-83820
X144780Y-86360
X144780Y-88900
X144780Y-91440
X144780Y-93980
X144780Y-96520
X144780Y-99060
X144780Y-101600
X144780Y-104140
X144780Y-106680
X144780Y-109220
X144780Y-111760
X144780Y-114300
X144780Y-116840
X152400Y-83820
X152400Y-86360
X152400Y-88900
X152400Y-91440
X152400Y-93980
X152400Y-96520
X152400Y-99060
X152400Y-101600
X152400Y-104140
X152400Y-106680
X152400Y-109220
X152400Y-111760
X152400Y-114300
X152400Y-116840
X160020Y-83820
X160020Y-86360
X160020Y-88900
X160020Y-91440
X160020Y-93980
X160020Y-96520
X160020Y-99060
X160020Y-101600
X160020Y-104140
X160020Y-106680
X160020Y-109220
X160020Y-111760
X160020Y-114300
X160020Y-116840
X160020Y-119380
X160020Y-121920
X160020Y-124460
X166370Y-105410
X168870Y-105410
X175260Y-83820
X175260Y-86360
X175260Y-88900
X175260Y-91440
X175260Y-93980
X175260Y-96520
X175260Y-99060
X175260Y-101600
X175260Y-104140
X175260Y-106680
X175260Y-109220
X175260Y-111760
X175260Y-114300
X175260Y-116840
X175260Y-119380
X175260Y-121920
X175260Y-124460
T3
X128270Y-129540
X128270Y-132080
X140970Y-129540
X140970Y-132080
X153670Y-129540
X153670Y-132080
X163830Y-91440
X163830Y-99060
X167640Y-91440
X167640Y-99060
X171450Y-91440
X171450Y-99060
T0
M30
