G04 #@! TF.FileFunction,Copper,L1,Top,Signal*
%FSLAX46Y46*%
G04 Gerber Fmt 4.6, Leading zero omitted, Abs format (unit mm)*
G04 Created by KiCad (PCBNEW 4.0.2+dfsg1-stable) date Mit 11 Mai 2016 00:43:05 CEST*
%MOMM*%
G01*
G04 APERTURE LIST*
%ADD10C,0.100000*%
%ADD11R,1.300000X1.300000*%
%ADD12C,1.300000*%
%ADD13O,2.300000X1.250000*%
%ADD14R,2.000000X2.000000*%
%ADD15C,2.000000*%
%ADD16O,2.200000X1.250000*%
%ADD17C,1.998980*%
%ADD18C,0.600000*%
%ADD19C,0.250000*%
%ADD20C,0.254000*%
G04 APERTURE END LIST*
D10*
D11*
X166370000Y-105410000D03*
D12*
X168870000Y-105410000D03*
D13*
X175260000Y-83820000D03*
X160020000Y-83820000D03*
X175260000Y-86360000D03*
X160020000Y-86360000D03*
X175260000Y-88900000D03*
X160020000Y-88900000D03*
X175260000Y-91440000D03*
X160020000Y-91440000D03*
X175260000Y-93980000D03*
X160020000Y-93980000D03*
X175260000Y-96520000D03*
X160020000Y-96520000D03*
X175260000Y-99060000D03*
X160020000Y-99060000D03*
X175260000Y-101600000D03*
X160020000Y-101600000D03*
X175260000Y-104140000D03*
X160020000Y-104140000D03*
X175260000Y-106680000D03*
X160020000Y-106680000D03*
X175260000Y-109220000D03*
X160020000Y-109220000D03*
X175260000Y-111760000D03*
X160020000Y-111760000D03*
X175260000Y-114300000D03*
X160020000Y-114300000D03*
X175260000Y-116840000D03*
X160020000Y-116840000D03*
X175260000Y-119380000D03*
X160020000Y-119380000D03*
X175260000Y-121920000D03*
X160020000Y-121920000D03*
X175260000Y-124460000D03*
X160020000Y-124460000D03*
D14*
X153670000Y-132080000D03*
D15*
X153670000Y-129540000D03*
D14*
X140970000Y-132080000D03*
D15*
X140970000Y-129540000D03*
D14*
X128270000Y-132080000D03*
D15*
X128270000Y-129540000D03*
D16*
X137160000Y-99060000D03*
X137160000Y-96520000D03*
X137160000Y-93980000D03*
X137160000Y-91440000D03*
X137160000Y-88900000D03*
X137160000Y-86360000D03*
X137160000Y-83820000D03*
X129540000Y-83820000D03*
X129540000Y-86360000D03*
X129540000Y-88900000D03*
X129540000Y-91440000D03*
X129540000Y-93980000D03*
X129540000Y-96520000D03*
X129540000Y-99060000D03*
X152400000Y-116840000D03*
X152400000Y-114300000D03*
X152400000Y-111760000D03*
X152400000Y-109220000D03*
X152400000Y-106680000D03*
X152400000Y-104140000D03*
X152400000Y-101600000D03*
X152400000Y-99060000D03*
X152400000Y-96520000D03*
X152400000Y-93980000D03*
X152400000Y-91440000D03*
X152400000Y-88900000D03*
X152400000Y-86360000D03*
X152400000Y-83820000D03*
X144780000Y-83820000D03*
X144780000Y-86360000D03*
X144780000Y-88900000D03*
X144780000Y-91440000D03*
X144780000Y-93980000D03*
X144780000Y-96520000D03*
X144780000Y-99060000D03*
X144780000Y-101600000D03*
X144780000Y-104140000D03*
X144780000Y-106680000D03*
X144780000Y-109220000D03*
X144780000Y-111760000D03*
X144780000Y-114300000D03*
X144780000Y-116840000D03*
X106680000Y-83820000D03*
X106680000Y-86360000D03*
X106680000Y-88900000D03*
X106680000Y-91440000D03*
X106680000Y-93980000D03*
X106680000Y-96520000D03*
X106680000Y-99060000D03*
X106680000Y-101600000D03*
X106680000Y-104140000D03*
X106680000Y-106680000D03*
X106680000Y-109220000D03*
X106680000Y-111760000D03*
X106680000Y-114300000D03*
X106680000Y-116840000D03*
X106680000Y-119380000D03*
X106680000Y-121920000D03*
X106680000Y-124460000D03*
X106680000Y-127000000D03*
X106680000Y-129540000D03*
X106680000Y-132080000D03*
X121920000Y-132080000D03*
X121920000Y-129540000D03*
X121920000Y-127000000D03*
X121920000Y-124460000D03*
X121920000Y-121920000D03*
X121920000Y-119380000D03*
X121920000Y-116840000D03*
X121920000Y-114300000D03*
X121920000Y-111760000D03*
X121920000Y-109220000D03*
X121920000Y-106680000D03*
X121920000Y-104140000D03*
X121920000Y-101600000D03*
X121920000Y-99060000D03*
X121920000Y-96520000D03*
X121920000Y-93980000D03*
X121920000Y-91440000D03*
X121920000Y-88900000D03*
X121920000Y-86360000D03*
X121920000Y-83820000D03*
X137160000Y-116840000D03*
X137160000Y-114300000D03*
X137160000Y-111760000D03*
X137160000Y-109220000D03*
X129540000Y-109220000D03*
X129540000Y-111760000D03*
X129540000Y-114300000D03*
X129540000Y-116840000D03*
D17*
X171450000Y-99060000D03*
X171450000Y-91440000D03*
X167640000Y-99060000D03*
X167640000Y-91440000D03*
X163830000Y-99060000D03*
X163830000Y-91440000D03*
D18*
X149860000Y-118110000D03*
X148590000Y-120650000D03*
X134620000Y-120650000D03*
X147320000Y-123190000D03*
X132080000Y-123190000D03*
D19*
X166370000Y-105410000D02*
X166370000Y-114300000D01*
X160020000Y-114300000D02*
X166370000Y-114300000D01*
X166370000Y-114300000D02*
X175260000Y-114300000D01*
X140970000Y-88900000D02*
X142240000Y-87630000D01*
X140970000Y-91440000D02*
X140970000Y-88900000D01*
X142240000Y-87630000D02*
X156210000Y-87630000D01*
X106680000Y-104140000D02*
X116840000Y-104140000D01*
X118110000Y-102870000D02*
X140970000Y-102870000D01*
X116840000Y-104140000D02*
X118110000Y-102870000D01*
X152400000Y-116840000D02*
X154940000Y-116840000D01*
X156210000Y-115570000D02*
X156210000Y-87630000D01*
X154940000Y-116840000D02*
X156210000Y-115570000D01*
X137160000Y-116840000D02*
X139700000Y-116840000D01*
X140970000Y-115570000D02*
X140970000Y-102870000D01*
X140970000Y-102870000D02*
X140970000Y-91440000D01*
X139700000Y-116840000D02*
X140970000Y-115570000D01*
X140970000Y-91440000D02*
X137160000Y-91440000D01*
X175260000Y-88900000D02*
X173990000Y-88900000D01*
X140970000Y-91440000D02*
X137160000Y-91440000D01*
X173990000Y-88900000D02*
X172720000Y-87630000D01*
X172720000Y-87630000D02*
X156210000Y-87630000D01*
X175260000Y-124460000D02*
X162560000Y-124460000D01*
X154940000Y-123190000D02*
X149860000Y-118110000D01*
X161290000Y-123190000D02*
X154940000Y-123190000D01*
X162560000Y-124460000D02*
X161290000Y-123190000D01*
X144780000Y-91440000D02*
X147320000Y-91440000D01*
X148590000Y-92710000D02*
X148590000Y-120650000D01*
X147320000Y-91440000D02*
X148590000Y-92710000D01*
X129540000Y-111760000D02*
X133350000Y-111760000D01*
X134620000Y-113030000D02*
X134620000Y-120650000D01*
X133350000Y-111760000D02*
X134620000Y-113030000D01*
X144780000Y-93980000D02*
X146050000Y-93980000D01*
X147320000Y-95250000D02*
X147320000Y-123190000D01*
X146050000Y-93980000D02*
X147320000Y-95250000D01*
X129540000Y-114300000D02*
X130810000Y-114300000D01*
X132080000Y-115570000D02*
X132080000Y-123190000D01*
X130810000Y-114300000D02*
X132080000Y-115570000D01*
D20*
G36*
X177673000Y-134493000D02*
X104267000Y-134493000D01*
X104267000Y-132080000D01*
X104911009Y-132080000D01*
X105006921Y-132562181D01*
X105280054Y-132970955D01*
X105688828Y-133244088D01*
X106171009Y-133340000D01*
X107188991Y-133340000D01*
X107671172Y-133244088D01*
X108079946Y-132970955D01*
X108353079Y-132562181D01*
X108448991Y-132080000D01*
X120151009Y-132080000D01*
X120246921Y-132562181D01*
X120520054Y-132970955D01*
X120928828Y-133244088D01*
X121411009Y-133340000D01*
X122428991Y-133340000D01*
X122911172Y-133244088D01*
X123319946Y-132970955D01*
X123593079Y-132562181D01*
X123688991Y-132080000D01*
X123593079Y-131597819D01*
X123319946Y-131189045D01*
X123156748Y-131080000D01*
X126622560Y-131080000D01*
X126622560Y-133080000D01*
X126666838Y-133315317D01*
X126805910Y-133531441D01*
X127018110Y-133676431D01*
X127270000Y-133727440D01*
X129270000Y-133727440D01*
X129505317Y-133683162D01*
X129721441Y-133544090D01*
X129866431Y-133331890D01*
X129917440Y-133080000D01*
X129917440Y-131080000D01*
X139322560Y-131080000D01*
X139322560Y-133080000D01*
X139366838Y-133315317D01*
X139505910Y-133531441D01*
X139718110Y-133676431D01*
X139970000Y-133727440D01*
X141970000Y-133727440D01*
X142205317Y-133683162D01*
X142421441Y-133544090D01*
X142566431Y-133331890D01*
X142617440Y-133080000D01*
X142617440Y-131080000D01*
X152022560Y-131080000D01*
X152022560Y-133080000D01*
X152066838Y-133315317D01*
X152205910Y-133531441D01*
X152418110Y-133676431D01*
X152670000Y-133727440D01*
X154670000Y-133727440D01*
X154905317Y-133683162D01*
X155121441Y-133544090D01*
X155266431Y-133331890D01*
X155317440Y-133080000D01*
X155317440Y-131080000D01*
X155273162Y-130844683D01*
X155134090Y-130628559D01*
X154991439Y-130531090D01*
X155055278Y-130467363D01*
X155304716Y-129866648D01*
X155305284Y-129216205D01*
X155056894Y-128615057D01*
X154597363Y-128154722D01*
X153996648Y-127905284D01*
X153346205Y-127904716D01*
X152745057Y-128153106D01*
X152284722Y-128612637D01*
X152035284Y-129213352D01*
X152034716Y-129863795D01*
X152283106Y-130464943D01*
X152349621Y-130531574D01*
X152218559Y-130615910D01*
X152073569Y-130828110D01*
X152022560Y-131080000D01*
X142617440Y-131080000D01*
X142573162Y-130844683D01*
X142434090Y-130628559D01*
X142291439Y-130531090D01*
X142355278Y-130467363D01*
X142604716Y-129866648D01*
X142605284Y-129216205D01*
X142356894Y-128615057D01*
X141897363Y-128154722D01*
X141296648Y-127905284D01*
X140646205Y-127904716D01*
X140045057Y-128153106D01*
X139584722Y-128612637D01*
X139335284Y-129213352D01*
X139334716Y-129863795D01*
X139583106Y-130464943D01*
X139649621Y-130531574D01*
X139518559Y-130615910D01*
X139373569Y-130828110D01*
X139322560Y-131080000D01*
X129917440Y-131080000D01*
X129873162Y-130844683D01*
X129734090Y-130628559D01*
X129591439Y-130531090D01*
X129655278Y-130467363D01*
X129904716Y-129866648D01*
X129905284Y-129216205D01*
X129656894Y-128615057D01*
X129197363Y-128154722D01*
X128596648Y-127905284D01*
X127946205Y-127904716D01*
X127345057Y-128153106D01*
X126884722Y-128612637D01*
X126635284Y-129213352D01*
X126634716Y-129863795D01*
X126883106Y-130464943D01*
X126949621Y-130531574D01*
X126818559Y-130615910D01*
X126673569Y-130828110D01*
X126622560Y-131080000D01*
X123156748Y-131080000D01*
X122911172Y-130915912D01*
X122428991Y-130820000D01*
X121411009Y-130820000D01*
X120928828Y-130915912D01*
X120520054Y-131189045D01*
X120246921Y-131597819D01*
X120151009Y-132080000D01*
X108448991Y-132080000D01*
X108353079Y-131597819D01*
X108079946Y-131189045D01*
X107671172Y-130915912D01*
X107188991Y-130820000D01*
X106171009Y-130820000D01*
X105688828Y-130915912D01*
X105280054Y-131189045D01*
X105006921Y-131597819D01*
X104911009Y-132080000D01*
X104267000Y-132080000D01*
X104267000Y-129540000D01*
X104911009Y-129540000D01*
X105006921Y-130022181D01*
X105280054Y-130430955D01*
X105688828Y-130704088D01*
X106171009Y-130800000D01*
X107188991Y-130800000D01*
X107671172Y-130704088D01*
X108079946Y-130430955D01*
X108353079Y-130022181D01*
X108448991Y-129540000D01*
X120151009Y-129540000D01*
X120246921Y-130022181D01*
X120520054Y-130430955D01*
X120928828Y-130704088D01*
X121411009Y-130800000D01*
X122428991Y-130800000D01*
X122911172Y-130704088D01*
X123319946Y-130430955D01*
X123593079Y-130022181D01*
X123688991Y-129540000D01*
X123593079Y-129057819D01*
X123319946Y-128649045D01*
X122911172Y-128375912D01*
X122428991Y-128280000D01*
X121411009Y-128280000D01*
X120928828Y-128375912D01*
X120520054Y-128649045D01*
X120246921Y-129057819D01*
X120151009Y-129540000D01*
X108448991Y-129540000D01*
X108353079Y-129057819D01*
X108079946Y-128649045D01*
X107671172Y-128375912D01*
X107188991Y-128280000D01*
X106171009Y-128280000D01*
X105688828Y-128375912D01*
X105280054Y-128649045D01*
X105006921Y-129057819D01*
X104911009Y-129540000D01*
X104267000Y-129540000D01*
X104267000Y-127000000D01*
X104911009Y-127000000D01*
X105006921Y-127482181D01*
X105280054Y-127890955D01*
X105688828Y-128164088D01*
X106171009Y-128260000D01*
X107188991Y-128260000D01*
X107671172Y-128164088D01*
X108079946Y-127890955D01*
X108353079Y-127482181D01*
X108448991Y-127000000D01*
X120151009Y-127000000D01*
X120246921Y-127482181D01*
X120520054Y-127890955D01*
X120928828Y-128164088D01*
X121411009Y-128260000D01*
X122428991Y-128260000D01*
X122911172Y-128164088D01*
X123319946Y-127890955D01*
X123593079Y-127482181D01*
X123688991Y-127000000D01*
X123593079Y-126517819D01*
X123319946Y-126109045D01*
X122911172Y-125835912D01*
X122428991Y-125740000D01*
X121411009Y-125740000D01*
X120928828Y-125835912D01*
X120520054Y-126109045D01*
X120246921Y-126517819D01*
X120151009Y-127000000D01*
X108448991Y-127000000D01*
X108353079Y-126517819D01*
X108079946Y-126109045D01*
X107671172Y-125835912D01*
X107188991Y-125740000D01*
X106171009Y-125740000D01*
X105688828Y-125835912D01*
X105280054Y-126109045D01*
X105006921Y-126517819D01*
X104911009Y-127000000D01*
X104267000Y-127000000D01*
X104267000Y-124460000D01*
X104911009Y-124460000D01*
X105006921Y-124942181D01*
X105280054Y-125350955D01*
X105688828Y-125624088D01*
X106171009Y-125720000D01*
X107188991Y-125720000D01*
X107671172Y-125624088D01*
X108079946Y-125350955D01*
X108353079Y-124942181D01*
X108448991Y-124460000D01*
X120151009Y-124460000D01*
X120246921Y-124942181D01*
X120520054Y-125350955D01*
X120928828Y-125624088D01*
X121411009Y-125720000D01*
X122428991Y-125720000D01*
X122911172Y-125624088D01*
X123319946Y-125350955D01*
X123593079Y-124942181D01*
X123688991Y-124460000D01*
X123593079Y-123977819D01*
X123319946Y-123569045D01*
X122911172Y-123295912D01*
X122428991Y-123200000D01*
X121411009Y-123200000D01*
X120928828Y-123295912D01*
X120520054Y-123569045D01*
X120246921Y-123977819D01*
X120151009Y-124460000D01*
X108448991Y-124460000D01*
X108353079Y-123977819D01*
X108079946Y-123569045D01*
X107671172Y-123295912D01*
X107188991Y-123200000D01*
X106171009Y-123200000D01*
X105688828Y-123295912D01*
X105280054Y-123569045D01*
X105006921Y-123977819D01*
X104911009Y-124460000D01*
X104267000Y-124460000D01*
X104267000Y-121920000D01*
X104911009Y-121920000D01*
X105006921Y-122402181D01*
X105280054Y-122810955D01*
X105688828Y-123084088D01*
X106171009Y-123180000D01*
X107188991Y-123180000D01*
X107671172Y-123084088D01*
X108079946Y-122810955D01*
X108353079Y-122402181D01*
X108448991Y-121920000D01*
X120151009Y-121920000D01*
X120246921Y-122402181D01*
X120520054Y-122810955D01*
X120928828Y-123084088D01*
X121411009Y-123180000D01*
X122428991Y-123180000D01*
X122911172Y-123084088D01*
X123319946Y-122810955D01*
X123593079Y-122402181D01*
X123688991Y-121920000D01*
X123593079Y-121437819D01*
X123319946Y-121029045D01*
X122911172Y-120755912D01*
X122428991Y-120660000D01*
X121411009Y-120660000D01*
X120928828Y-120755912D01*
X120520054Y-121029045D01*
X120246921Y-121437819D01*
X120151009Y-121920000D01*
X108448991Y-121920000D01*
X108353079Y-121437819D01*
X108079946Y-121029045D01*
X107671172Y-120755912D01*
X107188991Y-120660000D01*
X106171009Y-120660000D01*
X105688828Y-120755912D01*
X105280054Y-121029045D01*
X105006921Y-121437819D01*
X104911009Y-121920000D01*
X104267000Y-121920000D01*
X104267000Y-119380000D01*
X104911009Y-119380000D01*
X105006921Y-119862181D01*
X105280054Y-120270955D01*
X105688828Y-120544088D01*
X106171009Y-120640000D01*
X107188991Y-120640000D01*
X107671172Y-120544088D01*
X108079946Y-120270955D01*
X108353079Y-119862181D01*
X108448991Y-119380000D01*
X120151009Y-119380000D01*
X120246921Y-119862181D01*
X120520054Y-120270955D01*
X120928828Y-120544088D01*
X121411009Y-120640000D01*
X122428991Y-120640000D01*
X122911172Y-120544088D01*
X123319946Y-120270955D01*
X123593079Y-119862181D01*
X123688991Y-119380000D01*
X123593079Y-118897819D01*
X123319946Y-118489045D01*
X122911172Y-118215912D01*
X122428991Y-118120000D01*
X121411009Y-118120000D01*
X120928828Y-118215912D01*
X120520054Y-118489045D01*
X120246921Y-118897819D01*
X120151009Y-119380000D01*
X108448991Y-119380000D01*
X108353079Y-118897819D01*
X108079946Y-118489045D01*
X107671172Y-118215912D01*
X107188991Y-118120000D01*
X106171009Y-118120000D01*
X105688828Y-118215912D01*
X105280054Y-118489045D01*
X105006921Y-118897819D01*
X104911009Y-119380000D01*
X104267000Y-119380000D01*
X104267000Y-116840000D01*
X104911009Y-116840000D01*
X105006921Y-117322181D01*
X105280054Y-117730955D01*
X105688828Y-118004088D01*
X106171009Y-118100000D01*
X107188991Y-118100000D01*
X107671172Y-118004088D01*
X108079946Y-117730955D01*
X108353079Y-117322181D01*
X108448991Y-116840000D01*
X120151009Y-116840000D01*
X120246921Y-117322181D01*
X120520054Y-117730955D01*
X120928828Y-118004088D01*
X121411009Y-118100000D01*
X122428991Y-118100000D01*
X122911172Y-118004088D01*
X123319946Y-117730955D01*
X123593079Y-117322181D01*
X123625032Y-117161540D01*
X127846718Y-117161540D01*
X127852311Y-117204848D01*
X128084243Y-117641152D01*
X128465486Y-117955487D01*
X128938000Y-118100000D01*
X129413000Y-118100000D01*
X129413000Y-116967000D01*
X129667000Y-116967000D01*
X129667000Y-118100000D01*
X130142000Y-118100000D01*
X130614514Y-117955487D01*
X130995757Y-117641152D01*
X131227689Y-117204848D01*
X131233282Y-117161540D01*
X131108902Y-116967000D01*
X129667000Y-116967000D01*
X129413000Y-116967000D01*
X127971098Y-116967000D01*
X127846718Y-117161540D01*
X123625032Y-117161540D01*
X123688991Y-116840000D01*
X123625033Y-116518460D01*
X127846718Y-116518460D01*
X127971098Y-116713000D01*
X129413000Y-116713000D01*
X129413000Y-115580000D01*
X129667000Y-115580000D01*
X129667000Y-116713000D01*
X131108902Y-116713000D01*
X131233282Y-116518460D01*
X131227689Y-116475152D01*
X130995757Y-116038848D01*
X130614514Y-115724513D01*
X130142000Y-115580000D01*
X129667000Y-115580000D01*
X129413000Y-115580000D01*
X128938000Y-115580000D01*
X128465486Y-115724513D01*
X128084243Y-116038848D01*
X127852311Y-116475152D01*
X127846718Y-116518460D01*
X123625033Y-116518460D01*
X123593079Y-116357819D01*
X123319946Y-115949045D01*
X122911172Y-115675912D01*
X122428991Y-115580000D01*
X121411009Y-115580000D01*
X120928828Y-115675912D01*
X120520054Y-115949045D01*
X120246921Y-116357819D01*
X120151009Y-116840000D01*
X108448991Y-116840000D01*
X108353079Y-116357819D01*
X108079946Y-115949045D01*
X107671172Y-115675912D01*
X107188991Y-115580000D01*
X106171009Y-115580000D01*
X105688828Y-115675912D01*
X105280054Y-115949045D01*
X105006921Y-116357819D01*
X104911009Y-116840000D01*
X104267000Y-116840000D01*
X104267000Y-114300000D01*
X104911009Y-114300000D01*
X105006921Y-114782181D01*
X105280054Y-115190955D01*
X105688828Y-115464088D01*
X106171009Y-115560000D01*
X107188991Y-115560000D01*
X107671172Y-115464088D01*
X108079946Y-115190955D01*
X108353079Y-114782181D01*
X108448991Y-114300000D01*
X120151009Y-114300000D01*
X120246921Y-114782181D01*
X120520054Y-115190955D01*
X120928828Y-115464088D01*
X121411009Y-115560000D01*
X122428991Y-115560000D01*
X122911172Y-115464088D01*
X123319946Y-115190955D01*
X123593079Y-114782181D01*
X123688991Y-114300000D01*
X127771009Y-114300000D01*
X127866921Y-114782181D01*
X128140054Y-115190955D01*
X128548828Y-115464088D01*
X129031009Y-115560000D01*
X130048991Y-115560000D01*
X130531172Y-115464088D01*
X130751841Y-115316643D01*
X131320000Y-115884802D01*
X131320000Y-122627537D01*
X131287808Y-122659673D01*
X131145162Y-123003201D01*
X131144838Y-123375167D01*
X131286883Y-123718943D01*
X131549673Y-123982192D01*
X131893201Y-124124838D01*
X132265167Y-124125162D01*
X132608943Y-123983117D01*
X132872192Y-123720327D01*
X133014838Y-123376799D01*
X133015162Y-123004833D01*
X132873117Y-122661057D01*
X132840000Y-122627882D01*
X132840000Y-115570000D01*
X132782148Y-115279161D01*
X132782148Y-115279160D01*
X132617401Y-115032599D01*
X131347401Y-113762599D01*
X131100839Y-113597852D01*
X131060778Y-113589883D01*
X130939946Y-113409045D01*
X130531172Y-113135912D01*
X130048991Y-113040000D01*
X129031009Y-113040000D01*
X128548828Y-113135912D01*
X128140054Y-113409045D01*
X127866921Y-113817819D01*
X127771009Y-114300000D01*
X123688991Y-114300000D01*
X123593079Y-113817819D01*
X123319946Y-113409045D01*
X122911172Y-113135912D01*
X122428991Y-113040000D01*
X121411009Y-113040000D01*
X120928828Y-113135912D01*
X120520054Y-113409045D01*
X120246921Y-113817819D01*
X120151009Y-114300000D01*
X108448991Y-114300000D01*
X108353079Y-113817819D01*
X108079946Y-113409045D01*
X107671172Y-113135912D01*
X107188991Y-113040000D01*
X106171009Y-113040000D01*
X105688828Y-113135912D01*
X105280054Y-113409045D01*
X105006921Y-113817819D01*
X104911009Y-114300000D01*
X104267000Y-114300000D01*
X104267000Y-111760000D01*
X104911009Y-111760000D01*
X105006921Y-112242181D01*
X105280054Y-112650955D01*
X105688828Y-112924088D01*
X106171009Y-113020000D01*
X107188991Y-113020000D01*
X107671172Y-112924088D01*
X108079946Y-112650955D01*
X108353079Y-112242181D01*
X108448991Y-111760000D01*
X120151009Y-111760000D01*
X120246921Y-112242181D01*
X120520054Y-112650955D01*
X120928828Y-112924088D01*
X121411009Y-113020000D01*
X122428991Y-113020000D01*
X122911172Y-112924088D01*
X123319946Y-112650955D01*
X123593079Y-112242181D01*
X123688991Y-111760000D01*
X127771009Y-111760000D01*
X127866921Y-112242181D01*
X128140054Y-112650955D01*
X128548828Y-112924088D01*
X129031009Y-113020000D01*
X130048991Y-113020000D01*
X130531172Y-112924088D01*
X130939946Y-112650955D01*
X131027447Y-112520000D01*
X133035198Y-112520000D01*
X133860000Y-113344802D01*
X133860000Y-120087537D01*
X133827808Y-120119673D01*
X133685162Y-120463201D01*
X133684838Y-120835167D01*
X133826883Y-121178943D01*
X134089673Y-121442192D01*
X134433201Y-121584838D01*
X134805167Y-121585162D01*
X135148943Y-121443117D01*
X135412192Y-121180327D01*
X135554838Y-120836799D01*
X135555162Y-120464833D01*
X135413117Y-120121057D01*
X135380000Y-120087882D01*
X135380000Y-114300000D01*
X135391009Y-114300000D01*
X135486921Y-114782181D01*
X135760054Y-115190955D01*
X136168828Y-115464088D01*
X136651009Y-115560000D01*
X137668991Y-115560000D01*
X138151172Y-115464088D01*
X138559946Y-115190955D01*
X138833079Y-114782181D01*
X138928991Y-114300000D01*
X138833079Y-113817819D01*
X138559946Y-113409045D01*
X138151172Y-113135912D01*
X137668991Y-113040000D01*
X136651009Y-113040000D01*
X136168828Y-113135912D01*
X135760054Y-113409045D01*
X135486921Y-113817819D01*
X135391009Y-114300000D01*
X135380000Y-114300000D01*
X135380000Y-113030000D01*
X135322148Y-112739161D01*
X135322148Y-112739160D01*
X135157401Y-112492599D01*
X134424802Y-111760000D01*
X135391009Y-111760000D01*
X135486921Y-112242181D01*
X135760054Y-112650955D01*
X136168828Y-112924088D01*
X136651009Y-113020000D01*
X137668991Y-113020000D01*
X138151172Y-112924088D01*
X138559946Y-112650955D01*
X138833079Y-112242181D01*
X138928991Y-111760000D01*
X138833079Y-111277819D01*
X138559946Y-110869045D01*
X138151172Y-110595912D01*
X137668991Y-110500000D01*
X136651009Y-110500000D01*
X136168828Y-110595912D01*
X135760054Y-110869045D01*
X135486921Y-111277819D01*
X135391009Y-111760000D01*
X134424802Y-111760000D01*
X133887401Y-111222599D01*
X133640839Y-111057852D01*
X133350000Y-111000000D01*
X131027447Y-111000000D01*
X130939946Y-110869045D01*
X130531172Y-110595912D01*
X130048991Y-110500000D01*
X129031009Y-110500000D01*
X128548828Y-110595912D01*
X128140054Y-110869045D01*
X127866921Y-111277819D01*
X127771009Y-111760000D01*
X123688991Y-111760000D01*
X123593079Y-111277819D01*
X123319946Y-110869045D01*
X122911172Y-110595912D01*
X122428991Y-110500000D01*
X121411009Y-110500000D01*
X120928828Y-110595912D01*
X120520054Y-110869045D01*
X120246921Y-111277819D01*
X120151009Y-111760000D01*
X108448991Y-111760000D01*
X108353079Y-111277819D01*
X108079946Y-110869045D01*
X107671172Y-110595912D01*
X107188991Y-110500000D01*
X106171009Y-110500000D01*
X105688828Y-110595912D01*
X105280054Y-110869045D01*
X105006921Y-111277819D01*
X104911009Y-111760000D01*
X104267000Y-111760000D01*
X104267000Y-109220000D01*
X104911009Y-109220000D01*
X105006921Y-109702181D01*
X105280054Y-110110955D01*
X105688828Y-110384088D01*
X106171009Y-110480000D01*
X107188991Y-110480000D01*
X107671172Y-110384088D01*
X108079946Y-110110955D01*
X108353079Y-109702181D01*
X108448991Y-109220000D01*
X120151009Y-109220000D01*
X120246921Y-109702181D01*
X120520054Y-110110955D01*
X120928828Y-110384088D01*
X121411009Y-110480000D01*
X122428991Y-110480000D01*
X122911172Y-110384088D01*
X123319946Y-110110955D01*
X123593079Y-109702181D01*
X123688991Y-109220000D01*
X127771009Y-109220000D01*
X127866921Y-109702181D01*
X128140054Y-110110955D01*
X128548828Y-110384088D01*
X129031009Y-110480000D01*
X130048991Y-110480000D01*
X130531172Y-110384088D01*
X130939946Y-110110955D01*
X131213079Y-109702181D01*
X131308991Y-109220000D01*
X135391009Y-109220000D01*
X135486921Y-109702181D01*
X135760054Y-110110955D01*
X136168828Y-110384088D01*
X136651009Y-110480000D01*
X137668991Y-110480000D01*
X138151172Y-110384088D01*
X138559946Y-110110955D01*
X138833079Y-109702181D01*
X138928991Y-109220000D01*
X138833079Y-108737819D01*
X138559946Y-108329045D01*
X138151172Y-108055912D01*
X137668991Y-107960000D01*
X136651009Y-107960000D01*
X136168828Y-108055912D01*
X135760054Y-108329045D01*
X135486921Y-108737819D01*
X135391009Y-109220000D01*
X131308991Y-109220000D01*
X131213079Y-108737819D01*
X130939946Y-108329045D01*
X130531172Y-108055912D01*
X130048991Y-107960000D01*
X129031009Y-107960000D01*
X128548828Y-108055912D01*
X128140054Y-108329045D01*
X127866921Y-108737819D01*
X127771009Y-109220000D01*
X123688991Y-109220000D01*
X123593079Y-108737819D01*
X123319946Y-108329045D01*
X122911172Y-108055912D01*
X122428991Y-107960000D01*
X121411009Y-107960000D01*
X120928828Y-108055912D01*
X120520054Y-108329045D01*
X120246921Y-108737819D01*
X120151009Y-109220000D01*
X108448991Y-109220000D01*
X108353079Y-108737819D01*
X108079946Y-108329045D01*
X107671172Y-108055912D01*
X107188991Y-107960000D01*
X106171009Y-107960000D01*
X105688828Y-108055912D01*
X105280054Y-108329045D01*
X105006921Y-108737819D01*
X104911009Y-109220000D01*
X104267000Y-109220000D01*
X104267000Y-107001540D01*
X104986718Y-107001540D01*
X104992311Y-107044848D01*
X105224243Y-107481152D01*
X105605486Y-107795487D01*
X106078000Y-107940000D01*
X106553000Y-107940000D01*
X106553000Y-106807000D01*
X106807000Y-106807000D01*
X106807000Y-107940000D01*
X107282000Y-107940000D01*
X107754514Y-107795487D01*
X108135757Y-107481152D01*
X108367689Y-107044848D01*
X108373282Y-107001540D01*
X108248902Y-106807000D01*
X106807000Y-106807000D01*
X106553000Y-106807000D01*
X105111098Y-106807000D01*
X104986718Y-107001540D01*
X104267000Y-107001540D01*
X104267000Y-106680000D01*
X120151009Y-106680000D01*
X120246921Y-107162181D01*
X120520054Y-107570955D01*
X120928828Y-107844088D01*
X121411009Y-107940000D01*
X122428991Y-107940000D01*
X122911172Y-107844088D01*
X123319946Y-107570955D01*
X123593079Y-107162181D01*
X123688991Y-106680000D01*
X123593079Y-106197819D01*
X123319946Y-105789045D01*
X122911172Y-105515912D01*
X122428991Y-105420000D01*
X121411009Y-105420000D01*
X120928828Y-105515912D01*
X120520054Y-105789045D01*
X120246921Y-106197819D01*
X120151009Y-106680000D01*
X104267000Y-106680000D01*
X104267000Y-106358460D01*
X104986718Y-106358460D01*
X105111098Y-106553000D01*
X106553000Y-106553000D01*
X106553000Y-105420000D01*
X106807000Y-105420000D01*
X106807000Y-106553000D01*
X108248902Y-106553000D01*
X108373282Y-106358460D01*
X108367689Y-106315152D01*
X108135757Y-105878848D01*
X107754514Y-105564513D01*
X107282000Y-105420000D01*
X106807000Y-105420000D01*
X106553000Y-105420000D01*
X106078000Y-105420000D01*
X105605486Y-105564513D01*
X105224243Y-105878848D01*
X104992311Y-106315152D01*
X104986718Y-106358460D01*
X104267000Y-106358460D01*
X104267000Y-104140000D01*
X104911009Y-104140000D01*
X105006921Y-104622181D01*
X105280054Y-105030955D01*
X105688828Y-105304088D01*
X106171009Y-105400000D01*
X107188991Y-105400000D01*
X107671172Y-105304088D01*
X108079946Y-105030955D01*
X108167447Y-104900000D01*
X116840000Y-104900000D01*
X117130839Y-104842148D01*
X117377401Y-104677401D01*
X118424802Y-103630000D01*
X120265509Y-103630000D01*
X120246921Y-103657819D01*
X120151009Y-104140000D01*
X120246921Y-104622181D01*
X120520054Y-105030955D01*
X120928828Y-105304088D01*
X121411009Y-105400000D01*
X122428991Y-105400000D01*
X122911172Y-105304088D01*
X123319946Y-105030955D01*
X123593079Y-104622181D01*
X123688991Y-104140000D01*
X123593079Y-103657819D01*
X123574491Y-103630000D01*
X140210000Y-103630000D01*
X140210000Y-115255198D01*
X139385198Y-116080000D01*
X138647447Y-116080000D01*
X138559946Y-115949045D01*
X138151172Y-115675912D01*
X137668991Y-115580000D01*
X136651009Y-115580000D01*
X136168828Y-115675912D01*
X135760054Y-115949045D01*
X135486921Y-116357819D01*
X135391009Y-116840000D01*
X135486921Y-117322181D01*
X135760054Y-117730955D01*
X136168828Y-118004088D01*
X136651009Y-118100000D01*
X137668991Y-118100000D01*
X138151172Y-118004088D01*
X138559946Y-117730955D01*
X138647447Y-117600000D01*
X139700000Y-117600000D01*
X139990839Y-117542148D01*
X140237401Y-117377401D01*
X140774802Y-116840000D01*
X143011009Y-116840000D01*
X143106921Y-117322181D01*
X143380054Y-117730955D01*
X143788828Y-118004088D01*
X144271009Y-118100000D01*
X145288991Y-118100000D01*
X145771172Y-118004088D01*
X146179946Y-117730955D01*
X146453079Y-117322181D01*
X146548991Y-116840000D01*
X146453079Y-116357819D01*
X146179946Y-115949045D01*
X145771172Y-115675912D01*
X145288991Y-115580000D01*
X144271009Y-115580000D01*
X143788828Y-115675912D01*
X143380054Y-115949045D01*
X143106921Y-116357819D01*
X143011009Y-116840000D01*
X140774802Y-116840000D01*
X141507401Y-116107401D01*
X141672148Y-115860840D01*
X141730000Y-115570000D01*
X141730000Y-114300000D01*
X143011009Y-114300000D01*
X143106921Y-114782181D01*
X143380054Y-115190955D01*
X143788828Y-115464088D01*
X144271009Y-115560000D01*
X145288991Y-115560000D01*
X145771172Y-115464088D01*
X146179946Y-115190955D01*
X146453079Y-114782181D01*
X146548991Y-114300000D01*
X146453079Y-113817819D01*
X146179946Y-113409045D01*
X145771172Y-113135912D01*
X145288991Y-113040000D01*
X144271009Y-113040000D01*
X143788828Y-113135912D01*
X143380054Y-113409045D01*
X143106921Y-113817819D01*
X143011009Y-114300000D01*
X141730000Y-114300000D01*
X141730000Y-111760000D01*
X143011009Y-111760000D01*
X143106921Y-112242181D01*
X143380054Y-112650955D01*
X143788828Y-112924088D01*
X144271009Y-113020000D01*
X145288991Y-113020000D01*
X145771172Y-112924088D01*
X146179946Y-112650955D01*
X146453079Y-112242181D01*
X146548991Y-111760000D01*
X146453079Y-111277819D01*
X146179946Y-110869045D01*
X145771172Y-110595912D01*
X145288991Y-110500000D01*
X144271009Y-110500000D01*
X143788828Y-110595912D01*
X143380054Y-110869045D01*
X143106921Y-111277819D01*
X143011009Y-111760000D01*
X141730000Y-111760000D01*
X141730000Y-109220000D01*
X143011009Y-109220000D01*
X143106921Y-109702181D01*
X143380054Y-110110955D01*
X143788828Y-110384088D01*
X144271009Y-110480000D01*
X145288991Y-110480000D01*
X145771172Y-110384088D01*
X146179946Y-110110955D01*
X146453079Y-109702181D01*
X146548991Y-109220000D01*
X146453079Y-108737819D01*
X146179946Y-108329045D01*
X145771172Y-108055912D01*
X145288991Y-107960000D01*
X144271009Y-107960000D01*
X143788828Y-108055912D01*
X143380054Y-108329045D01*
X143106921Y-108737819D01*
X143011009Y-109220000D01*
X141730000Y-109220000D01*
X141730000Y-106680000D01*
X143011009Y-106680000D01*
X143106921Y-107162181D01*
X143380054Y-107570955D01*
X143788828Y-107844088D01*
X144271009Y-107940000D01*
X145288991Y-107940000D01*
X145771172Y-107844088D01*
X146179946Y-107570955D01*
X146453079Y-107162181D01*
X146548991Y-106680000D01*
X146453079Y-106197819D01*
X146179946Y-105789045D01*
X145771172Y-105515912D01*
X145288991Y-105420000D01*
X144271009Y-105420000D01*
X143788828Y-105515912D01*
X143380054Y-105789045D01*
X143106921Y-106197819D01*
X143011009Y-106680000D01*
X141730000Y-106680000D01*
X141730000Y-104140000D01*
X143011009Y-104140000D01*
X143106921Y-104622181D01*
X143380054Y-105030955D01*
X143788828Y-105304088D01*
X144271009Y-105400000D01*
X145288991Y-105400000D01*
X145771172Y-105304088D01*
X146179946Y-105030955D01*
X146453079Y-104622181D01*
X146548991Y-104140000D01*
X146453079Y-103657819D01*
X146179946Y-103249045D01*
X145771172Y-102975912D01*
X145288991Y-102880000D01*
X144271009Y-102880000D01*
X143788828Y-102975912D01*
X143380054Y-103249045D01*
X143106921Y-103657819D01*
X143011009Y-104140000D01*
X141730000Y-104140000D01*
X141730000Y-101600000D01*
X143011009Y-101600000D01*
X143106921Y-102082181D01*
X143380054Y-102490955D01*
X143788828Y-102764088D01*
X144271009Y-102860000D01*
X145288991Y-102860000D01*
X145771172Y-102764088D01*
X146179946Y-102490955D01*
X146453079Y-102082181D01*
X146548991Y-101600000D01*
X146453079Y-101117819D01*
X146179946Y-100709045D01*
X145771172Y-100435912D01*
X145288991Y-100340000D01*
X144271009Y-100340000D01*
X143788828Y-100435912D01*
X143380054Y-100709045D01*
X143106921Y-101117819D01*
X143011009Y-101600000D01*
X141730000Y-101600000D01*
X141730000Y-99060000D01*
X143011009Y-99060000D01*
X143106921Y-99542181D01*
X143380054Y-99950955D01*
X143788828Y-100224088D01*
X144271009Y-100320000D01*
X145288991Y-100320000D01*
X145771172Y-100224088D01*
X146179946Y-99950955D01*
X146453079Y-99542181D01*
X146548991Y-99060000D01*
X146453079Y-98577819D01*
X146179946Y-98169045D01*
X145771172Y-97895912D01*
X145288991Y-97800000D01*
X144271009Y-97800000D01*
X143788828Y-97895912D01*
X143380054Y-98169045D01*
X143106921Y-98577819D01*
X143011009Y-99060000D01*
X141730000Y-99060000D01*
X141730000Y-96520000D01*
X143011009Y-96520000D01*
X143106921Y-97002181D01*
X143380054Y-97410955D01*
X143788828Y-97684088D01*
X144271009Y-97780000D01*
X145288991Y-97780000D01*
X145771172Y-97684088D01*
X146179946Y-97410955D01*
X146453079Y-97002181D01*
X146548991Y-96520000D01*
X146453079Y-96037819D01*
X146179946Y-95629045D01*
X145771172Y-95355912D01*
X145288991Y-95260000D01*
X144271009Y-95260000D01*
X143788828Y-95355912D01*
X143380054Y-95629045D01*
X143106921Y-96037819D01*
X143011009Y-96520000D01*
X141730000Y-96520000D01*
X141730000Y-91440000D01*
X143011009Y-91440000D01*
X143106921Y-91922181D01*
X143380054Y-92330955D01*
X143788828Y-92604088D01*
X144271009Y-92700000D01*
X145288991Y-92700000D01*
X145771172Y-92604088D01*
X146179946Y-92330955D01*
X146267447Y-92200000D01*
X147005198Y-92200000D01*
X147830000Y-93024802D01*
X147830000Y-94685198D01*
X146587401Y-93442599D01*
X146340839Y-93277852D01*
X146300778Y-93269883D01*
X146179946Y-93089045D01*
X145771172Y-92815912D01*
X145288991Y-92720000D01*
X144271009Y-92720000D01*
X143788828Y-92815912D01*
X143380054Y-93089045D01*
X143106921Y-93497819D01*
X143011009Y-93980000D01*
X143106921Y-94462181D01*
X143380054Y-94870955D01*
X143788828Y-95144088D01*
X144271009Y-95240000D01*
X145288991Y-95240000D01*
X145771172Y-95144088D01*
X145991841Y-94996643D01*
X146560000Y-95564802D01*
X146560000Y-122627537D01*
X146527808Y-122659673D01*
X146385162Y-123003201D01*
X146384838Y-123375167D01*
X146526883Y-123718943D01*
X146789673Y-123982192D01*
X147133201Y-124124838D01*
X147505167Y-124125162D01*
X147848943Y-123983117D01*
X148112192Y-123720327D01*
X148254838Y-123376799D01*
X148255162Y-123004833D01*
X148113117Y-122661057D01*
X148080000Y-122627882D01*
X148080000Y-121450633D01*
X148403201Y-121584838D01*
X148775167Y-121585162D01*
X149118943Y-121443117D01*
X149382192Y-121180327D01*
X149524838Y-120836799D01*
X149525162Y-120464833D01*
X149383117Y-120121057D01*
X149350000Y-120087882D01*
X149350000Y-118910633D01*
X149673201Y-119044838D01*
X149720077Y-119044879D01*
X154402599Y-123727401D01*
X154649161Y-123892148D01*
X154940000Y-123950000D01*
X158314530Y-123950000D01*
X158295942Y-123977819D01*
X158200030Y-124460000D01*
X158295942Y-124942181D01*
X158569075Y-125350955D01*
X158977849Y-125624088D01*
X159460030Y-125720000D01*
X160579970Y-125720000D01*
X161062151Y-125624088D01*
X161470925Y-125350955D01*
X161744058Y-124942181D01*
X161781109Y-124755911D01*
X162022599Y-124997401D01*
X162269160Y-125162148D01*
X162560000Y-125220000D01*
X173721574Y-125220000D01*
X173809075Y-125350955D01*
X174217849Y-125624088D01*
X174700030Y-125720000D01*
X175819970Y-125720000D01*
X176302151Y-125624088D01*
X176710925Y-125350955D01*
X176984058Y-124942181D01*
X177079970Y-124460000D01*
X176984058Y-123977819D01*
X176710925Y-123569045D01*
X176302151Y-123295912D01*
X175819970Y-123200000D01*
X174700030Y-123200000D01*
X174217849Y-123295912D01*
X173809075Y-123569045D01*
X173721574Y-123700000D01*
X162874802Y-123700000D01*
X161827401Y-122652599D01*
X161654105Y-122536806D01*
X161744058Y-122402181D01*
X161839970Y-121920000D01*
X173440030Y-121920000D01*
X173535942Y-122402181D01*
X173809075Y-122810955D01*
X174217849Y-123084088D01*
X174700030Y-123180000D01*
X175819970Y-123180000D01*
X176302151Y-123084088D01*
X176710925Y-122810955D01*
X176984058Y-122402181D01*
X177079970Y-121920000D01*
X176984058Y-121437819D01*
X176710925Y-121029045D01*
X176302151Y-120755912D01*
X175819970Y-120660000D01*
X174700030Y-120660000D01*
X174217849Y-120755912D01*
X173809075Y-121029045D01*
X173535942Y-121437819D01*
X173440030Y-121920000D01*
X161839970Y-121920000D01*
X161744058Y-121437819D01*
X161470925Y-121029045D01*
X161062151Y-120755912D01*
X160579970Y-120660000D01*
X159460030Y-120660000D01*
X158977849Y-120755912D01*
X158569075Y-121029045D01*
X158295942Y-121437819D01*
X158200030Y-121920000D01*
X158295942Y-122402181D01*
X158314530Y-122430000D01*
X155254802Y-122430000D01*
X152204802Y-119380000D01*
X158200030Y-119380000D01*
X158295942Y-119862181D01*
X158569075Y-120270955D01*
X158977849Y-120544088D01*
X159460030Y-120640000D01*
X160579970Y-120640000D01*
X161062151Y-120544088D01*
X161470925Y-120270955D01*
X161744058Y-119862181D01*
X161839970Y-119380000D01*
X173440030Y-119380000D01*
X173535942Y-119862181D01*
X173809075Y-120270955D01*
X174217849Y-120544088D01*
X174700030Y-120640000D01*
X175819970Y-120640000D01*
X176302151Y-120544088D01*
X176710925Y-120270955D01*
X176984058Y-119862181D01*
X177079970Y-119380000D01*
X176984058Y-118897819D01*
X176710925Y-118489045D01*
X176302151Y-118215912D01*
X175819970Y-118120000D01*
X174700030Y-118120000D01*
X174217849Y-118215912D01*
X173809075Y-118489045D01*
X173535942Y-118897819D01*
X173440030Y-119380000D01*
X161839970Y-119380000D01*
X161744058Y-118897819D01*
X161470925Y-118489045D01*
X161062151Y-118215912D01*
X160579970Y-118120000D01*
X159460030Y-118120000D01*
X158977849Y-118215912D01*
X158569075Y-118489045D01*
X158295942Y-118897819D01*
X158200030Y-119380000D01*
X152204802Y-119380000D01*
X150795122Y-117970320D01*
X150795162Y-117924833D01*
X150653117Y-117581057D01*
X150390327Y-117317808D01*
X150046799Y-117175162D01*
X149674833Y-117174838D01*
X149350000Y-117309056D01*
X149350000Y-114300000D01*
X150631009Y-114300000D01*
X150726921Y-114782181D01*
X151000054Y-115190955D01*
X151408828Y-115464088D01*
X151891009Y-115560000D01*
X152908991Y-115560000D01*
X153391172Y-115464088D01*
X153799946Y-115190955D01*
X154073079Y-114782181D01*
X154168991Y-114300000D01*
X154073079Y-113817819D01*
X153799946Y-113409045D01*
X153391172Y-113135912D01*
X152908991Y-113040000D01*
X151891009Y-113040000D01*
X151408828Y-113135912D01*
X151000054Y-113409045D01*
X150726921Y-113817819D01*
X150631009Y-114300000D01*
X149350000Y-114300000D01*
X149350000Y-111760000D01*
X150631009Y-111760000D01*
X150726921Y-112242181D01*
X151000054Y-112650955D01*
X151408828Y-112924088D01*
X151891009Y-113020000D01*
X152908991Y-113020000D01*
X153391172Y-112924088D01*
X153799946Y-112650955D01*
X154073079Y-112242181D01*
X154168991Y-111760000D01*
X154073079Y-111277819D01*
X153799946Y-110869045D01*
X153391172Y-110595912D01*
X152908991Y-110500000D01*
X151891009Y-110500000D01*
X151408828Y-110595912D01*
X151000054Y-110869045D01*
X150726921Y-111277819D01*
X150631009Y-111760000D01*
X149350000Y-111760000D01*
X149350000Y-109220000D01*
X150631009Y-109220000D01*
X150726921Y-109702181D01*
X151000054Y-110110955D01*
X151408828Y-110384088D01*
X151891009Y-110480000D01*
X152908991Y-110480000D01*
X153391172Y-110384088D01*
X153799946Y-110110955D01*
X154073079Y-109702181D01*
X154168991Y-109220000D01*
X154073079Y-108737819D01*
X153799946Y-108329045D01*
X153391172Y-108055912D01*
X152908991Y-107960000D01*
X151891009Y-107960000D01*
X151408828Y-108055912D01*
X151000054Y-108329045D01*
X150726921Y-108737819D01*
X150631009Y-109220000D01*
X149350000Y-109220000D01*
X149350000Y-106680000D01*
X150631009Y-106680000D01*
X150726921Y-107162181D01*
X151000054Y-107570955D01*
X151408828Y-107844088D01*
X151891009Y-107940000D01*
X152908991Y-107940000D01*
X153391172Y-107844088D01*
X153799946Y-107570955D01*
X154073079Y-107162181D01*
X154168991Y-106680000D01*
X154073079Y-106197819D01*
X153799946Y-105789045D01*
X153391172Y-105515912D01*
X152908991Y-105420000D01*
X151891009Y-105420000D01*
X151408828Y-105515912D01*
X151000054Y-105789045D01*
X150726921Y-106197819D01*
X150631009Y-106680000D01*
X149350000Y-106680000D01*
X149350000Y-104140000D01*
X150631009Y-104140000D01*
X150726921Y-104622181D01*
X151000054Y-105030955D01*
X151408828Y-105304088D01*
X151891009Y-105400000D01*
X152908991Y-105400000D01*
X153391172Y-105304088D01*
X153799946Y-105030955D01*
X154073079Y-104622181D01*
X154168991Y-104140000D01*
X154073079Y-103657819D01*
X153799946Y-103249045D01*
X153391172Y-102975912D01*
X152908991Y-102880000D01*
X151891009Y-102880000D01*
X151408828Y-102975912D01*
X151000054Y-103249045D01*
X150726921Y-103657819D01*
X150631009Y-104140000D01*
X149350000Y-104140000D01*
X149350000Y-101921540D01*
X150706718Y-101921540D01*
X150712311Y-101964848D01*
X150944243Y-102401152D01*
X151325486Y-102715487D01*
X151798000Y-102860000D01*
X152273000Y-102860000D01*
X152273000Y-101727000D01*
X152527000Y-101727000D01*
X152527000Y-102860000D01*
X153002000Y-102860000D01*
X153474514Y-102715487D01*
X153855757Y-102401152D01*
X154087689Y-101964848D01*
X154093282Y-101921540D01*
X153968902Y-101727000D01*
X152527000Y-101727000D01*
X152273000Y-101727000D01*
X150831098Y-101727000D01*
X150706718Y-101921540D01*
X149350000Y-101921540D01*
X149350000Y-101278460D01*
X150706718Y-101278460D01*
X150831098Y-101473000D01*
X152273000Y-101473000D01*
X152273000Y-100340000D01*
X152527000Y-100340000D01*
X152527000Y-101473000D01*
X153968902Y-101473000D01*
X154093282Y-101278460D01*
X154087689Y-101235152D01*
X153855757Y-100798848D01*
X153474514Y-100484513D01*
X153002000Y-100340000D01*
X152527000Y-100340000D01*
X152273000Y-100340000D01*
X151798000Y-100340000D01*
X151325486Y-100484513D01*
X150944243Y-100798848D01*
X150712311Y-101235152D01*
X150706718Y-101278460D01*
X149350000Y-101278460D01*
X149350000Y-99060000D01*
X150631009Y-99060000D01*
X150726921Y-99542181D01*
X151000054Y-99950955D01*
X151408828Y-100224088D01*
X151891009Y-100320000D01*
X152908991Y-100320000D01*
X153391172Y-100224088D01*
X153799946Y-99950955D01*
X154073079Y-99542181D01*
X154168991Y-99060000D01*
X154073079Y-98577819D01*
X153799946Y-98169045D01*
X153391172Y-97895912D01*
X152908991Y-97800000D01*
X151891009Y-97800000D01*
X151408828Y-97895912D01*
X151000054Y-98169045D01*
X150726921Y-98577819D01*
X150631009Y-99060000D01*
X149350000Y-99060000D01*
X149350000Y-96520000D01*
X150631009Y-96520000D01*
X150726921Y-97002181D01*
X151000054Y-97410955D01*
X151408828Y-97684088D01*
X151891009Y-97780000D01*
X152908991Y-97780000D01*
X153391172Y-97684088D01*
X153799946Y-97410955D01*
X154073079Y-97002181D01*
X154168991Y-96520000D01*
X154073079Y-96037819D01*
X153799946Y-95629045D01*
X153391172Y-95355912D01*
X152908991Y-95260000D01*
X151891009Y-95260000D01*
X151408828Y-95355912D01*
X151000054Y-95629045D01*
X150726921Y-96037819D01*
X150631009Y-96520000D01*
X149350000Y-96520000D01*
X149350000Y-93980000D01*
X150631009Y-93980000D01*
X150726921Y-94462181D01*
X151000054Y-94870955D01*
X151408828Y-95144088D01*
X151891009Y-95240000D01*
X152908991Y-95240000D01*
X153391172Y-95144088D01*
X153799946Y-94870955D01*
X154073079Y-94462181D01*
X154168991Y-93980000D01*
X154073079Y-93497819D01*
X153799946Y-93089045D01*
X153391172Y-92815912D01*
X152908991Y-92720000D01*
X151891009Y-92720000D01*
X151408828Y-92815912D01*
X151000054Y-93089045D01*
X150726921Y-93497819D01*
X150631009Y-93980000D01*
X149350000Y-93980000D01*
X149350000Y-92710000D01*
X149292148Y-92419161D01*
X149292148Y-92419160D01*
X149127401Y-92172599D01*
X148394802Y-91440000D01*
X150631009Y-91440000D01*
X150726921Y-91922181D01*
X151000054Y-92330955D01*
X151408828Y-92604088D01*
X151891009Y-92700000D01*
X152908991Y-92700000D01*
X153391172Y-92604088D01*
X153799946Y-92330955D01*
X154073079Y-91922181D01*
X154168991Y-91440000D01*
X154073079Y-90957819D01*
X153799946Y-90549045D01*
X153391172Y-90275912D01*
X152908991Y-90180000D01*
X151891009Y-90180000D01*
X151408828Y-90275912D01*
X151000054Y-90549045D01*
X150726921Y-90957819D01*
X150631009Y-91440000D01*
X148394802Y-91440000D01*
X147857401Y-90902599D01*
X147610839Y-90737852D01*
X147320000Y-90680000D01*
X146267447Y-90680000D01*
X146179946Y-90549045D01*
X145771172Y-90275912D01*
X145288991Y-90180000D01*
X144271009Y-90180000D01*
X143788828Y-90275912D01*
X143380054Y-90549045D01*
X143106921Y-90957819D01*
X143011009Y-91440000D01*
X141730000Y-91440000D01*
X141730000Y-89214802D01*
X142554802Y-88390000D01*
X143125509Y-88390000D01*
X143106921Y-88417819D01*
X143011009Y-88900000D01*
X143106921Y-89382181D01*
X143380054Y-89790955D01*
X143788828Y-90064088D01*
X144271009Y-90160000D01*
X145288991Y-90160000D01*
X145771172Y-90064088D01*
X146179946Y-89790955D01*
X146453079Y-89382181D01*
X146548991Y-88900000D01*
X146453079Y-88417819D01*
X146434491Y-88390000D01*
X150745509Y-88390000D01*
X150726921Y-88417819D01*
X150631009Y-88900000D01*
X150726921Y-89382181D01*
X151000054Y-89790955D01*
X151408828Y-90064088D01*
X151891009Y-90160000D01*
X152908991Y-90160000D01*
X153391172Y-90064088D01*
X153799946Y-89790955D01*
X154073079Y-89382181D01*
X154168991Y-88900000D01*
X154073079Y-88417819D01*
X154054491Y-88390000D01*
X155450000Y-88390000D01*
X155450000Y-115255198D01*
X154625198Y-116080000D01*
X153887447Y-116080000D01*
X153799946Y-115949045D01*
X153391172Y-115675912D01*
X152908991Y-115580000D01*
X151891009Y-115580000D01*
X151408828Y-115675912D01*
X151000054Y-115949045D01*
X150726921Y-116357819D01*
X150631009Y-116840000D01*
X150726921Y-117322181D01*
X151000054Y-117730955D01*
X151408828Y-118004088D01*
X151891009Y-118100000D01*
X152908991Y-118100000D01*
X153391172Y-118004088D01*
X153799946Y-117730955D01*
X153887447Y-117600000D01*
X154940000Y-117600000D01*
X155230839Y-117542148D01*
X155477401Y-117377401D01*
X156014802Y-116840000D01*
X158200030Y-116840000D01*
X158295942Y-117322181D01*
X158569075Y-117730955D01*
X158977849Y-118004088D01*
X159460030Y-118100000D01*
X160579970Y-118100000D01*
X161062151Y-118004088D01*
X161470925Y-117730955D01*
X161744058Y-117322181D01*
X161839970Y-116840000D01*
X173440030Y-116840000D01*
X173535942Y-117322181D01*
X173809075Y-117730955D01*
X174217849Y-118004088D01*
X174700030Y-118100000D01*
X175819970Y-118100000D01*
X176302151Y-118004088D01*
X176710925Y-117730955D01*
X176984058Y-117322181D01*
X177079970Y-116840000D01*
X176984058Y-116357819D01*
X176710925Y-115949045D01*
X176302151Y-115675912D01*
X175819970Y-115580000D01*
X174700030Y-115580000D01*
X174217849Y-115675912D01*
X173809075Y-115949045D01*
X173535942Y-116357819D01*
X173440030Y-116840000D01*
X161839970Y-116840000D01*
X161744058Y-116357819D01*
X161470925Y-115949045D01*
X161062151Y-115675912D01*
X160579970Y-115580000D01*
X159460030Y-115580000D01*
X158977849Y-115675912D01*
X158569075Y-115949045D01*
X158295942Y-116357819D01*
X158200030Y-116840000D01*
X156014802Y-116840000D01*
X156747401Y-116107401D01*
X156912148Y-115860840D01*
X156970000Y-115570000D01*
X156970000Y-114300000D01*
X158200030Y-114300000D01*
X158295942Y-114782181D01*
X158569075Y-115190955D01*
X158977849Y-115464088D01*
X159460030Y-115560000D01*
X160579970Y-115560000D01*
X161062151Y-115464088D01*
X161470925Y-115190955D01*
X161558426Y-115060000D01*
X173721574Y-115060000D01*
X173809075Y-115190955D01*
X174217849Y-115464088D01*
X174700030Y-115560000D01*
X175819970Y-115560000D01*
X176302151Y-115464088D01*
X176710925Y-115190955D01*
X176984058Y-114782181D01*
X177079970Y-114300000D01*
X176984058Y-113817819D01*
X176710925Y-113409045D01*
X176302151Y-113135912D01*
X175819970Y-113040000D01*
X174700030Y-113040000D01*
X174217849Y-113135912D01*
X173809075Y-113409045D01*
X173721574Y-113540000D01*
X167130000Y-113540000D01*
X167130000Y-111760000D01*
X173440030Y-111760000D01*
X173535942Y-112242181D01*
X173809075Y-112650955D01*
X174217849Y-112924088D01*
X174700030Y-113020000D01*
X175819970Y-113020000D01*
X176302151Y-112924088D01*
X176710925Y-112650955D01*
X176984058Y-112242181D01*
X177079970Y-111760000D01*
X176984058Y-111277819D01*
X176710925Y-110869045D01*
X176302151Y-110595912D01*
X175819970Y-110500000D01*
X174700030Y-110500000D01*
X174217849Y-110595912D01*
X173809075Y-110869045D01*
X173535942Y-111277819D01*
X173440030Y-111760000D01*
X167130000Y-111760000D01*
X167130000Y-109220000D01*
X173440030Y-109220000D01*
X173535942Y-109702181D01*
X173809075Y-110110955D01*
X174217849Y-110384088D01*
X174700030Y-110480000D01*
X175819970Y-110480000D01*
X176302151Y-110384088D01*
X176710925Y-110110955D01*
X176984058Y-109702181D01*
X177079970Y-109220000D01*
X176984058Y-108737819D01*
X176710925Y-108329045D01*
X176302151Y-108055912D01*
X175819970Y-107960000D01*
X174700030Y-107960000D01*
X174217849Y-108055912D01*
X173809075Y-108329045D01*
X173535942Y-108737819D01*
X173440030Y-109220000D01*
X167130000Y-109220000D01*
X167130000Y-106686742D01*
X167255317Y-106663162D01*
X167471441Y-106524090D01*
X167616431Y-106311890D01*
X167667440Y-106060000D01*
X167667440Y-105864540D01*
X167779995Y-106136943D01*
X168141155Y-106498735D01*
X168613276Y-106694777D01*
X169124481Y-106695223D01*
X169161323Y-106680000D01*
X173440030Y-106680000D01*
X173535942Y-107162181D01*
X173809075Y-107570955D01*
X174217849Y-107844088D01*
X174700030Y-107940000D01*
X175819970Y-107940000D01*
X176302151Y-107844088D01*
X176710925Y-107570955D01*
X176984058Y-107162181D01*
X177079970Y-106680000D01*
X176984058Y-106197819D01*
X176710925Y-105789045D01*
X176302151Y-105515912D01*
X175819970Y-105420000D01*
X174700030Y-105420000D01*
X174217849Y-105515912D01*
X173809075Y-105789045D01*
X173535942Y-106197819D01*
X173440030Y-106680000D01*
X169161323Y-106680000D01*
X169596943Y-106500005D01*
X169958735Y-106138845D01*
X170154777Y-105666724D01*
X170155223Y-105155519D01*
X169960005Y-104683057D01*
X169598845Y-104321265D01*
X169162311Y-104140000D01*
X173440030Y-104140000D01*
X173535942Y-104622181D01*
X173809075Y-105030955D01*
X174217849Y-105304088D01*
X174700030Y-105400000D01*
X175819970Y-105400000D01*
X176302151Y-105304088D01*
X176710925Y-105030955D01*
X176984058Y-104622181D01*
X177079970Y-104140000D01*
X176984058Y-103657819D01*
X176710925Y-103249045D01*
X176302151Y-102975912D01*
X175819970Y-102880000D01*
X174700030Y-102880000D01*
X174217849Y-102975912D01*
X173809075Y-103249045D01*
X173535942Y-103657819D01*
X173440030Y-104140000D01*
X169162311Y-104140000D01*
X169126724Y-104125223D01*
X168615519Y-104124777D01*
X168143057Y-104319995D01*
X167781265Y-104681155D01*
X167667440Y-104955276D01*
X167667440Y-104760000D01*
X167623162Y-104524683D01*
X167484090Y-104308559D01*
X167271890Y-104163569D01*
X167020000Y-104112560D01*
X165720000Y-104112560D01*
X165484683Y-104156838D01*
X165268559Y-104295910D01*
X165123569Y-104508110D01*
X165072560Y-104760000D01*
X165072560Y-106060000D01*
X165116838Y-106295317D01*
X165255910Y-106511441D01*
X165468110Y-106656431D01*
X165610000Y-106685164D01*
X165610000Y-113540000D01*
X161558426Y-113540000D01*
X161470925Y-113409045D01*
X161062151Y-113135912D01*
X160579970Y-113040000D01*
X159460030Y-113040000D01*
X158977849Y-113135912D01*
X158569075Y-113409045D01*
X158295942Y-113817819D01*
X158200030Y-114300000D01*
X156970000Y-114300000D01*
X156970000Y-112081540D01*
X158276718Y-112081540D01*
X158282311Y-112124848D01*
X158514243Y-112561152D01*
X158895486Y-112875487D01*
X159368000Y-113020000D01*
X159893000Y-113020000D01*
X159893000Y-111887000D01*
X160147000Y-111887000D01*
X160147000Y-113020000D01*
X160672000Y-113020000D01*
X161144514Y-112875487D01*
X161525757Y-112561152D01*
X161757689Y-112124848D01*
X161763282Y-112081540D01*
X161638902Y-111887000D01*
X160147000Y-111887000D01*
X159893000Y-111887000D01*
X158401098Y-111887000D01*
X158276718Y-112081540D01*
X156970000Y-112081540D01*
X156970000Y-111438460D01*
X158276718Y-111438460D01*
X158401098Y-111633000D01*
X159893000Y-111633000D01*
X159893000Y-110500000D01*
X160147000Y-110500000D01*
X160147000Y-111633000D01*
X161638902Y-111633000D01*
X161763282Y-111438460D01*
X161757689Y-111395152D01*
X161525757Y-110958848D01*
X161144514Y-110644513D01*
X160672000Y-110500000D01*
X160147000Y-110500000D01*
X159893000Y-110500000D01*
X159368000Y-110500000D01*
X158895486Y-110644513D01*
X158514243Y-110958848D01*
X158282311Y-111395152D01*
X158276718Y-111438460D01*
X156970000Y-111438460D01*
X156970000Y-109220000D01*
X158200030Y-109220000D01*
X158295942Y-109702181D01*
X158569075Y-110110955D01*
X158977849Y-110384088D01*
X159460030Y-110480000D01*
X160579970Y-110480000D01*
X161062151Y-110384088D01*
X161470925Y-110110955D01*
X161744058Y-109702181D01*
X161839970Y-109220000D01*
X161744058Y-108737819D01*
X161470925Y-108329045D01*
X161062151Y-108055912D01*
X160579970Y-107960000D01*
X159460030Y-107960000D01*
X158977849Y-108055912D01*
X158569075Y-108329045D01*
X158295942Y-108737819D01*
X158200030Y-109220000D01*
X156970000Y-109220000D01*
X156970000Y-106680000D01*
X158200030Y-106680000D01*
X158295942Y-107162181D01*
X158569075Y-107570955D01*
X158977849Y-107844088D01*
X159460030Y-107940000D01*
X160579970Y-107940000D01*
X161062151Y-107844088D01*
X161470925Y-107570955D01*
X161744058Y-107162181D01*
X161839970Y-106680000D01*
X161744058Y-106197819D01*
X161470925Y-105789045D01*
X161062151Y-105515912D01*
X160579970Y-105420000D01*
X159460030Y-105420000D01*
X158977849Y-105515912D01*
X158569075Y-105789045D01*
X158295942Y-106197819D01*
X158200030Y-106680000D01*
X156970000Y-106680000D01*
X156970000Y-104140000D01*
X158200030Y-104140000D01*
X158295942Y-104622181D01*
X158569075Y-105030955D01*
X158977849Y-105304088D01*
X159460030Y-105400000D01*
X160579970Y-105400000D01*
X161062151Y-105304088D01*
X161470925Y-105030955D01*
X161744058Y-104622181D01*
X161839970Y-104140000D01*
X161744058Y-103657819D01*
X161470925Y-103249045D01*
X161062151Y-102975912D01*
X160579970Y-102880000D01*
X159460030Y-102880000D01*
X158977849Y-102975912D01*
X158569075Y-103249045D01*
X158295942Y-103657819D01*
X158200030Y-104140000D01*
X156970000Y-104140000D01*
X156970000Y-101600000D01*
X158200030Y-101600000D01*
X158295942Y-102082181D01*
X158569075Y-102490955D01*
X158977849Y-102764088D01*
X159460030Y-102860000D01*
X160579970Y-102860000D01*
X161062151Y-102764088D01*
X161470925Y-102490955D01*
X161744058Y-102082181D01*
X161839970Y-101600000D01*
X173440030Y-101600000D01*
X173535942Y-102082181D01*
X173809075Y-102490955D01*
X174217849Y-102764088D01*
X174700030Y-102860000D01*
X175819970Y-102860000D01*
X176302151Y-102764088D01*
X176710925Y-102490955D01*
X176984058Y-102082181D01*
X177079970Y-101600000D01*
X176984058Y-101117819D01*
X176710925Y-100709045D01*
X176302151Y-100435912D01*
X175819970Y-100340000D01*
X174700030Y-100340000D01*
X174217849Y-100435912D01*
X173809075Y-100709045D01*
X173535942Y-101117819D01*
X173440030Y-101600000D01*
X161839970Y-101600000D01*
X161744058Y-101117819D01*
X161470925Y-100709045D01*
X161062151Y-100435912D01*
X160579970Y-100340000D01*
X159460030Y-100340000D01*
X158977849Y-100435912D01*
X158569075Y-100709045D01*
X158295942Y-101117819D01*
X158200030Y-101600000D01*
X156970000Y-101600000D01*
X156970000Y-99060000D01*
X158200030Y-99060000D01*
X158295942Y-99542181D01*
X158569075Y-99950955D01*
X158977849Y-100224088D01*
X159460030Y-100320000D01*
X160579970Y-100320000D01*
X161062151Y-100224088D01*
X161470925Y-99950955D01*
X161744058Y-99542181D01*
X161775583Y-99383694D01*
X162195226Y-99383694D01*
X162443538Y-99984655D01*
X162902927Y-100444846D01*
X163503453Y-100694206D01*
X164153694Y-100694774D01*
X164754655Y-100446462D01*
X165214846Y-99987073D01*
X165464206Y-99386547D01*
X165464208Y-99383694D01*
X166005226Y-99383694D01*
X166253538Y-99984655D01*
X166712927Y-100444846D01*
X167313453Y-100694206D01*
X167963694Y-100694774D01*
X168564655Y-100446462D01*
X169024846Y-99987073D01*
X169274206Y-99386547D01*
X169274208Y-99383694D01*
X169815226Y-99383694D01*
X170063538Y-99984655D01*
X170522927Y-100444846D01*
X171123453Y-100694206D01*
X171773694Y-100694774D01*
X172374655Y-100446462D01*
X172834846Y-99987073D01*
X173084206Y-99386547D01*
X173084491Y-99060000D01*
X173440030Y-99060000D01*
X173535942Y-99542181D01*
X173809075Y-99950955D01*
X174217849Y-100224088D01*
X174700030Y-100320000D01*
X175819970Y-100320000D01*
X176302151Y-100224088D01*
X176710925Y-99950955D01*
X176984058Y-99542181D01*
X177079970Y-99060000D01*
X176984058Y-98577819D01*
X176710925Y-98169045D01*
X176302151Y-97895912D01*
X175819970Y-97800000D01*
X174700030Y-97800000D01*
X174217849Y-97895912D01*
X173809075Y-98169045D01*
X173535942Y-98577819D01*
X173440030Y-99060000D01*
X173084491Y-99060000D01*
X173084774Y-98736306D01*
X172836462Y-98135345D01*
X172377073Y-97675154D01*
X171776547Y-97425794D01*
X171126306Y-97425226D01*
X170525345Y-97673538D01*
X170065154Y-98132927D01*
X169815794Y-98733453D01*
X169815226Y-99383694D01*
X169274208Y-99383694D01*
X169274774Y-98736306D01*
X169026462Y-98135345D01*
X168567073Y-97675154D01*
X167966547Y-97425794D01*
X167316306Y-97425226D01*
X166715345Y-97673538D01*
X166255154Y-98132927D01*
X166005794Y-98733453D01*
X166005226Y-99383694D01*
X165464208Y-99383694D01*
X165464774Y-98736306D01*
X165216462Y-98135345D01*
X164757073Y-97675154D01*
X164156547Y-97425794D01*
X163506306Y-97425226D01*
X162905345Y-97673538D01*
X162445154Y-98132927D01*
X162195794Y-98733453D01*
X162195226Y-99383694D01*
X161775583Y-99383694D01*
X161839970Y-99060000D01*
X161744058Y-98577819D01*
X161470925Y-98169045D01*
X161062151Y-97895912D01*
X160579970Y-97800000D01*
X159460030Y-97800000D01*
X158977849Y-97895912D01*
X158569075Y-98169045D01*
X158295942Y-98577819D01*
X158200030Y-99060000D01*
X156970000Y-99060000D01*
X156970000Y-96520000D01*
X158200030Y-96520000D01*
X158295942Y-97002181D01*
X158569075Y-97410955D01*
X158977849Y-97684088D01*
X159460030Y-97780000D01*
X160579970Y-97780000D01*
X161062151Y-97684088D01*
X161470925Y-97410955D01*
X161744058Y-97002181D01*
X161839970Y-96520000D01*
X173440030Y-96520000D01*
X173535942Y-97002181D01*
X173809075Y-97410955D01*
X174217849Y-97684088D01*
X174700030Y-97780000D01*
X175819970Y-97780000D01*
X176302151Y-97684088D01*
X176710925Y-97410955D01*
X176984058Y-97002181D01*
X177079970Y-96520000D01*
X176984058Y-96037819D01*
X176710925Y-95629045D01*
X176302151Y-95355912D01*
X175819970Y-95260000D01*
X174700030Y-95260000D01*
X174217849Y-95355912D01*
X173809075Y-95629045D01*
X173535942Y-96037819D01*
X173440030Y-96520000D01*
X161839970Y-96520000D01*
X161744058Y-96037819D01*
X161470925Y-95629045D01*
X161062151Y-95355912D01*
X160579970Y-95260000D01*
X159460030Y-95260000D01*
X158977849Y-95355912D01*
X158569075Y-95629045D01*
X158295942Y-96037819D01*
X158200030Y-96520000D01*
X156970000Y-96520000D01*
X156970000Y-93980000D01*
X158200030Y-93980000D01*
X158295942Y-94462181D01*
X158569075Y-94870955D01*
X158977849Y-95144088D01*
X159460030Y-95240000D01*
X160579970Y-95240000D01*
X161062151Y-95144088D01*
X161470925Y-94870955D01*
X161744058Y-94462181D01*
X161839970Y-93980000D01*
X173440030Y-93980000D01*
X173535942Y-94462181D01*
X173809075Y-94870955D01*
X174217849Y-95144088D01*
X174700030Y-95240000D01*
X175819970Y-95240000D01*
X176302151Y-95144088D01*
X176710925Y-94870955D01*
X176984058Y-94462181D01*
X177079970Y-93980000D01*
X176984058Y-93497819D01*
X176710925Y-93089045D01*
X176302151Y-92815912D01*
X175819970Y-92720000D01*
X174700030Y-92720000D01*
X174217849Y-92815912D01*
X173809075Y-93089045D01*
X173535942Y-93497819D01*
X173440030Y-93980000D01*
X161839970Y-93980000D01*
X161744058Y-93497819D01*
X161470925Y-93089045D01*
X161062151Y-92815912D01*
X160579970Y-92720000D01*
X159460030Y-92720000D01*
X158977849Y-92815912D01*
X158569075Y-93089045D01*
X158295942Y-93497819D01*
X158200030Y-93980000D01*
X156970000Y-93980000D01*
X156970000Y-91440000D01*
X158200030Y-91440000D01*
X158295942Y-91922181D01*
X158569075Y-92330955D01*
X158977849Y-92604088D01*
X159460030Y-92700000D01*
X160579970Y-92700000D01*
X161062151Y-92604088D01*
X161470925Y-92330955D01*
X161744058Y-91922181D01*
X161775583Y-91763694D01*
X162195226Y-91763694D01*
X162443538Y-92364655D01*
X162902927Y-92824846D01*
X163503453Y-93074206D01*
X164153694Y-93074774D01*
X164754655Y-92826462D01*
X165214846Y-92367073D01*
X165464206Y-91766547D01*
X165464208Y-91763694D01*
X166005226Y-91763694D01*
X166253538Y-92364655D01*
X166712927Y-92824846D01*
X167313453Y-93074206D01*
X167963694Y-93074774D01*
X168564655Y-92826462D01*
X169024846Y-92367073D01*
X169274206Y-91766547D01*
X169274208Y-91763694D01*
X169815226Y-91763694D01*
X170063538Y-92364655D01*
X170522927Y-92824846D01*
X171123453Y-93074206D01*
X171773694Y-93074774D01*
X172374655Y-92826462D01*
X172834846Y-92367073D01*
X173084206Y-91766547D01*
X173084491Y-91440000D01*
X173440030Y-91440000D01*
X173535942Y-91922181D01*
X173809075Y-92330955D01*
X174217849Y-92604088D01*
X174700030Y-92700000D01*
X175819970Y-92700000D01*
X176302151Y-92604088D01*
X176710925Y-92330955D01*
X176984058Y-91922181D01*
X177079970Y-91440000D01*
X176984058Y-90957819D01*
X176710925Y-90549045D01*
X176302151Y-90275912D01*
X175819970Y-90180000D01*
X174700030Y-90180000D01*
X174217849Y-90275912D01*
X173809075Y-90549045D01*
X173535942Y-90957819D01*
X173440030Y-91440000D01*
X173084491Y-91440000D01*
X173084774Y-91116306D01*
X172836462Y-90515345D01*
X172377073Y-90055154D01*
X171776547Y-89805794D01*
X171126306Y-89805226D01*
X170525345Y-90053538D01*
X170065154Y-90512927D01*
X169815794Y-91113453D01*
X169815226Y-91763694D01*
X169274208Y-91763694D01*
X169274774Y-91116306D01*
X169026462Y-90515345D01*
X168567073Y-90055154D01*
X167966547Y-89805794D01*
X167316306Y-89805226D01*
X166715345Y-90053538D01*
X166255154Y-90512927D01*
X166005794Y-91113453D01*
X166005226Y-91763694D01*
X165464208Y-91763694D01*
X165464774Y-91116306D01*
X165216462Y-90515345D01*
X164757073Y-90055154D01*
X164156547Y-89805794D01*
X163506306Y-89805226D01*
X162905345Y-90053538D01*
X162445154Y-90512927D01*
X162195794Y-91113453D01*
X162195226Y-91763694D01*
X161775583Y-91763694D01*
X161839970Y-91440000D01*
X161744058Y-90957819D01*
X161470925Y-90549045D01*
X161062151Y-90275912D01*
X160579970Y-90180000D01*
X159460030Y-90180000D01*
X158977849Y-90275912D01*
X158569075Y-90549045D01*
X158295942Y-90957819D01*
X158200030Y-91440000D01*
X156970000Y-91440000D01*
X156970000Y-88390000D01*
X158314530Y-88390000D01*
X158295942Y-88417819D01*
X158200030Y-88900000D01*
X158295942Y-89382181D01*
X158569075Y-89790955D01*
X158977849Y-90064088D01*
X159460030Y-90160000D01*
X160579970Y-90160000D01*
X161062151Y-90064088D01*
X161470925Y-89790955D01*
X161744058Y-89382181D01*
X161839970Y-88900000D01*
X161744058Y-88417819D01*
X161725470Y-88390000D01*
X172405198Y-88390000D01*
X173452599Y-89437401D01*
X173669819Y-89582543D01*
X173809075Y-89790955D01*
X174217849Y-90064088D01*
X174700030Y-90160000D01*
X175819970Y-90160000D01*
X176302151Y-90064088D01*
X176710925Y-89790955D01*
X176984058Y-89382181D01*
X177079970Y-88900000D01*
X176984058Y-88417819D01*
X176710925Y-88009045D01*
X176302151Y-87735912D01*
X175819970Y-87640000D01*
X174700030Y-87640000D01*
X174217849Y-87735912D01*
X174027740Y-87862938D01*
X173257401Y-87092599D01*
X173010839Y-86927852D01*
X172720000Y-86870000D01*
X161725470Y-86870000D01*
X161744058Y-86842181D01*
X161839970Y-86360000D01*
X173440030Y-86360000D01*
X173535942Y-86842181D01*
X173809075Y-87250955D01*
X174217849Y-87524088D01*
X174700030Y-87620000D01*
X175819970Y-87620000D01*
X176302151Y-87524088D01*
X176710925Y-87250955D01*
X176984058Y-86842181D01*
X177079970Y-86360000D01*
X176984058Y-85877819D01*
X176710925Y-85469045D01*
X176302151Y-85195912D01*
X175819970Y-85100000D01*
X174700030Y-85100000D01*
X174217849Y-85195912D01*
X173809075Y-85469045D01*
X173535942Y-85877819D01*
X173440030Y-86360000D01*
X161839970Y-86360000D01*
X161744058Y-85877819D01*
X161470925Y-85469045D01*
X161062151Y-85195912D01*
X160579970Y-85100000D01*
X159460030Y-85100000D01*
X158977849Y-85195912D01*
X158569075Y-85469045D01*
X158295942Y-85877819D01*
X158200030Y-86360000D01*
X158295942Y-86842181D01*
X158314530Y-86870000D01*
X154054491Y-86870000D01*
X154073079Y-86842181D01*
X154168991Y-86360000D01*
X154073079Y-85877819D01*
X153799946Y-85469045D01*
X153391172Y-85195912D01*
X152908991Y-85100000D01*
X151891009Y-85100000D01*
X151408828Y-85195912D01*
X151000054Y-85469045D01*
X150726921Y-85877819D01*
X150631009Y-86360000D01*
X150726921Y-86842181D01*
X150745509Y-86870000D01*
X146434491Y-86870000D01*
X146453079Y-86842181D01*
X146548991Y-86360000D01*
X146453079Y-85877819D01*
X146179946Y-85469045D01*
X145771172Y-85195912D01*
X145288991Y-85100000D01*
X144271009Y-85100000D01*
X143788828Y-85195912D01*
X143380054Y-85469045D01*
X143106921Y-85877819D01*
X143011009Y-86360000D01*
X143106921Y-86842181D01*
X143125509Y-86870000D01*
X142240000Y-86870000D01*
X141949160Y-86927852D01*
X141702599Y-87092599D01*
X140432599Y-88362599D01*
X140267852Y-88609161D01*
X140210000Y-88900000D01*
X140210000Y-90680000D01*
X138647447Y-90680000D01*
X138559946Y-90549045D01*
X138151172Y-90275912D01*
X137668991Y-90180000D01*
X136651009Y-90180000D01*
X136168828Y-90275912D01*
X135760054Y-90549045D01*
X135486921Y-90957819D01*
X135391009Y-91440000D01*
X135486921Y-91922181D01*
X135760054Y-92330955D01*
X136168828Y-92604088D01*
X136651009Y-92700000D01*
X137668991Y-92700000D01*
X138151172Y-92604088D01*
X138559946Y-92330955D01*
X138647447Y-92200000D01*
X140210000Y-92200000D01*
X140210000Y-102110000D01*
X123574491Y-102110000D01*
X123593079Y-102082181D01*
X123688991Y-101600000D01*
X123593079Y-101117819D01*
X123319946Y-100709045D01*
X122911172Y-100435912D01*
X122428991Y-100340000D01*
X121411009Y-100340000D01*
X120928828Y-100435912D01*
X120520054Y-100709045D01*
X120246921Y-101117819D01*
X120151009Y-101600000D01*
X120246921Y-102082181D01*
X120265509Y-102110000D01*
X118110000Y-102110000D01*
X117819160Y-102167852D01*
X117572599Y-102332599D01*
X116525198Y-103380000D01*
X108167447Y-103380000D01*
X108079946Y-103249045D01*
X107671172Y-102975912D01*
X107188991Y-102880000D01*
X106171009Y-102880000D01*
X105688828Y-102975912D01*
X105280054Y-103249045D01*
X105006921Y-103657819D01*
X104911009Y-104140000D01*
X104267000Y-104140000D01*
X104267000Y-101600000D01*
X104911009Y-101600000D01*
X105006921Y-102082181D01*
X105280054Y-102490955D01*
X105688828Y-102764088D01*
X106171009Y-102860000D01*
X107188991Y-102860000D01*
X107671172Y-102764088D01*
X108079946Y-102490955D01*
X108353079Y-102082181D01*
X108448991Y-101600000D01*
X108353079Y-101117819D01*
X108079946Y-100709045D01*
X107671172Y-100435912D01*
X107188991Y-100340000D01*
X106171009Y-100340000D01*
X105688828Y-100435912D01*
X105280054Y-100709045D01*
X105006921Y-101117819D01*
X104911009Y-101600000D01*
X104267000Y-101600000D01*
X104267000Y-99060000D01*
X104911009Y-99060000D01*
X105006921Y-99542181D01*
X105280054Y-99950955D01*
X105688828Y-100224088D01*
X106171009Y-100320000D01*
X107188991Y-100320000D01*
X107671172Y-100224088D01*
X108079946Y-99950955D01*
X108353079Y-99542181D01*
X108448991Y-99060000D01*
X120151009Y-99060000D01*
X120246921Y-99542181D01*
X120520054Y-99950955D01*
X120928828Y-100224088D01*
X121411009Y-100320000D01*
X122428991Y-100320000D01*
X122911172Y-100224088D01*
X123319946Y-99950955D01*
X123593079Y-99542181D01*
X123688991Y-99060000D01*
X127771009Y-99060000D01*
X127866921Y-99542181D01*
X128140054Y-99950955D01*
X128548828Y-100224088D01*
X129031009Y-100320000D01*
X130048991Y-100320000D01*
X130531172Y-100224088D01*
X130939946Y-99950955D01*
X131213079Y-99542181D01*
X131245032Y-99381540D01*
X135466718Y-99381540D01*
X135472311Y-99424848D01*
X135704243Y-99861152D01*
X136085486Y-100175487D01*
X136558000Y-100320000D01*
X137033000Y-100320000D01*
X137033000Y-99187000D01*
X137287000Y-99187000D01*
X137287000Y-100320000D01*
X137762000Y-100320000D01*
X138234514Y-100175487D01*
X138615757Y-99861152D01*
X138847689Y-99424848D01*
X138853282Y-99381540D01*
X138728902Y-99187000D01*
X137287000Y-99187000D01*
X137033000Y-99187000D01*
X135591098Y-99187000D01*
X135466718Y-99381540D01*
X131245032Y-99381540D01*
X131308991Y-99060000D01*
X131245033Y-98738460D01*
X135466718Y-98738460D01*
X135591098Y-98933000D01*
X137033000Y-98933000D01*
X137033000Y-97800000D01*
X137287000Y-97800000D01*
X137287000Y-98933000D01*
X138728902Y-98933000D01*
X138853282Y-98738460D01*
X138847689Y-98695152D01*
X138615757Y-98258848D01*
X138234514Y-97944513D01*
X137762000Y-97800000D01*
X137287000Y-97800000D01*
X137033000Y-97800000D01*
X136558000Y-97800000D01*
X136085486Y-97944513D01*
X135704243Y-98258848D01*
X135472311Y-98695152D01*
X135466718Y-98738460D01*
X131245033Y-98738460D01*
X131213079Y-98577819D01*
X130939946Y-98169045D01*
X130531172Y-97895912D01*
X130048991Y-97800000D01*
X129031009Y-97800000D01*
X128548828Y-97895912D01*
X128140054Y-98169045D01*
X127866921Y-98577819D01*
X127771009Y-99060000D01*
X123688991Y-99060000D01*
X123593079Y-98577819D01*
X123319946Y-98169045D01*
X122911172Y-97895912D01*
X122428991Y-97800000D01*
X121411009Y-97800000D01*
X120928828Y-97895912D01*
X120520054Y-98169045D01*
X120246921Y-98577819D01*
X120151009Y-99060000D01*
X108448991Y-99060000D01*
X108353079Y-98577819D01*
X108079946Y-98169045D01*
X107671172Y-97895912D01*
X107188991Y-97800000D01*
X106171009Y-97800000D01*
X105688828Y-97895912D01*
X105280054Y-98169045D01*
X105006921Y-98577819D01*
X104911009Y-99060000D01*
X104267000Y-99060000D01*
X104267000Y-96520000D01*
X104911009Y-96520000D01*
X105006921Y-97002181D01*
X105280054Y-97410955D01*
X105688828Y-97684088D01*
X106171009Y-97780000D01*
X107188991Y-97780000D01*
X107671172Y-97684088D01*
X108079946Y-97410955D01*
X108353079Y-97002181D01*
X108448991Y-96520000D01*
X120151009Y-96520000D01*
X120246921Y-97002181D01*
X120520054Y-97410955D01*
X120928828Y-97684088D01*
X121411009Y-97780000D01*
X122428991Y-97780000D01*
X122911172Y-97684088D01*
X123319946Y-97410955D01*
X123593079Y-97002181D01*
X123688991Y-96520000D01*
X127771009Y-96520000D01*
X127866921Y-97002181D01*
X128140054Y-97410955D01*
X128548828Y-97684088D01*
X129031009Y-97780000D01*
X130048991Y-97780000D01*
X130531172Y-97684088D01*
X130939946Y-97410955D01*
X131213079Y-97002181D01*
X131308991Y-96520000D01*
X135391009Y-96520000D01*
X135486921Y-97002181D01*
X135760054Y-97410955D01*
X136168828Y-97684088D01*
X136651009Y-97780000D01*
X137668991Y-97780000D01*
X138151172Y-97684088D01*
X138559946Y-97410955D01*
X138833079Y-97002181D01*
X138928991Y-96520000D01*
X138833079Y-96037819D01*
X138559946Y-95629045D01*
X138151172Y-95355912D01*
X137668991Y-95260000D01*
X136651009Y-95260000D01*
X136168828Y-95355912D01*
X135760054Y-95629045D01*
X135486921Y-96037819D01*
X135391009Y-96520000D01*
X131308991Y-96520000D01*
X131213079Y-96037819D01*
X130939946Y-95629045D01*
X130531172Y-95355912D01*
X130048991Y-95260000D01*
X129031009Y-95260000D01*
X128548828Y-95355912D01*
X128140054Y-95629045D01*
X127866921Y-96037819D01*
X127771009Y-96520000D01*
X123688991Y-96520000D01*
X123593079Y-96037819D01*
X123319946Y-95629045D01*
X122911172Y-95355912D01*
X122428991Y-95260000D01*
X121411009Y-95260000D01*
X120928828Y-95355912D01*
X120520054Y-95629045D01*
X120246921Y-96037819D01*
X120151009Y-96520000D01*
X108448991Y-96520000D01*
X108353079Y-96037819D01*
X108079946Y-95629045D01*
X107671172Y-95355912D01*
X107188991Y-95260000D01*
X106171009Y-95260000D01*
X105688828Y-95355912D01*
X105280054Y-95629045D01*
X105006921Y-96037819D01*
X104911009Y-96520000D01*
X104267000Y-96520000D01*
X104267000Y-93980000D01*
X104911009Y-93980000D01*
X105006921Y-94462181D01*
X105280054Y-94870955D01*
X105688828Y-95144088D01*
X106171009Y-95240000D01*
X107188991Y-95240000D01*
X107671172Y-95144088D01*
X108079946Y-94870955D01*
X108353079Y-94462181D01*
X108448991Y-93980000D01*
X120151009Y-93980000D01*
X120246921Y-94462181D01*
X120520054Y-94870955D01*
X120928828Y-95144088D01*
X121411009Y-95240000D01*
X122428991Y-95240000D01*
X122911172Y-95144088D01*
X123319946Y-94870955D01*
X123593079Y-94462181D01*
X123688991Y-93980000D01*
X127771009Y-93980000D01*
X127866921Y-94462181D01*
X128140054Y-94870955D01*
X128548828Y-95144088D01*
X129031009Y-95240000D01*
X130048991Y-95240000D01*
X130531172Y-95144088D01*
X130939946Y-94870955D01*
X131213079Y-94462181D01*
X131308991Y-93980000D01*
X135391009Y-93980000D01*
X135486921Y-94462181D01*
X135760054Y-94870955D01*
X136168828Y-95144088D01*
X136651009Y-95240000D01*
X137668991Y-95240000D01*
X138151172Y-95144088D01*
X138559946Y-94870955D01*
X138833079Y-94462181D01*
X138928991Y-93980000D01*
X138833079Y-93497819D01*
X138559946Y-93089045D01*
X138151172Y-92815912D01*
X137668991Y-92720000D01*
X136651009Y-92720000D01*
X136168828Y-92815912D01*
X135760054Y-93089045D01*
X135486921Y-93497819D01*
X135391009Y-93980000D01*
X131308991Y-93980000D01*
X131213079Y-93497819D01*
X130939946Y-93089045D01*
X130531172Y-92815912D01*
X130048991Y-92720000D01*
X129031009Y-92720000D01*
X128548828Y-92815912D01*
X128140054Y-93089045D01*
X127866921Y-93497819D01*
X127771009Y-93980000D01*
X123688991Y-93980000D01*
X123593079Y-93497819D01*
X123319946Y-93089045D01*
X122911172Y-92815912D01*
X122428991Y-92720000D01*
X121411009Y-92720000D01*
X120928828Y-92815912D01*
X120520054Y-93089045D01*
X120246921Y-93497819D01*
X120151009Y-93980000D01*
X108448991Y-93980000D01*
X108353079Y-93497819D01*
X108079946Y-93089045D01*
X107671172Y-92815912D01*
X107188991Y-92720000D01*
X106171009Y-92720000D01*
X105688828Y-92815912D01*
X105280054Y-93089045D01*
X105006921Y-93497819D01*
X104911009Y-93980000D01*
X104267000Y-93980000D01*
X104267000Y-91440000D01*
X104911009Y-91440000D01*
X105006921Y-91922181D01*
X105280054Y-92330955D01*
X105688828Y-92604088D01*
X106171009Y-92700000D01*
X107188991Y-92700000D01*
X107671172Y-92604088D01*
X108079946Y-92330955D01*
X108353079Y-91922181D01*
X108448991Y-91440000D01*
X120151009Y-91440000D01*
X120246921Y-91922181D01*
X120520054Y-92330955D01*
X120928828Y-92604088D01*
X121411009Y-92700000D01*
X122428991Y-92700000D01*
X122911172Y-92604088D01*
X123319946Y-92330955D01*
X123593079Y-91922181D01*
X123688991Y-91440000D01*
X127771009Y-91440000D01*
X127866921Y-91922181D01*
X128140054Y-92330955D01*
X128548828Y-92604088D01*
X129031009Y-92700000D01*
X130048991Y-92700000D01*
X130531172Y-92604088D01*
X130939946Y-92330955D01*
X131213079Y-91922181D01*
X131308991Y-91440000D01*
X131213079Y-90957819D01*
X130939946Y-90549045D01*
X130531172Y-90275912D01*
X130048991Y-90180000D01*
X129031009Y-90180000D01*
X128548828Y-90275912D01*
X128140054Y-90549045D01*
X127866921Y-90957819D01*
X127771009Y-91440000D01*
X123688991Y-91440000D01*
X123593079Y-90957819D01*
X123319946Y-90549045D01*
X122911172Y-90275912D01*
X122428991Y-90180000D01*
X121411009Y-90180000D01*
X120928828Y-90275912D01*
X120520054Y-90549045D01*
X120246921Y-90957819D01*
X120151009Y-91440000D01*
X108448991Y-91440000D01*
X108353079Y-90957819D01*
X108079946Y-90549045D01*
X107671172Y-90275912D01*
X107188991Y-90180000D01*
X106171009Y-90180000D01*
X105688828Y-90275912D01*
X105280054Y-90549045D01*
X105006921Y-90957819D01*
X104911009Y-91440000D01*
X104267000Y-91440000D01*
X104267000Y-88900000D01*
X104911009Y-88900000D01*
X105006921Y-89382181D01*
X105280054Y-89790955D01*
X105688828Y-90064088D01*
X106171009Y-90160000D01*
X107188991Y-90160000D01*
X107671172Y-90064088D01*
X108079946Y-89790955D01*
X108353079Y-89382181D01*
X108448991Y-88900000D01*
X120151009Y-88900000D01*
X120246921Y-89382181D01*
X120520054Y-89790955D01*
X120928828Y-90064088D01*
X121411009Y-90160000D01*
X122428991Y-90160000D01*
X122911172Y-90064088D01*
X123319946Y-89790955D01*
X123593079Y-89382181D01*
X123688991Y-88900000D01*
X127771009Y-88900000D01*
X127866921Y-89382181D01*
X128140054Y-89790955D01*
X128548828Y-90064088D01*
X129031009Y-90160000D01*
X130048991Y-90160000D01*
X130531172Y-90064088D01*
X130939946Y-89790955D01*
X131213079Y-89382181D01*
X131308991Y-88900000D01*
X135391009Y-88900000D01*
X135486921Y-89382181D01*
X135760054Y-89790955D01*
X136168828Y-90064088D01*
X136651009Y-90160000D01*
X137668991Y-90160000D01*
X138151172Y-90064088D01*
X138559946Y-89790955D01*
X138833079Y-89382181D01*
X138928991Y-88900000D01*
X138833079Y-88417819D01*
X138559946Y-88009045D01*
X138151172Y-87735912D01*
X137668991Y-87640000D01*
X136651009Y-87640000D01*
X136168828Y-87735912D01*
X135760054Y-88009045D01*
X135486921Y-88417819D01*
X135391009Y-88900000D01*
X131308991Y-88900000D01*
X131213079Y-88417819D01*
X130939946Y-88009045D01*
X130531172Y-87735912D01*
X130048991Y-87640000D01*
X129031009Y-87640000D01*
X128548828Y-87735912D01*
X128140054Y-88009045D01*
X127866921Y-88417819D01*
X127771009Y-88900000D01*
X123688991Y-88900000D01*
X123593079Y-88417819D01*
X123319946Y-88009045D01*
X122911172Y-87735912D01*
X122428991Y-87640000D01*
X121411009Y-87640000D01*
X120928828Y-87735912D01*
X120520054Y-88009045D01*
X120246921Y-88417819D01*
X120151009Y-88900000D01*
X108448991Y-88900000D01*
X108353079Y-88417819D01*
X108079946Y-88009045D01*
X107671172Y-87735912D01*
X107188991Y-87640000D01*
X106171009Y-87640000D01*
X105688828Y-87735912D01*
X105280054Y-88009045D01*
X105006921Y-88417819D01*
X104911009Y-88900000D01*
X104267000Y-88900000D01*
X104267000Y-86360000D01*
X104911009Y-86360000D01*
X105006921Y-86842181D01*
X105280054Y-87250955D01*
X105688828Y-87524088D01*
X106171009Y-87620000D01*
X107188991Y-87620000D01*
X107671172Y-87524088D01*
X108079946Y-87250955D01*
X108353079Y-86842181D01*
X108448991Y-86360000D01*
X120151009Y-86360000D01*
X120246921Y-86842181D01*
X120520054Y-87250955D01*
X120928828Y-87524088D01*
X121411009Y-87620000D01*
X122428991Y-87620000D01*
X122911172Y-87524088D01*
X123319946Y-87250955D01*
X123593079Y-86842181D01*
X123688991Y-86360000D01*
X127771009Y-86360000D01*
X127866921Y-86842181D01*
X128140054Y-87250955D01*
X128548828Y-87524088D01*
X129031009Y-87620000D01*
X130048991Y-87620000D01*
X130531172Y-87524088D01*
X130939946Y-87250955D01*
X131213079Y-86842181D01*
X131308991Y-86360000D01*
X135391009Y-86360000D01*
X135486921Y-86842181D01*
X135760054Y-87250955D01*
X136168828Y-87524088D01*
X136651009Y-87620000D01*
X137668991Y-87620000D01*
X138151172Y-87524088D01*
X138559946Y-87250955D01*
X138833079Y-86842181D01*
X138928991Y-86360000D01*
X138833079Y-85877819D01*
X138559946Y-85469045D01*
X138151172Y-85195912D01*
X137668991Y-85100000D01*
X136651009Y-85100000D01*
X136168828Y-85195912D01*
X135760054Y-85469045D01*
X135486921Y-85877819D01*
X135391009Y-86360000D01*
X131308991Y-86360000D01*
X131213079Y-85877819D01*
X130939946Y-85469045D01*
X130531172Y-85195912D01*
X130048991Y-85100000D01*
X129031009Y-85100000D01*
X128548828Y-85195912D01*
X128140054Y-85469045D01*
X127866921Y-85877819D01*
X127771009Y-86360000D01*
X123688991Y-86360000D01*
X123593079Y-85877819D01*
X123319946Y-85469045D01*
X122911172Y-85195912D01*
X122428991Y-85100000D01*
X121411009Y-85100000D01*
X120928828Y-85195912D01*
X120520054Y-85469045D01*
X120246921Y-85877819D01*
X120151009Y-86360000D01*
X108448991Y-86360000D01*
X108353079Y-85877819D01*
X108079946Y-85469045D01*
X107671172Y-85195912D01*
X107188991Y-85100000D01*
X106171009Y-85100000D01*
X105688828Y-85195912D01*
X105280054Y-85469045D01*
X105006921Y-85877819D01*
X104911009Y-86360000D01*
X104267000Y-86360000D01*
X104267000Y-83820000D01*
X104911009Y-83820000D01*
X105006921Y-84302181D01*
X105280054Y-84710955D01*
X105688828Y-84984088D01*
X106171009Y-85080000D01*
X107188991Y-85080000D01*
X107671172Y-84984088D01*
X108079946Y-84710955D01*
X108353079Y-84302181D01*
X108448991Y-83820000D01*
X120151009Y-83820000D01*
X120246921Y-84302181D01*
X120520054Y-84710955D01*
X120928828Y-84984088D01*
X121411009Y-85080000D01*
X122428991Y-85080000D01*
X122911172Y-84984088D01*
X123319946Y-84710955D01*
X123593079Y-84302181D01*
X123688991Y-83820000D01*
X127771009Y-83820000D01*
X127866921Y-84302181D01*
X128140054Y-84710955D01*
X128548828Y-84984088D01*
X129031009Y-85080000D01*
X130048991Y-85080000D01*
X130531172Y-84984088D01*
X130939946Y-84710955D01*
X131213079Y-84302181D01*
X131308991Y-83820000D01*
X135391009Y-83820000D01*
X135486921Y-84302181D01*
X135760054Y-84710955D01*
X136168828Y-84984088D01*
X136651009Y-85080000D01*
X137668991Y-85080000D01*
X138151172Y-84984088D01*
X138559946Y-84710955D01*
X138833079Y-84302181D01*
X138928991Y-83820000D01*
X143011009Y-83820000D01*
X143106921Y-84302181D01*
X143380054Y-84710955D01*
X143788828Y-84984088D01*
X144271009Y-85080000D01*
X145288991Y-85080000D01*
X145771172Y-84984088D01*
X146179946Y-84710955D01*
X146453079Y-84302181D01*
X146548991Y-83820000D01*
X150631009Y-83820000D01*
X150726921Y-84302181D01*
X151000054Y-84710955D01*
X151408828Y-84984088D01*
X151891009Y-85080000D01*
X152908991Y-85080000D01*
X153391172Y-84984088D01*
X153799946Y-84710955D01*
X154073079Y-84302181D01*
X154168991Y-83820000D01*
X158200030Y-83820000D01*
X158295942Y-84302181D01*
X158569075Y-84710955D01*
X158977849Y-84984088D01*
X159460030Y-85080000D01*
X160579970Y-85080000D01*
X161062151Y-84984088D01*
X161470925Y-84710955D01*
X161744058Y-84302181D01*
X161839970Y-83820000D01*
X173440030Y-83820000D01*
X173535942Y-84302181D01*
X173809075Y-84710955D01*
X174217849Y-84984088D01*
X174700030Y-85080000D01*
X175819970Y-85080000D01*
X176302151Y-84984088D01*
X176710925Y-84710955D01*
X176984058Y-84302181D01*
X177079970Y-83820000D01*
X176984058Y-83337819D01*
X176710925Y-82929045D01*
X176302151Y-82655912D01*
X175819970Y-82560000D01*
X174700030Y-82560000D01*
X174217849Y-82655912D01*
X173809075Y-82929045D01*
X173535942Y-83337819D01*
X173440030Y-83820000D01*
X161839970Y-83820000D01*
X161744058Y-83337819D01*
X161470925Y-82929045D01*
X161062151Y-82655912D01*
X160579970Y-82560000D01*
X159460030Y-82560000D01*
X158977849Y-82655912D01*
X158569075Y-82929045D01*
X158295942Y-83337819D01*
X158200030Y-83820000D01*
X154168991Y-83820000D01*
X154073079Y-83337819D01*
X153799946Y-82929045D01*
X153391172Y-82655912D01*
X152908991Y-82560000D01*
X151891009Y-82560000D01*
X151408828Y-82655912D01*
X151000054Y-82929045D01*
X150726921Y-83337819D01*
X150631009Y-83820000D01*
X146548991Y-83820000D01*
X146453079Y-83337819D01*
X146179946Y-82929045D01*
X145771172Y-82655912D01*
X145288991Y-82560000D01*
X144271009Y-82560000D01*
X143788828Y-82655912D01*
X143380054Y-82929045D01*
X143106921Y-83337819D01*
X143011009Y-83820000D01*
X138928991Y-83820000D01*
X138833079Y-83337819D01*
X138559946Y-82929045D01*
X138151172Y-82655912D01*
X137668991Y-82560000D01*
X136651009Y-82560000D01*
X136168828Y-82655912D01*
X135760054Y-82929045D01*
X135486921Y-83337819D01*
X135391009Y-83820000D01*
X131308991Y-83820000D01*
X131213079Y-83337819D01*
X130939946Y-82929045D01*
X130531172Y-82655912D01*
X130048991Y-82560000D01*
X129031009Y-82560000D01*
X128548828Y-82655912D01*
X128140054Y-82929045D01*
X127866921Y-83337819D01*
X127771009Y-83820000D01*
X123688991Y-83820000D01*
X123593079Y-83337819D01*
X123319946Y-82929045D01*
X122911172Y-82655912D01*
X122428991Y-82560000D01*
X121411009Y-82560000D01*
X120928828Y-82655912D01*
X120520054Y-82929045D01*
X120246921Y-83337819D01*
X120151009Y-83820000D01*
X108448991Y-83820000D01*
X108353079Y-83337819D01*
X108079946Y-82929045D01*
X107671172Y-82655912D01*
X107188991Y-82560000D01*
X106171009Y-82560000D01*
X105688828Y-82655912D01*
X105280054Y-82929045D01*
X105006921Y-83337819D01*
X104911009Y-83820000D01*
X104267000Y-83820000D01*
X104267000Y-78867000D01*
X177673000Y-78867000D01*
X177673000Y-134493000D01*
X177673000Y-134493000D01*
G37*
X177673000Y-134493000D02*
X104267000Y-134493000D01*
X104267000Y-132080000D01*
X104911009Y-132080000D01*
X105006921Y-132562181D01*
X105280054Y-132970955D01*
X105688828Y-133244088D01*
X106171009Y-133340000D01*
X107188991Y-133340000D01*
X107671172Y-133244088D01*
X108079946Y-132970955D01*
X108353079Y-132562181D01*
X108448991Y-132080000D01*
X120151009Y-132080000D01*
X120246921Y-132562181D01*
X120520054Y-132970955D01*
X120928828Y-133244088D01*
X121411009Y-133340000D01*
X122428991Y-133340000D01*
X122911172Y-133244088D01*
X123319946Y-132970955D01*
X123593079Y-132562181D01*
X123688991Y-132080000D01*
X123593079Y-131597819D01*
X123319946Y-131189045D01*
X123156748Y-131080000D01*
X126622560Y-131080000D01*
X126622560Y-133080000D01*
X126666838Y-133315317D01*
X126805910Y-133531441D01*
X127018110Y-133676431D01*
X127270000Y-133727440D01*
X129270000Y-133727440D01*
X129505317Y-133683162D01*
X129721441Y-133544090D01*
X129866431Y-133331890D01*
X129917440Y-133080000D01*
X129917440Y-131080000D01*
X139322560Y-131080000D01*
X139322560Y-133080000D01*
X139366838Y-133315317D01*
X139505910Y-133531441D01*
X139718110Y-133676431D01*
X139970000Y-133727440D01*
X141970000Y-133727440D01*
X142205317Y-133683162D01*
X142421441Y-133544090D01*
X142566431Y-133331890D01*
X142617440Y-133080000D01*
X142617440Y-131080000D01*
X152022560Y-131080000D01*
X152022560Y-133080000D01*
X152066838Y-133315317D01*
X152205910Y-133531441D01*
X152418110Y-133676431D01*
X152670000Y-133727440D01*
X154670000Y-133727440D01*
X154905317Y-133683162D01*
X155121441Y-133544090D01*
X155266431Y-133331890D01*
X155317440Y-133080000D01*
X155317440Y-131080000D01*
X155273162Y-130844683D01*
X155134090Y-130628559D01*
X154991439Y-130531090D01*
X155055278Y-130467363D01*
X155304716Y-129866648D01*
X155305284Y-129216205D01*
X155056894Y-128615057D01*
X154597363Y-128154722D01*
X153996648Y-127905284D01*
X153346205Y-127904716D01*
X152745057Y-128153106D01*
X152284722Y-128612637D01*
X152035284Y-129213352D01*
X152034716Y-129863795D01*
X152283106Y-130464943D01*
X152349621Y-130531574D01*
X152218559Y-130615910D01*
X152073569Y-130828110D01*
X152022560Y-131080000D01*
X142617440Y-131080000D01*
X142573162Y-130844683D01*
X142434090Y-130628559D01*
X142291439Y-130531090D01*
X142355278Y-130467363D01*
X142604716Y-129866648D01*
X142605284Y-129216205D01*
X142356894Y-128615057D01*
X141897363Y-128154722D01*
X141296648Y-127905284D01*
X140646205Y-127904716D01*
X140045057Y-128153106D01*
X139584722Y-128612637D01*
X139335284Y-129213352D01*
X139334716Y-129863795D01*
X139583106Y-130464943D01*
X139649621Y-130531574D01*
X139518559Y-130615910D01*
X139373569Y-130828110D01*
X139322560Y-131080000D01*
X129917440Y-131080000D01*
X129873162Y-130844683D01*
X129734090Y-130628559D01*
X129591439Y-130531090D01*
X129655278Y-130467363D01*
X129904716Y-129866648D01*
X129905284Y-129216205D01*
X129656894Y-128615057D01*
X129197363Y-128154722D01*
X128596648Y-127905284D01*
X127946205Y-127904716D01*
X127345057Y-128153106D01*
X126884722Y-128612637D01*
X126635284Y-129213352D01*
X126634716Y-129863795D01*
X126883106Y-130464943D01*
X126949621Y-130531574D01*
X126818559Y-130615910D01*
X126673569Y-130828110D01*
X126622560Y-131080000D01*
X123156748Y-131080000D01*
X122911172Y-130915912D01*
X122428991Y-130820000D01*
X121411009Y-130820000D01*
X120928828Y-130915912D01*
X120520054Y-131189045D01*
X120246921Y-131597819D01*
X120151009Y-132080000D01*
X108448991Y-132080000D01*
X108353079Y-131597819D01*
X108079946Y-131189045D01*
X107671172Y-130915912D01*
X107188991Y-130820000D01*
X106171009Y-130820000D01*
X105688828Y-130915912D01*
X105280054Y-131189045D01*
X105006921Y-131597819D01*
X104911009Y-132080000D01*
X104267000Y-132080000D01*
X104267000Y-129540000D01*
X104911009Y-129540000D01*
X105006921Y-130022181D01*
X105280054Y-130430955D01*
X105688828Y-130704088D01*
X106171009Y-130800000D01*
X107188991Y-130800000D01*
X107671172Y-130704088D01*
X108079946Y-130430955D01*
X108353079Y-130022181D01*
X108448991Y-129540000D01*
X120151009Y-129540000D01*
X120246921Y-130022181D01*
X120520054Y-130430955D01*
X120928828Y-130704088D01*
X121411009Y-130800000D01*
X122428991Y-130800000D01*
X122911172Y-130704088D01*
X123319946Y-130430955D01*
X123593079Y-130022181D01*
X123688991Y-129540000D01*
X123593079Y-129057819D01*
X123319946Y-128649045D01*
X122911172Y-128375912D01*
X122428991Y-128280000D01*
X121411009Y-128280000D01*
X120928828Y-128375912D01*
X120520054Y-128649045D01*
X120246921Y-129057819D01*
X120151009Y-129540000D01*
X108448991Y-129540000D01*
X108353079Y-129057819D01*
X108079946Y-128649045D01*
X107671172Y-128375912D01*
X107188991Y-128280000D01*
X106171009Y-128280000D01*
X105688828Y-128375912D01*
X105280054Y-128649045D01*
X105006921Y-129057819D01*
X104911009Y-129540000D01*
X104267000Y-129540000D01*
X104267000Y-127000000D01*
X104911009Y-127000000D01*
X105006921Y-127482181D01*
X105280054Y-127890955D01*
X105688828Y-128164088D01*
X106171009Y-128260000D01*
X107188991Y-128260000D01*
X107671172Y-128164088D01*
X108079946Y-127890955D01*
X108353079Y-127482181D01*
X108448991Y-127000000D01*
X120151009Y-127000000D01*
X120246921Y-127482181D01*
X120520054Y-127890955D01*
X120928828Y-128164088D01*
X121411009Y-128260000D01*
X122428991Y-128260000D01*
X122911172Y-128164088D01*
X123319946Y-127890955D01*
X123593079Y-127482181D01*
X123688991Y-127000000D01*
X123593079Y-126517819D01*
X123319946Y-126109045D01*
X122911172Y-125835912D01*
X122428991Y-125740000D01*
X121411009Y-125740000D01*
X120928828Y-125835912D01*
X120520054Y-126109045D01*
X120246921Y-126517819D01*
X120151009Y-127000000D01*
X108448991Y-127000000D01*
X108353079Y-126517819D01*
X108079946Y-126109045D01*
X107671172Y-125835912D01*
X107188991Y-125740000D01*
X106171009Y-125740000D01*
X105688828Y-125835912D01*
X105280054Y-126109045D01*
X105006921Y-126517819D01*
X104911009Y-127000000D01*
X104267000Y-127000000D01*
X104267000Y-124460000D01*
X104911009Y-124460000D01*
X105006921Y-124942181D01*
X105280054Y-125350955D01*
X105688828Y-125624088D01*
X106171009Y-125720000D01*
X107188991Y-125720000D01*
X107671172Y-125624088D01*
X108079946Y-125350955D01*
X108353079Y-124942181D01*
X108448991Y-124460000D01*
X120151009Y-124460000D01*
X120246921Y-124942181D01*
X120520054Y-125350955D01*
X120928828Y-125624088D01*
X121411009Y-125720000D01*
X122428991Y-125720000D01*
X122911172Y-125624088D01*
X123319946Y-125350955D01*
X123593079Y-124942181D01*
X123688991Y-124460000D01*
X123593079Y-123977819D01*
X123319946Y-123569045D01*
X122911172Y-123295912D01*
X122428991Y-123200000D01*
X121411009Y-123200000D01*
X120928828Y-123295912D01*
X120520054Y-123569045D01*
X120246921Y-123977819D01*
X120151009Y-124460000D01*
X108448991Y-124460000D01*
X108353079Y-123977819D01*
X108079946Y-123569045D01*
X107671172Y-123295912D01*
X107188991Y-123200000D01*
X106171009Y-123200000D01*
X105688828Y-123295912D01*
X105280054Y-123569045D01*
X105006921Y-123977819D01*
X104911009Y-124460000D01*
X104267000Y-124460000D01*
X104267000Y-121920000D01*
X104911009Y-121920000D01*
X105006921Y-122402181D01*
X105280054Y-122810955D01*
X105688828Y-123084088D01*
X106171009Y-123180000D01*
X107188991Y-123180000D01*
X107671172Y-123084088D01*
X108079946Y-122810955D01*
X108353079Y-122402181D01*
X108448991Y-121920000D01*
X120151009Y-121920000D01*
X120246921Y-122402181D01*
X120520054Y-122810955D01*
X120928828Y-123084088D01*
X121411009Y-123180000D01*
X122428991Y-123180000D01*
X122911172Y-123084088D01*
X123319946Y-122810955D01*
X123593079Y-122402181D01*
X123688991Y-121920000D01*
X123593079Y-121437819D01*
X123319946Y-121029045D01*
X122911172Y-120755912D01*
X122428991Y-120660000D01*
X121411009Y-120660000D01*
X120928828Y-120755912D01*
X120520054Y-121029045D01*
X120246921Y-121437819D01*
X120151009Y-121920000D01*
X108448991Y-121920000D01*
X108353079Y-121437819D01*
X108079946Y-121029045D01*
X107671172Y-120755912D01*
X107188991Y-120660000D01*
X106171009Y-120660000D01*
X105688828Y-120755912D01*
X105280054Y-121029045D01*
X105006921Y-121437819D01*
X104911009Y-121920000D01*
X104267000Y-121920000D01*
X104267000Y-119380000D01*
X104911009Y-119380000D01*
X105006921Y-119862181D01*
X105280054Y-120270955D01*
X105688828Y-120544088D01*
X106171009Y-120640000D01*
X107188991Y-120640000D01*
X107671172Y-120544088D01*
X108079946Y-120270955D01*
X108353079Y-119862181D01*
X108448991Y-119380000D01*
X120151009Y-119380000D01*
X120246921Y-119862181D01*
X120520054Y-120270955D01*
X120928828Y-120544088D01*
X121411009Y-120640000D01*
X122428991Y-120640000D01*
X122911172Y-120544088D01*
X123319946Y-120270955D01*
X123593079Y-119862181D01*
X123688991Y-119380000D01*
X123593079Y-118897819D01*
X123319946Y-118489045D01*
X122911172Y-118215912D01*
X122428991Y-118120000D01*
X121411009Y-118120000D01*
X120928828Y-118215912D01*
X120520054Y-118489045D01*
X120246921Y-118897819D01*
X120151009Y-119380000D01*
X108448991Y-119380000D01*
X108353079Y-118897819D01*
X108079946Y-118489045D01*
X107671172Y-118215912D01*
X107188991Y-118120000D01*
X106171009Y-118120000D01*
X105688828Y-118215912D01*
X105280054Y-118489045D01*
X105006921Y-118897819D01*
X104911009Y-119380000D01*
X104267000Y-119380000D01*
X104267000Y-116840000D01*
X104911009Y-116840000D01*
X105006921Y-117322181D01*
X105280054Y-117730955D01*
X105688828Y-118004088D01*
X106171009Y-118100000D01*
X107188991Y-118100000D01*
X107671172Y-118004088D01*
X108079946Y-117730955D01*
X108353079Y-117322181D01*
X108448991Y-116840000D01*
X120151009Y-116840000D01*
X120246921Y-117322181D01*
X120520054Y-117730955D01*
X120928828Y-118004088D01*
X121411009Y-118100000D01*
X122428991Y-118100000D01*
X122911172Y-118004088D01*
X123319946Y-117730955D01*
X123593079Y-117322181D01*
X123625032Y-117161540D01*
X127846718Y-117161540D01*
X127852311Y-117204848D01*
X128084243Y-117641152D01*
X128465486Y-117955487D01*
X128938000Y-118100000D01*
X129413000Y-118100000D01*
X129413000Y-116967000D01*
X129667000Y-116967000D01*
X129667000Y-118100000D01*
X130142000Y-118100000D01*
X130614514Y-117955487D01*
X130995757Y-117641152D01*
X131227689Y-117204848D01*
X131233282Y-117161540D01*
X131108902Y-116967000D01*
X129667000Y-116967000D01*
X129413000Y-116967000D01*
X127971098Y-116967000D01*
X127846718Y-117161540D01*
X123625032Y-117161540D01*
X123688991Y-116840000D01*
X123625033Y-116518460D01*
X127846718Y-116518460D01*
X127971098Y-116713000D01*
X129413000Y-116713000D01*
X129413000Y-115580000D01*
X129667000Y-115580000D01*
X129667000Y-116713000D01*
X131108902Y-116713000D01*
X131233282Y-116518460D01*
X131227689Y-116475152D01*
X130995757Y-116038848D01*
X130614514Y-115724513D01*
X130142000Y-115580000D01*
X129667000Y-115580000D01*
X129413000Y-115580000D01*
X128938000Y-115580000D01*
X128465486Y-115724513D01*
X128084243Y-116038848D01*
X127852311Y-116475152D01*
X127846718Y-116518460D01*
X123625033Y-116518460D01*
X123593079Y-116357819D01*
X123319946Y-115949045D01*
X122911172Y-115675912D01*
X122428991Y-115580000D01*
X121411009Y-115580000D01*
X120928828Y-115675912D01*
X120520054Y-115949045D01*
X120246921Y-116357819D01*
X120151009Y-116840000D01*
X108448991Y-116840000D01*
X108353079Y-116357819D01*
X108079946Y-115949045D01*
X107671172Y-115675912D01*
X107188991Y-115580000D01*
X106171009Y-115580000D01*
X105688828Y-115675912D01*
X105280054Y-115949045D01*
X105006921Y-116357819D01*
X104911009Y-116840000D01*
X104267000Y-116840000D01*
X104267000Y-114300000D01*
X104911009Y-114300000D01*
X105006921Y-114782181D01*
X105280054Y-115190955D01*
X105688828Y-115464088D01*
X106171009Y-115560000D01*
X107188991Y-115560000D01*
X107671172Y-115464088D01*
X108079946Y-115190955D01*
X108353079Y-114782181D01*
X108448991Y-114300000D01*
X120151009Y-114300000D01*
X120246921Y-114782181D01*
X120520054Y-115190955D01*
X120928828Y-115464088D01*
X121411009Y-115560000D01*
X122428991Y-115560000D01*
X122911172Y-115464088D01*
X123319946Y-115190955D01*
X123593079Y-114782181D01*
X123688991Y-114300000D01*
X127771009Y-114300000D01*
X127866921Y-114782181D01*
X128140054Y-115190955D01*
X128548828Y-115464088D01*
X129031009Y-115560000D01*
X130048991Y-115560000D01*
X130531172Y-115464088D01*
X130751841Y-115316643D01*
X131320000Y-115884802D01*
X131320000Y-122627537D01*
X131287808Y-122659673D01*
X131145162Y-123003201D01*
X131144838Y-123375167D01*
X131286883Y-123718943D01*
X131549673Y-123982192D01*
X131893201Y-124124838D01*
X132265167Y-124125162D01*
X132608943Y-123983117D01*
X132872192Y-123720327D01*
X133014838Y-123376799D01*
X133015162Y-123004833D01*
X132873117Y-122661057D01*
X132840000Y-122627882D01*
X132840000Y-115570000D01*
X132782148Y-115279161D01*
X132782148Y-115279160D01*
X132617401Y-115032599D01*
X131347401Y-113762599D01*
X131100839Y-113597852D01*
X131060778Y-113589883D01*
X130939946Y-113409045D01*
X130531172Y-113135912D01*
X130048991Y-113040000D01*
X129031009Y-113040000D01*
X128548828Y-113135912D01*
X128140054Y-113409045D01*
X127866921Y-113817819D01*
X127771009Y-114300000D01*
X123688991Y-114300000D01*
X123593079Y-113817819D01*
X123319946Y-113409045D01*
X122911172Y-113135912D01*
X122428991Y-113040000D01*
X121411009Y-113040000D01*
X120928828Y-113135912D01*
X120520054Y-113409045D01*
X120246921Y-113817819D01*
X120151009Y-114300000D01*
X108448991Y-114300000D01*
X108353079Y-113817819D01*
X108079946Y-113409045D01*
X107671172Y-113135912D01*
X107188991Y-113040000D01*
X106171009Y-113040000D01*
X105688828Y-113135912D01*
X105280054Y-113409045D01*
X105006921Y-113817819D01*
X104911009Y-114300000D01*
X104267000Y-114300000D01*
X104267000Y-111760000D01*
X104911009Y-111760000D01*
X105006921Y-112242181D01*
X105280054Y-112650955D01*
X105688828Y-112924088D01*
X106171009Y-113020000D01*
X107188991Y-113020000D01*
X107671172Y-112924088D01*
X108079946Y-112650955D01*
X108353079Y-112242181D01*
X108448991Y-111760000D01*
X120151009Y-111760000D01*
X120246921Y-112242181D01*
X120520054Y-112650955D01*
X120928828Y-112924088D01*
X121411009Y-113020000D01*
X122428991Y-113020000D01*
X122911172Y-112924088D01*
X123319946Y-112650955D01*
X123593079Y-112242181D01*
X123688991Y-111760000D01*
X127771009Y-111760000D01*
X127866921Y-112242181D01*
X128140054Y-112650955D01*
X128548828Y-112924088D01*
X129031009Y-113020000D01*
X130048991Y-113020000D01*
X130531172Y-112924088D01*
X130939946Y-112650955D01*
X131027447Y-112520000D01*
X133035198Y-112520000D01*
X133860000Y-113344802D01*
X133860000Y-120087537D01*
X133827808Y-120119673D01*
X133685162Y-120463201D01*
X133684838Y-120835167D01*
X133826883Y-121178943D01*
X134089673Y-121442192D01*
X134433201Y-121584838D01*
X134805167Y-121585162D01*
X135148943Y-121443117D01*
X135412192Y-121180327D01*
X135554838Y-120836799D01*
X135555162Y-120464833D01*
X135413117Y-120121057D01*
X135380000Y-120087882D01*
X135380000Y-114300000D01*
X135391009Y-114300000D01*
X135486921Y-114782181D01*
X135760054Y-115190955D01*
X136168828Y-115464088D01*
X136651009Y-115560000D01*
X137668991Y-115560000D01*
X138151172Y-115464088D01*
X138559946Y-115190955D01*
X138833079Y-114782181D01*
X138928991Y-114300000D01*
X138833079Y-113817819D01*
X138559946Y-113409045D01*
X138151172Y-113135912D01*
X137668991Y-113040000D01*
X136651009Y-113040000D01*
X136168828Y-113135912D01*
X135760054Y-113409045D01*
X135486921Y-113817819D01*
X135391009Y-114300000D01*
X135380000Y-114300000D01*
X135380000Y-113030000D01*
X135322148Y-112739161D01*
X135322148Y-112739160D01*
X135157401Y-112492599D01*
X134424802Y-111760000D01*
X135391009Y-111760000D01*
X135486921Y-112242181D01*
X135760054Y-112650955D01*
X136168828Y-112924088D01*
X136651009Y-113020000D01*
X137668991Y-113020000D01*
X138151172Y-112924088D01*
X138559946Y-112650955D01*
X138833079Y-112242181D01*
X138928991Y-111760000D01*
X138833079Y-111277819D01*
X138559946Y-110869045D01*
X138151172Y-110595912D01*
X137668991Y-110500000D01*
X136651009Y-110500000D01*
X136168828Y-110595912D01*
X135760054Y-110869045D01*
X135486921Y-111277819D01*
X135391009Y-111760000D01*
X134424802Y-111760000D01*
X133887401Y-111222599D01*
X133640839Y-111057852D01*
X133350000Y-111000000D01*
X131027447Y-111000000D01*
X130939946Y-110869045D01*
X130531172Y-110595912D01*
X130048991Y-110500000D01*
X129031009Y-110500000D01*
X128548828Y-110595912D01*
X128140054Y-110869045D01*
X127866921Y-111277819D01*
X127771009Y-111760000D01*
X123688991Y-111760000D01*
X123593079Y-111277819D01*
X123319946Y-110869045D01*
X122911172Y-110595912D01*
X122428991Y-110500000D01*
X121411009Y-110500000D01*
X120928828Y-110595912D01*
X120520054Y-110869045D01*
X120246921Y-111277819D01*
X120151009Y-111760000D01*
X108448991Y-111760000D01*
X108353079Y-111277819D01*
X108079946Y-110869045D01*
X107671172Y-110595912D01*
X107188991Y-110500000D01*
X106171009Y-110500000D01*
X105688828Y-110595912D01*
X105280054Y-110869045D01*
X105006921Y-111277819D01*
X104911009Y-111760000D01*
X104267000Y-111760000D01*
X104267000Y-109220000D01*
X104911009Y-109220000D01*
X105006921Y-109702181D01*
X105280054Y-110110955D01*
X105688828Y-110384088D01*
X106171009Y-110480000D01*
X107188991Y-110480000D01*
X107671172Y-110384088D01*
X108079946Y-110110955D01*
X108353079Y-109702181D01*
X108448991Y-109220000D01*
X120151009Y-109220000D01*
X120246921Y-109702181D01*
X120520054Y-110110955D01*
X120928828Y-110384088D01*
X121411009Y-110480000D01*
X122428991Y-110480000D01*
X122911172Y-110384088D01*
X123319946Y-110110955D01*
X123593079Y-109702181D01*
X123688991Y-109220000D01*
X127771009Y-109220000D01*
X127866921Y-109702181D01*
X128140054Y-110110955D01*
X128548828Y-110384088D01*
X129031009Y-110480000D01*
X130048991Y-110480000D01*
X130531172Y-110384088D01*
X130939946Y-110110955D01*
X131213079Y-109702181D01*
X131308991Y-109220000D01*
X135391009Y-109220000D01*
X135486921Y-109702181D01*
X135760054Y-110110955D01*
X136168828Y-110384088D01*
X136651009Y-110480000D01*
X137668991Y-110480000D01*
X138151172Y-110384088D01*
X138559946Y-110110955D01*
X138833079Y-109702181D01*
X138928991Y-109220000D01*
X138833079Y-108737819D01*
X138559946Y-108329045D01*
X138151172Y-108055912D01*
X137668991Y-107960000D01*
X136651009Y-107960000D01*
X136168828Y-108055912D01*
X135760054Y-108329045D01*
X135486921Y-108737819D01*
X135391009Y-109220000D01*
X131308991Y-109220000D01*
X131213079Y-108737819D01*
X130939946Y-108329045D01*
X130531172Y-108055912D01*
X130048991Y-107960000D01*
X129031009Y-107960000D01*
X128548828Y-108055912D01*
X128140054Y-108329045D01*
X127866921Y-108737819D01*
X127771009Y-109220000D01*
X123688991Y-109220000D01*
X123593079Y-108737819D01*
X123319946Y-108329045D01*
X122911172Y-108055912D01*
X122428991Y-107960000D01*
X121411009Y-107960000D01*
X120928828Y-108055912D01*
X120520054Y-108329045D01*
X120246921Y-108737819D01*
X120151009Y-109220000D01*
X108448991Y-109220000D01*
X108353079Y-108737819D01*
X108079946Y-108329045D01*
X107671172Y-108055912D01*
X107188991Y-107960000D01*
X106171009Y-107960000D01*
X105688828Y-108055912D01*
X105280054Y-108329045D01*
X105006921Y-108737819D01*
X104911009Y-109220000D01*
X104267000Y-109220000D01*
X104267000Y-107001540D01*
X104986718Y-107001540D01*
X104992311Y-107044848D01*
X105224243Y-107481152D01*
X105605486Y-107795487D01*
X106078000Y-107940000D01*
X106553000Y-107940000D01*
X106553000Y-106807000D01*
X106807000Y-106807000D01*
X106807000Y-107940000D01*
X107282000Y-107940000D01*
X107754514Y-107795487D01*
X108135757Y-107481152D01*
X108367689Y-107044848D01*
X108373282Y-107001540D01*
X108248902Y-106807000D01*
X106807000Y-106807000D01*
X106553000Y-106807000D01*
X105111098Y-106807000D01*
X104986718Y-107001540D01*
X104267000Y-107001540D01*
X104267000Y-106680000D01*
X120151009Y-106680000D01*
X120246921Y-107162181D01*
X120520054Y-107570955D01*
X120928828Y-107844088D01*
X121411009Y-107940000D01*
X122428991Y-107940000D01*
X122911172Y-107844088D01*
X123319946Y-107570955D01*
X123593079Y-107162181D01*
X123688991Y-106680000D01*
X123593079Y-106197819D01*
X123319946Y-105789045D01*
X122911172Y-105515912D01*
X122428991Y-105420000D01*
X121411009Y-105420000D01*
X120928828Y-105515912D01*
X120520054Y-105789045D01*
X120246921Y-106197819D01*
X120151009Y-106680000D01*
X104267000Y-106680000D01*
X104267000Y-106358460D01*
X104986718Y-106358460D01*
X105111098Y-106553000D01*
X106553000Y-106553000D01*
X106553000Y-105420000D01*
X106807000Y-105420000D01*
X106807000Y-106553000D01*
X108248902Y-106553000D01*
X108373282Y-106358460D01*
X108367689Y-106315152D01*
X108135757Y-105878848D01*
X107754514Y-105564513D01*
X107282000Y-105420000D01*
X106807000Y-105420000D01*
X106553000Y-105420000D01*
X106078000Y-105420000D01*
X105605486Y-105564513D01*
X105224243Y-105878848D01*
X104992311Y-106315152D01*
X104986718Y-106358460D01*
X104267000Y-106358460D01*
X104267000Y-104140000D01*
X104911009Y-104140000D01*
X105006921Y-104622181D01*
X105280054Y-105030955D01*
X105688828Y-105304088D01*
X106171009Y-105400000D01*
X107188991Y-105400000D01*
X107671172Y-105304088D01*
X108079946Y-105030955D01*
X108167447Y-104900000D01*
X116840000Y-104900000D01*
X117130839Y-104842148D01*
X117377401Y-104677401D01*
X118424802Y-103630000D01*
X120265509Y-103630000D01*
X120246921Y-103657819D01*
X120151009Y-104140000D01*
X120246921Y-104622181D01*
X120520054Y-105030955D01*
X120928828Y-105304088D01*
X121411009Y-105400000D01*
X122428991Y-105400000D01*
X122911172Y-105304088D01*
X123319946Y-105030955D01*
X123593079Y-104622181D01*
X123688991Y-104140000D01*
X123593079Y-103657819D01*
X123574491Y-103630000D01*
X140210000Y-103630000D01*
X140210000Y-115255198D01*
X139385198Y-116080000D01*
X138647447Y-116080000D01*
X138559946Y-115949045D01*
X138151172Y-115675912D01*
X137668991Y-115580000D01*
X136651009Y-115580000D01*
X136168828Y-115675912D01*
X135760054Y-115949045D01*
X135486921Y-116357819D01*
X135391009Y-116840000D01*
X135486921Y-117322181D01*
X135760054Y-117730955D01*
X136168828Y-118004088D01*
X136651009Y-118100000D01*
X137668991Y-118100000D01*
X138151172Y-118004088D01*
X138559946Y-117730955D01*
X138647447Y-117600000D01*
X139700000Y-117600000D01*
X139990839Y-117542148D01*
X140237401Y-117377401D01*
X140774802Y-116840000D01*
X143011009Y-116840000D01*
X143106921Y-117322181D01*
X143380054Y-117730955D01*
X143788828Y-118004088D01*
X144271009Y-118100000D01*
X145288991Y-118100000D01*
X145771172Y-118004088D01*
X146179946Y-117730955D01*
X146453079Y-117322181D01*
X146548991Y-116840000D01*
X146453079Y-116357819D01*
X146179946Y-115949045D01*
X145771172Y-115675912D01*
X145288991Y-115580000D01*
X144271009Y-115580000D01*
X143788828Y-115675912D01*
X143380054Y-115949045D01*
X143106921Y-116357819D01*
X143011009Y-116840000D01*
X140774802Y-116840000D01*
X141507401Y-116107401D01*
X141672148Y-115860840D01*
X141730000Y-115570000D01*
X141730000Y-114300000D01*
X143011009Y-114300000D01*
X143106921Y-114782181D01*
X143380054Y-115190955D01*
X143788828Y-115464088D01*
X144271009Y-115560000D01*
X145288991Y-115560000D01*
X145771172Y-115464088D01*
X146179946Y-115190955D01*
X146453079Y-114782181D01*
X146548991Y-114300000D01*
X146453079Y-113817819D01*
X146179946Y-113409045D01*
X145771172Y-113135912D01*
X145288991Y-113040000D01*
X144271009Y-113040000D01*
X143788828Y-113135912D01*
X143380054Y-113409045D01*
X143106921Y-113817819D01*
X143011009Y-114300000D01*
X141730000Y-114300000D01*
X141730000Y-111760000D01*
X143011009Y-111760000D01*
X143106921Y-112242181D01*
X143380054Y-112650955D01*
X143788828Y-112924088D01*
X144271009Y-113020000D01*
X145288991Y-113020000D01*
X145771172Y-112924088D01*
X146179946Y-112650955D01*
X146453079Y-112242181D01*
X146548991Y-111760000D01*
X146453079Y-111277819D01*
X146179946Y-110869045D01*
X145771172Y-110595912D01*
X145288991Y-110500000D01*
X144271009Y-110500000D01*
X143788828Y-110595912D01*
X143380054Y-110869045D01*
X143106921Y-111277819D01*
X143011009Y-111760000D01*
X141730000Y-111760000D01*
X141730000Y-109220000D01*
X143011009Y-109220000D01*
X143106921Y-109702181D01*
X143380054Y-110110955D01*
X143788828Y-110384088D01*
X144271009Y-110480000D01*
X145288991Y-110480000D01*
X145771172Y-110384088D01*
X146179946Y-110110955D01*
X146453079Y-109702181D01*
X146548991Y-109220000D01*
X146453079Y-108737819D01*
X146179946Y-108329045D01*
X145771172Y-108055912D01*
X145288991Y-107960000D01*
X144271009Y-107960000D01*
X143788828Y-108055912D01*
X143380054Y-108329045D01*
X143106921Y-108737819D01*
X143011009Y-109220000D01*
X141730000Y-109220000D01*
X141730000Y-106680000D01*
X143011009Y-106680000D01*
X143106921Y-107162181D01*
X143380054Y-107570955D01*
X143788828Y-107844088D01*
X144271009Y-107940000D01*
X145288991Y-107940000D01*
X145771172Y-107844088D01*
X146179946Y-107570955D01*
X146453079Y-107162181D01*
X146548991Y-106680000D01*
X146453079Y-106197819D01*
X146179946Y-105789045D01*
X145771172Y-105515912D01*
X145288991Y-105420000D01*
X144271009Y-105420000D01*
X143788828Y-105515912D01*
X143380054Y-105789045D01*
X143106921Y-106197819D01*
X143011009Y-106680000D01*
X141730000Y-106680000D01*
X141730000Y-104140000D01*
X143011009Y-104140000D01*
X143106921Y-104622181D01*
X143380054Y-105030955D01*
X143788828Y-105304088D01*
X144271009Y-105400000D01*
X145288991Y-105400000D01*
X145771172Y-105304088D01*
X146179946Y-105030955D01*
X146453079Y-104622181D01*
X146548991Y-104140000D01*
X146453079Y-103657819D01*
X146179946Y-103249045D01*
X145771172Y-102975912D01*
X145288991Y-102880000D01*
X144271009Y-102880000D01*
X143788828Y-102975912D01*
X143380054Y-103249045D01*
X143106921Y-103657819D01*
X143011009Y-104140000D01*
X141730000Y-104140000D01*
X141730000Y-101600000D01*
X143011009Y-101600000D01*
X143106921Y-102082181D01*
X143380054Y-102490955D01*
X143788828Y-102764088D01*
X144271009Y-102860000D01*
X145288991Y-102860000D01*
X145771172Y-102764088D01*
X146179946Y-102490955D01*
X146453079Y-102082181D01*
X146548991Y-101600000D01*
X146453079Y-101117819D01*
X146179946Y-100709045D01*
X145771172Y-100435912D01*
X145288991Y-100340000D01*
X144271009Y-100340000D01*
X143788828Y-100435912D01*
X143380054Y-100709045D01*
X143106921Y-101117819D01*
X143011009Y-101600000D01*
X141730000Y-101600000D01*
X141730000Y-99060000D01*
X143011009Y-99060000D01*
X143106921Y-99542181D01*
X143380054Y-99950955D01*
X143788828Y-100224088D01*
X144271009Y-100320000D01*
X145288991Y-100320000D01*
X145771172Y-100224088D01*
X146179946Y-99950955D01*
X146453079Y-99542181D01*
X146548991Y-99060000D01*
X146453079Y-98577819D01*
X146179946Y-98169045D01*
X145771172Y-97895912D01*
X145288991Y-97800000D01*
X144271009Y-97800000D01*
X143788828Y-97895912D01*
X143380054Y-98169045D01*
X143106921Y-98577819D01*
X143011009Y-99060000D01*
X141730000Y-99060000D01*
X141730000Y-96520000D01*
X143011009Y-96520000D01*
X143106921Y-97002181D01*
X143380054Y-97410955D01*
X143788828Y-97684088D01*
X144271009Y-97780000D01*
X145288991Y-97780000D01*
X145771172Y-97684088D01*
X146179946Y-97410955D01*
X146453079Y-97002181D01*
X146548991Y-96520000D01*
X146453079Y-96037819D01*
X146179946Y-95629045D01*
X145771172Y-95355912D01*
X145288991Y-95260000D01*
X144271009Y-95260000D01*
X143788828Y-95355912D01*
X143380054Y-95629045D01*
X143106921Y-96037819D01*
X143011009Y-96520000D01*
X141730000Y-96520000D01*
X141730000Y-91440000D01*
X143011009Y-91440000D01*
X143106921Y-91922181D01*
X143380054Y-92330955D01*
X143788828Y-92604088D01*
X144271009Y-92700000D01*
X145288991Y-92700000D01*
X145771172Y-92604088D01*
X146179946Y-92330955D01*
X146267447Y-92200000D01*
X147005198Y-92200000D01*
X147830000Y-93024802D01*
X147830000Y-94685198D01*
X146587401Y-93442599D01*
X146340839Y-93277852D01*
X146300778Y-93269883D01*
X146179946Y-93089045D01*
X145771172Y-92815912D01*
X145288991Y-92720000D01*
X144271009Y-92720000D01*
X143788828Y-92815912D01*
X143380054Y-93089045D01*
X143106921Y-93497819D01*
X143011009Y-93980000D01*
X143106921Y-94462181D01*
X143380054Y-94870955D01*
X143788828Y-95144088D01*
X144271009Y-95240000D01*
X145288991Y-95240000D01*
X145771172Y-95144088D01*
X145991841Y-94996643D01*
X146560000Y-95564802D01*
X146560000Y-122627537D01*
X146527808Y-122659673D01*
X146385162Y-123003201D01*
X146384838Y-123375167D01*
X146526883Y-123718943D01*
X146789673Y-123982192D01*
X147133201Y-124124838D01*
X147505167Y-124125162D01*
X147848943Y-123983117D01*
X148112192Y-123720327D01*
X148254838Y-123376799D01*
X148255162Y-123004833D01*
X148113117Y-122661057D01*
X148080000Y-122627882D01*
X148080000Y-121450633D01*
X148403201Y-121584838D01*
X148775167Y-121585162D01*
X149118943Y-121443117D01*
X149382192Y-121180327D01*
X149524838Y-120836799D01*
X149525162Y-120464833D01*
X149383117Y-120121057D01*
X149350000Y-120087882D01*
X149350000Y-118910633D01*
X149673201Y-119044838D01*
X149720077Y-119044879D01*
X154402599Y-123727401D01*
X154649161Y-123892148D01*
X154940000Y-123950000D01*
X158314530Y-123950000D01*
X158295942Y-123977819D01*
X158200030Y-124460000D01*
X158295942Y-124942181D01*
X158569075Y-125350955D01*
X158977849Y-125624088D01*
X159460030Y-125720000D01*
X160579970Y-125720000D01*
X161062151Y-125624088D01*
X161470925Y-125350955D01*
X161744058Y-124942181D01*
X161781109Y-124755911D01*
X162022599Y-124997401D01*
X162269160Y-125162148D01*
X162560000Y-125220000D01*
X173721574Y-125220000D01*
X173809075Y-125350955D01*
X174217849Y-125624088D01*
X174700030Y-125720000D01*
X175819970Y-125720000D01*
X176302151Y-125624088D01*
X176710925Y-125350955D01*
X176984058Y-124942181D01*
X177079970Y-124460000D01*
X176984058Y-123977819D01*
X176710925Y-123569045D01*
X176302151Y-123295912D01*
X175819970Y-123200000D01*
X174700030Y-123200000D01*
X174217849Y-123295912D01*
X173809075Y-123569045D01*
X173721574Y-123700000D01*
X162874802Y-123700000D01*
X161827401Y-122652599D01*
X161654105Y-122536806D01*
X161744058Y-122402181D01*
X161839970Y-121920000D01*
X173440030Y-121920000D01*
X173535942Y-122402181D01*
X173809075Y-122810955D01*
X174217849Y-123084088D01*
X174700030Y-123180000D01*
X175819970Y-123180000D01*
X176302151Y-123084088D01*
X176710925Y-122810955D01*
X176984058Y-122402181D01*
X177079970Y-121920000D01*
X176984058Y-121437819D01*
X176710925Y-121029045D01*
X176302151Y-120755912D01*
X175819970Y-120660000D01*
X174700030Y-120660000D01*
X174217849Y-120755912D01*
X173809075Y-121029045D01*
X173535942Y-121437819D01*
X173440030Y-121920000D01*
X161839970Y-121920000D01*
X161744058Y-121437819D01*
X161470925Y-121029045D01*
X161062151Y-120755912D01*
X160579970Y-120660000D01*
X159460030Y-120660000D01*
X158977849Y-120755912D01*
X158569075Y-121029045D01*
X158295942Y-121437819D01*
X158200030Y-121920000D01*
X158295942Y-122402181D01*
X158314530Y-122430000D01*
X155254802Y-122430000D01*
X152204802Y-119380000D01*
X158200030Y-119380000D01*
X158295942Y-119862181D01*
X158569075Y-120270955D01*
X158977849Y-120544088D01*
X159460030Y-120640000D01*
X160579970Y-120640000D01*
X161062151Y-120544088D01*
X161470925Y-120270955D01*
X161744058Y-119862181D01*
X161839970Y-119380000D01*
X173440030Y-119380000D01*
X173535942Y-119862181D01*
X173809075Y-120270955D01*
X174217849Y-120544088D01*
X174700030Y-120640000D01*
X175819970Y-120640000D01*
X176302151Y-120544088D01*
X176710925Y-120270955D01*
X176984058Y-119862181D01*
X177079970Y-119380000D01*
X176984058Y-118897819D01*
X176710925Y-118489045D01*
X176302151Y-118215912D01*
X175819970Y-118120000D01*
X174700030Y-118120000D01*
X174217849Y-118215912D01*
X173809075Y-118489045D01*
X173535942Y-118897819D01*
X173440030Y-119380000D01*
X161839970Y-119380000D01*
X161744058Y-118897819D01*
X161470925Y-118489045D01*
X161062151Y-118215912D01*
X160579970Y-118120000D01*
X159460030Y-118120000D01*
X158977849Y-118215912D01*
X158569075Y-118489045D01*
X158295942Y-118897819D01*
X158200030Y-119380000D01*
X152204802Y-119380000D01*
X150795122Y-117970320D01*
X150795162Y-117924833D01*
X150653117Y-117581057D01*
X150390327Y-117317808D01*
X150046799Y-117175162D01*
X149674833Y-117174838D01*
X149350000Y-117309056D01*
X149350000Y-114300000D01*
X150631009Y-114300000D01*
X150726921Y-114782181D01*
X151000054Y-115190955D01*
X151408828Y-115464088D01*
X151891009Y-115560000D01*
X152908991Y-115560000D01*
X153391172Y-115464088D01*
X153799946Y-115190955D01*
X154073079Y-114782181D01*
X154168991Y-114300000D01*
X154073079Y-113817819D01*
X153799946Y-113409045D01*
X153391172Y-113135912D01*
X152908991Y-113040000D01*
X151891009Y-113040000D01*
X151408828Y-113135912D01*
X151000054Y-113409045D01*
X150726921Y-113817819D01*
X150631009Y-114300000D01*
X149350000Y-114300000D01*
X149350000Y-111760000D01*
X150631009Y-111760000D01*
X150726921Y-112242181D01*
X151000054Y-112650955D01*
X151408828Y-112924088D01*
X151891009Y-113020000D01*
X152908991Y-113020000D01*
X153391172Y-112924088D01*
X153799946Y-112650955D01*
X154073079Y-112242181D01*
X154168991Y-111760000D01*
X154073079Y-111277819D01*
X153799946Y-110869045D01*
X153391172Y-110595912D01*
X152908991Y-110500000D01*
X151891009Y-110500000D01*
X151408828Y-110595912D01*
X151000054Y-110869045D01*
X150726921Y-111277819D01*
X150631009Y-111760000D01*
X149350000Y-111760000D01*
X149350000Y-109220000D01*
X150631009Y-109220000D01*
X150726921Y-109702181D01*
X151000054Y-110110955D01*
X151408828Y-110384088D01*
X151891009Y-110480000D01*
X152908991Y-110480000D01*
X153391172Y-110384088D01*
X153799946Y-110110955D01*
X154073079Y-109702181D01*
X154168991Y-109220000D01*
X154073079Y-108737819D01*
X153799946Y-108329045D01*
X153391172Y-108055912D01*
X152908991Y-107960000D01*
X151891009Y-107960000D01*
X151408828Y-108055912D01*
X151000054Y-108329045D01*
X150726921Y-108737819D01*
X150631009Y-109220000D01*
X149350000Y-109220000D01*
X149350000Y-106680000D01*
X150631009Y-106680000D01*
X150726921Y-107162181D01*
X151000054Y-107570955D01*
X151408828Y-107844088D01*
X151891009Y-107940000D01*
X152908991Y-107940000D01*
X153391172Y-107844088D01*
X153799946Y-107570955D01*
X154073079Y-107162181D01*
X154168991Y-106680000D01*
X154073079Y-106197819D01*
X153799946Y-105789045D01*
X153391172Y-105515912D01*
X152908991Y-105420000D01*
X151891009Y-105420000D01*
X151408828Y-105515912D01*
X151000054Y-105789045D01*
X150726921Y-106197819D01*
X150631009Y-106680000D01*
X149350000Y-106680000D01*
X149350000Y-104140000D01*
X150631009Y-104140000D01*
X150726921Y-104622181D01*
X151000054Y-105030955D01*
X151408828Y-105304088D01*
X151891009Y-105400000D01*
X152908991Y-105400000D01*
X153391172Y-105304088D01*
X153799946Y-105030955D01*
X154073079Y-104622181D01*
X154168991Y-104140000D01*
X154073079Y-103657819D01*
X153799946Y-103249045D01*
X153391172Y-102975912D01*
X152908991Y-102880000D01*
X151891009Y-102880000D01*
X151408828Y-102975912D01*
X151000054Y-103249045D01*
X150726921Y-103657819D01*
X150631009Y-104140000D01*
X149350000Y-104140000D01*
X149350000Y-101921540D01*
X150706718Y-101921540D01*
X150712311Y-101964848D01*
X150944243Y-102401152D01*
X151325486Y-102715487D01*
X151798000Y-102860000D01*
X152273000Y-102860000D01*
X152273000Y-101727000D01*
X152527000Y-101727000D01*
X152527000Y-102860000D01*
X153002000Y-102860000D01*
X153474514Y-102715487D01*
X153855757Y-102401152D01*
X154087689Y-101964848D01*
X154093282Y-101921540D01*
X153968902Y-101727000D01*
X152527000Y-101727000D01*
X152273000Y-101727000D01*
X150831098Y-101727000D01*
X150706718Y-101921540D01*
X149350000Y-101921540D01*
X149350000Y-101278460D01*
X150706718Y-101278460D01*
X150831098Y-101473000D01*
X152273000Y-101473000D01*
X152273000Y-100340000D01*
X152527000Y-100340000D01*
X152527000Y-101473000D01*
X153968902Y-101473000D01*
X154093282Y-101278460D01*
X154087689Y-101235152D01*
X153855757Y-100798848D01*
X153474514Y-100484513D01*
X153002000Y-100340000D01*
X152527000Y-100340000D01*
X152273000Y-100340000D01*
X151798000Y-100340000D01*
X151325486Y-100484513D01*
X150944243Y-100798848D01*
X150712311Y-101235152D01*
X150706718Y-101278460D01*
X149350000Y-101278460D01*
X149350000Y-99060000D01*
X150631009Y-99060000D01*
X150726921Y-99542181D01*
X151000054Y-99950955D01*
X151408828Y-100224088D01*
X151891009Y-100320000D01*
X152908991Y-100320000D01*
X153391172Y-100224088D01*
X153799946Y-99950955D01*
X154073079Y-99542181D01*
X154168991Y-99060000D01*
X154073079Y-98577819D01*
X153799946Y-98169045D01*
X153391172Y-97895912D01*
X152908991Y-97800000D01*
X151891009Y-97800000D01*
X151408828Y-97895912D01*
X151000054Y-98169045D01*
X150726921Y-98577819D01*
X150631009Y-99060000D01*
X149350000Y-99060000D01*
X149350000Y-96520000D01*
X150631009Y-96520000D01*
X150726921Y-97002181D01*
X151000054Y-97410955D01*
X151408828Y-97684088D01*
X151891009Y-97780000D01*
X152908991Y-97780000D01*
X153391172Y-97684088D01*
X153799946Y-97410955D01*
X154073079Y-97002181D01*
X154168991Y-96520000D01*
X154073079Y-96037819D01*
X153799946Y-95629045D01*
X153391172Y-95355912D01*
X152908991Y-95260000D01*
X151891009Y-95260000D01*
X151408828Y-95355912D01*
X151000054Y-95629045D01*
X150726921Y-96037819D01*
X150631009Y-96520000D01*
X149350000Y-96520000D01*
X149350000Y-93980000D01*
X150631009Y-93980000D01*
X150726921Y-94462181D01*
X151000054Y-94870955D01*
X151408828Y-95144088D01*
X151891009Y-95240000D01*
X152908991Y-95240000D01*
X153391172Y-95144088D01*
X153799946Y-94870955D01*
X154073079Y-94462181D01*
X154168991Y-93980000D01*
X154073079Y-93497819D01*
X153799946Y-93089045D01*
X153391172Y-92815912D01*
X152908991Y-92720000D01*
X151891009Y-92720000D01*
X151408828Y-92815912D01*
X151000054Y-93089045D01*
X150726921Y-93497819D01*
X150631009Y-93980000D01*
X149350000Y-93980000D01*
X149350000Y-92710000D01*
X149292148Y-92419161D01*
X149292148Y-92419160D01*
X149127401Y-92172599D01*
X148394802Y-91440000D01*
X150631009Y-91440000D01*
X150726921Y-91922181D01*
X151000054Y-92330955D01*
X151408828Y-92604088D01*
X151891009Y-92700000D01*
X152908991Y-92700000D01*
X153391172Y-92604088D01*
X153799946Y-92330955D01*
X154073079Y-91922181D01*
X154168991Y-91440000D01*
X154073079Y-90957819D01*
X153799946Y-90549045D01*
X153391172Y-90275912D01*
X152908991Y-90180000D01*
X151891009Y-90180000D01*
X151408828Y-90275912D01*
X151000054Y-90549045D01*
X150726921Y-90957819D01*
X150631009Y-91440000D01*
X148394802Y-91440000D01*
X147857401Y-90902599D01*
X147610839Y-90737852D01*
X147320000Y-90680000D01*
X146267447Y-90680000D01*
X146179946Y-90549045D01*
X145771172Y-90275912D01*
X145288991Y-90180000D01*
X144271009Y-90180000D01*
X143788828Y-90275912D01*
X143380054Y-90549045D01*
X143106921Y-90957819D01*
X143011009Y-91440000D01*
X141730000Y-91440000D01*
X141730000Y-89214802D01*
X142554802Y-88390000D01*
X143125509Y-88390000D01*
X143106921Y-88417819D01*
X143011009Y-88900000D01*
X143106921Y-89382181D01*
X143380054Y-89790955D01*
X143788828Y-90064088D01*
X144271009Y-90160000D01*
X145288991Y-90160000D01*
X145771172Y-90064088D01*
X146179946Y-89790955D01*
X146453079Y-89382181D01*
X146548991Y-88900000D01*
X146453079Y-88417819D01*
X146434491Y-88390000D01*
X150745509Y-88390000D01*
X150726921Y-88417819D01*
X150631009Y-88900000D01*
X150726921Y-89382181D01*
X151000054Y-89790955D01*
X151408828Y-90064088D01*
X151891009Y-90160000D01*
X152908991Y-90160000D01*
X153391172Y-90064088D01*
X153799946Y-89790955D01*
X154073079Y-89382181D01*
X154168991Y-88900000D01*
X154073079Y-88417819D01*
X154054491Y-88390000D01*
X155450000Y-88390000D01*
X155450000Y-115255198D01*
X154625198Y-116080000D01*
X153887447Y-116080000D01*
X153799946Y-115949045D01*
X153391172Y-115675912D01*
X152908991Y-115580000D01*
X151891009Y-115580000D01*
X151408828Y-115675912D01*
X151000054Y-115949045D01*
X150726921Y-116357819D01*
X150631009Y-116840000D01*
X150726921Y-117322181D01*
X151000054Y-117730955D01*
X151408828Y-118004088D01*
X151891009Y-118100000D01*
X152908991Y-118100000D01*
X153391172Y-118004088D01*
X153799946Y-117730955D01*
X153887447Y-117600000D01*
X154940000Y-117600000D01*
X155230839Y-117542148D01*
X155477401Y-117377401D01*
X156014802Y-116840000D01*
X158200030Y-116840000D01*
X158295942Y-117322181D01*
X158569075Y-117730955D01*
X158977849Y-118004088D01*
X159460030Y-118100000D01*
X160579970Y-118100000D01*
X161062151Y-118004088D01*
X161470925Y-117730955D01*
X161744058Y-117322181D01*
X161839970Y-116840000D01*
X173440030Y-116840000D01*
X173535942Y-117322181D01*
X173809075Y-117730955D01*
X174217849Y-118004088D01*
X174700030Y-118100000D01*
X175819970Y-118100000D01*
X176302151Y-118004088D01*
X176710925Y-117730955D01*
X176984058Y-117322181D01*
X177079970Y-116840000D01*
X176984058Y-116357819D01*
X176710925Y-115949045D01*
X176302151Y-115675912D01*
X175819970Y-115580000D01*
X174700030Y-115580000D01*
X174217849Y-115675912D01*
X173809075Y-115949045D01*
X173535942Y-116357819D01*
X173440030Y-116840000D01*
X161839970Y-116840000D01*
X161744058Y-116357819D01*
X161470925Y-115949045D01*
X161062151Y-115675912D01*
X160579970Y-115580000D01*
X159460030Y-115580000D01*
X158977849Y-115675912D01*
X158569075Y-115949045D01*
X158295942Y-116357819D01*
X158200030Y-116840000D01*
X156014802Y-116840000D01*
X156747401Y-116107401D01*
X156912148Y-115860840D01*
X156970000Y-115570000D01*
X156970000Y-114300000D01*
X158200030Y-114300000D01*
X158295942Y-114782181D01*
X158569075Y-115190955D01*
X158977849Y-115464088D01*
X159460030Y-115560000D01*
X160579970Y-115560000D01*
X161062151Y-115464088D01*
X161470925Y-115190955D01*
X161558426Y-115060000D01*
X173721574Y-115060000D01*
X173809075Y-115190955D01*
X174217849Y-115464088D01*
X174700030Y-115560000D01*
X175819970Y-115560000D01*
X176302151Y-115464088D01*
X176710925Y-115190955D01*
X176984058Y-114782181D01*
X177079970Y-114300000D01*
X176984058Y-113817819D01*
X176710925Y-113409045D01*
X176302151Y-113135912D01*
X175819970Y-113040000D01*
X174700030Y-113040000D01*
X174217849Y-113135912D01*
X173809075Y-113409045D01*
X173721574Y-113540000D01*
X167130000Y-113540000D01*
X167130000Y-111760000D01*
X173440030Y-111760000D01*
X173535942Y-112242181D01*
X173809075Y-112650955D01*
X174217849Y-112924088D01*
X174700030Y-113020000D01*
X175819970Y-113020000D01*
X176302151Y-112924088D01*
X176710925Y-112650955D01*
X176984058Y-112242181D01*
X177079970Y-111760000D01*
X176984058Y-111277819D01*
X176710925Y-110869045D01*
X176302151Y-110595912D01*
X175819970Y-110500000D01*
X174700030Y-110500000D01*
X174217849Y-110595912D01*
X173809075Y-110869045D01*
X173535942Y-111277819D01*
X173440030Y-111760000D01*
X167130000Y-111760000D01*
X167130000Y-109220000D01*
X173440030Y-109220000D01*
X173535942Y-109702181D01*
X173809075Y-110110955D01*
X174217849Y-110384088D01*
X174700030Y-110480000D01*
X175819970Y-110480000D01*
X176302151Y-110384088D01*
X176710925Y-110110955D01*
X176984058Y-109702181D01*
X177079970Y-109220000D01*
X176984058Y-108737819D01*
X176710925Y-108329045D01*
X176302151Y-108055912D01*
X175819970Y-107960000D01*
X174700030Y-107960000D01*
X174217849Y-108055912D01*
X173809075Y-108329045D01*
X173535942Y-108737819D01*
X173440030Y-109220000D01*
X167130000Y-109220000D01*
X167130000Y-106686742D01*
X167255317Y-106663162D01*
X167471441Y-106524090D01*
X167616431Y-106311890D01*
X167667440Y-106060000D01*
X167667440Y-105864540D01*
X167779995Y-106136943D01*
X168141155Y-106498735D01*
X168613276Y-106694777D01*
X169124481Y-106695223D01*
X169161323Y-106680000D01*
X173440030Y-106680000D01*
X173535942Y-107162181D01*
X173809075Y-107570955D01*
X174217849Y-107844088D01*
X174700030Y-107940000D01*
X175819970Y-107940000D01*
X176302151Y-107844088D01*
X176710925Y-107570955D01*
X176984058Y-107162181D01*
X177079970Y-106680000D01*
X176984058Y-106197819D01*
X176710925Y-105789045D01*
X176302151Y-105515912D01*
X175819970Y-105420000D01*
X174700030Y-105420000D01*
X174217849Y-105515912D01*
X173809075Y-105789045D01*
X173535942Y-106197819D01*
X173440030Y-106680000D01*
X169161323Y-106680000D01*
X169596943Y-106500005D01*
X169958735Y-106138845D01*
X170154777Y-105666724D01*
X170155223Y-105155519D01*
X169960005Y-104683057D01*
X169598845Y-104321265D01*
X169162311Y-104140000D01*
X173440030Y-104140000D01*
X173535942Y-104622181D01*
X173809075Y-105030955D01*
X174217849Y-105304088D01*
X174700030Y-105400000D01*
X175819970Y-105400000D01*
X176302151Y-105304088D01*
X176710925Y-105030955D01*
X176984058Y-104622181D01*
X177079970Y-104140000D01*
X176984058Y-103657819D01*
X176710925Y-103249045D01*
X176302151Y-102975912D01*
X175819970Y-102880000D01*
X174700030Y-102880000D01*
X174217849Y-102975912D01*
X173809075Y-103249045D01*
X173535942Y-103657819D01*
X173440030Y-104140000D01*
X169162311Y-104140000D01*
X169126724Y-104125223D01*
X168615519Y-104124777D01*
X168143057Y-104319995D01*
X167781265Y-104681155D01*
X167667440Y-104955276D01*
X167667440Y-104760000D01*
X167623162Y-104524683D01*
X167484090Y-104308559D01*
X167271890Y-104163569D01*
X167020000Y-104112560D01*
X165720000Y-104112560D01*
X165484683Y-104156838D01*
X165268559Y-104295910D01*
X165123569Y-104508110D01*
X165072560Y-104760000D01*
X165072560Y-106060000D01*
X165116838Y-106295317D01*
X165255910Y-106511441D01*
X165468110Y-106656431D01*
X165610000Y-106685164D01*
X165610000Y-113540000D01*
X161558426Y-113540000D01*
X161470925Y-113409045D01*
X161062151Y-113135912D01*
X160579970Y-113040000D01*
X159460030Y-113040000D01*
X158977849Y-113135912D01*
X158569075Y-113409045D01*
X158295942Y-113817819D01*
X158200030Y-114300000D01*
X156970000Y-114300000D01*
X156970000Y-112081540D01*
X158276718Y-112081540D01*
X158282311Y-112124848D01*
X158514243Y-112561152D01*
X158895486Y-112875487D01*
X159368000Y-113020000D01*
X159893000Y-113020000D01*
X159893000Y-111887000D01*
X160147000Y-111887000D01*
X160147000Y-113020000D01*
X160672000Y-113020000D01*
X161144514Y-112875487D01*
X161525757Y-112561152D01*
X161757689Y-112124848D01*
X161763282Y-112081540D01*
X161638902Y-111887000D01*
X160147000Y-111887000D01*
X159893000Y-111887000D01*
X158401098Y-111887000D01*
X158276718Y-112081540D01*
X156970000Y-112081540D01*
X156970000Y-111438460D01*
X158276718Y-111438460D01*
X158401098Y-111633000D01*
X159893000Y-111633000D01*
X159893000Y-110500000D01*
X160147000Y-110500000D01*
X160147000Y-111633000D01*
X161638902Y-111633000D01*
X161763282Y-111438460D01*
X161757689Y-111395152D01*
X161525757Y-110958848D01*
X161144514Y-110644513D01*
X160672000Y-110500000D01*
X160147000Y-110500000D01*
X159893000Y-110500000D01*
X159368000Y-110500000D01*
X158895486Y-110644513D01*
X158514243Y-110958848D01*
X158282311Y-111395152D01*
X158276718Y-111438460D01*
X156970000Y-111438460D01*
X156970000Y-109220000D01*
X158200030Y-109220000D01*
X158295942Y-109702181D01*
X158569075Y-110110955D01*
X158977849Y-110384088D01*
X159460030Y-110480000D01*
X160579970Y-110480000D01*
X161062151Y-110384088D01*
X161470925Y-110110955D01*
X161744058Y-109702181D01*
X161839970Y-109220000D01*
X161744058Y-108737819D01*
X161470925Y-108329045D01*
X161062151Y-108055912D01*
X160579970Y-107960000D01*
X159460030Y-107960000D01*
X158977849Y-108055912D01*
X158569075Y-108329045D01*
X158295942Y-108737819D01*
X158200030Y-109220000D01*
X156970000Y-109220000D01*
X156970000Y-106680000D01*
X158200030Y-106680000D01*
X158295942Y-107162181D01*
X158569075Y-107570955D01*
X158977849Y-107844088D01*
X159460030Y-107940000D01*
X160579970Y-107940000D01*
X161062151Y-107844088D01*
X161470925Y-107570955D01*
X161744058Y-107162181D01*
X161839970Y-106680000D01*
X161744058Y-106197819D01*
X161470925Y-105789045D01*
X161062151Y-105515912D01*
X160579970Y-105420000D01*
X159460030Y-105420000D01*
X158977849Y-105515912D01*
X158569075Y-105789045D01*
X158295942Y-106197819D01*
X158200030Y-106680000D01*
X156970000Y-106680000D01*
X156970000Y-104140000D01*
X158200030Y-104140000D01*
X158295942Y-104622181D01*
X158569075Y-105030955D01*
X158977849Y-105304088D01*
X159460030Y-105400000D01*
X160579970Y-105400000D01*
X161062151Y-105304088D01*
X161470925Y-105030955D01*
X161744058Y-104622181D01*
X161839970Y-104140000D01*
X161744058Y-103657819D01*
X161470925Y-103249045D01*
X161062151Y-102975912D01*
X160579970Y-102880000D01*
X159460030Y-102880000D01*
X158977849Y-102975912D01*
X158569075Y-103249045D01*
X158295942Y-103657819D01*
X158200030Y-104140000D01*
X156970000Y-104140000D01*
X156970000Y-101600000D01*
X158200030Y-101600000D01*
X158295942Y-102082181D01*
X158569075Y-102490955D01*
X158977849Y-102764088D01*
X159460030Y-102860000D01*
X160579970Y-102860000D01*
X161062151Y-102764088D01*
X161470925Y-102490955D01*
X161744058Y-102082181D01*
X161839970Y-101600000D01*
X173440030Y-101600000D01*
X173535942Y-102082181D01*
X173809075Y-102490955D01*
X174217849Y-102764088D01*
X174700030Y-102860000D01*
X175819970Y-102860000D01*
X176302151Y-102764088D01*
X176710925Y-102490955D01*
X176984058Y-102082181D01*
X177079970Y-101600000D01*
X176984058Y-101117819D01*
X176710925Y-100709045D01*
X176302151Y-100435912D01*
X175819970Y-100340000D01*
X174700030Y-100340000D01*
X174217849Y-100435912D01*
X173809075Y-100709045D01*
X173535942Y-101117819D01*
X173440030Y-101600000D01*
X161839970Y-101600000D01*
X161744058Y-101117819D01*
X161470925Y-100709045D01*
X161062151Y-100435912D01*
X160579970Y-100340000D01*
X159460030Y-100340000D01*
X158977849Y-100435912D01*
X158569075Y-100709045D01*
X158295942Y-101117819D01*
X158200030Y-101600000D01*
X156970000Y-101600000D01*
X156970000Y-99060000D01*
X158200030Y-99060000D01*
X158295942Y-99542181D01*
X158569075Y-99950955D01*
X158977849Y-100224088D01*
X159460030Y-100320000D01*
X160579970Y-100320000D01*
X161062151Y-100224088D01*
X161470925Y-99950955D01*
X161744058Y-99542181D01*
X161775583Y-99383694D01*
X162195226Y-99383694D01*
X162443538Y-99984655D01*
X162902927Y-100444846D01*
X163503453Y-100694206D01*
X164153694Y-100694774D01*
X164754655Y-100446462D01*
X165214846Y-99987073D01*
X165464206Y-99386547D01*
X165464208Y-99383694D01*
X166005226Y-99383694D01*
X166253538Y-99984655D01*
X166712927Y-100444846D01*
X167313453Y-100694206D01*
X167963694Y-100694774D01*
X168564655Y-100446462D01*
X169024846Y-99987073D01*
X169274206Y-99386547D01*
X169274208Y-99383694D01*
X169815226Y-99383694D01*
X170063538Y-99984655D01*
X170522927Y-100444846D01*
X171123453Y-100694206D01*
X171773694Y-100694774D01*
X172374655Y-100446462D01*
X172834846Y-99987073D01*
X173084206Y-99386547D01*
X173084491Y-99060000D01*
X173440030Y-99060000D01*
X173535942Y-99542181D01*
X173809075Y-99950955D01*
X174217849Y-100224088D01*
X174700030Y-100320000D01*
X175819970Y-100320000D01*
X176302151Y-100224088D01*
X176710925Y-99950955D01*
X176984058Y-99542181D01*
X177079970Y-99060000D01*
X176984058Y-98577819D01*
X176710925Y-98169045D01*
X176302151Y-97895912D01*
X175819970Y-97800000D01*
X174700030Y-97800000D01*
X174217849Y-97895912D01*
X173809075Y-98169045D01*
X173535942Y-98577819D01*
X173440030Y-99060000D01*
X173084491Y-99060000D01*
X173084774Y-98736306D01*
X172836462Y-98135345D01*
X172377073Y-97675154D01*
X171776547Y-97425794D01*
X171126306Y-97425226D01*
X170525345Y-97673538D01*
X170065154Y-98132927D01*
X169815794Y-98733453D01*
X169815226Y-99383694D01*
X169274208Y-99383694D01*
X169274774Y-98736306D01*
X169026462Y-98135345D01*
X168567073Y-97675154D01*
X167966547Y-97425794D01*
X167316306Y-97425226D01*
X166715345Y-97673538D01*
X166255154Y-98132927D01*
X166005794Y-98733453D01*
X166005226Y-99383694D01*
X165464208Y-99383694D01*
X165464774Y-98736306D01*
X165216462Y-98135345D01*
X164757073Y-97675154D01*
X164156547Y-97425794D01*
X163506306Y-97425226D01*
X162905345Y-97673538D01*
X162445154Y-98132927D01*
X162195794Y-98733453D01*
X162195226Y-99383694D01*
X161775583Y-99383694D01*
X161839970Y-99060000D01*
X161744058Y-98577819D01*
X161470925Y-98169045D01*
X161062151Y-97895912D01*
X160579970Y-97800000D01*
X159460030Y-97800000D01*
X158977849Y-97895912D01*
X158569075Y-98169045D01*
X158295942Y-98577819D01*
X158200030Y-99060000D01*
X156970000Y-99060000D01*
X156970000Y-96520000D01*
X158200030Y-96520000D01*
X158295942Y-97002181D01*
X158569075Y-97410955D01*
X158977849Y-97684088D01*
X159460030Y-97780000D01*
X160579970Y-97780000D01*
X161062151Y-97684088D01*
X161470925Y-97410955D01*
X161744058Y-97002181D01*
X161839970Y-96520000D01*
X173440030Y-96520000D01*
X173535942Y-97002181D01*
X173809075Y-97410955D01*
X174217849Y-97684088D01*
X174700030Y-97780000D01*
X175819970Y-97780000D01*
X176302151Y-97684088D01*
X176710925Y-97410955D01*
X176984058Y-97002181D01*
X177079970Y-96520000D01*
X176984058Y-96037819D01*
X176710925Y-95629045D01*
X176302151Y-95355912D01*
X175819970Y-95260000D01*
X174700030Y-95260000D01*
X174217849Y-95355912D01*
X173809075Y-95629045D01*
X173535942Y-96037819D01*
X173440030Y-96520000D01*
X161839970Y-96520000D01*
X161744058Y-96037819D01*
X161470925Y-95629045D01*
X161062151Y-95355912D01*
X160579970Y-95260000D01*
X159460030Y-95260000D01*
X158977849Y-95355912D01*
X158569075Y-95629045D01*
X158295942Y-96037819D01*
X158200030Y-96520000D01*
X156970000Y-96520000D01*
X156970000Y-93980000D01*
X158200030Y-93980000D01*
X158295942Y-94462181D01*
X158569075Y-94870955D01*
X158977849Y-95144088D01*
X159460030Y-95240000D01*
X160579970Y-95240000D01*
X161062151Y-95144088D01*
X161470925Y-94870955D01*
X161744058Y-94462181D01*
X161839970Y-93980000D01*
X173440030Y-93980000D01*
X173535942Y-94462181D01*
X173809075Y-94870955D01*
X174217849Y-95144088D01*
X174700030Y-95240000D01*
X175819970Y-95240000D01*
X176302151Y-95144088D01*
X176710925Y-94870955D01*
X176984058Y-94462181D01*
X177079970Y-93980000D01*
X176984058Y-93497819D01*
X176710925Y-93089045D01*
X176302151Y-92815912D01*
X175819970Y-92720000D01*
X174700030Y-92720000D01*
X174217849Y-92815912D01*
X173809075Y-93089045D01*
X173535942Y-93497819D01*
X173440030Y-93980000D01*
X161839970Y-93980000D01*
X161744058Y-93497819D01*
X161470925Y-93089045D01*
X161062151Y-92815912D01*
X160579970Y-92720000D01*
X159460030Y-92720000D01*
X158977849Y-92815912D01*
X158569075Y-93089045D01*
X158295942Y-93497819D01*
X158200030Y-93980000D01*
X156970000Y-93980000D01*
X156970000Y-91440000D01*
X158200030Y-91440000D01*
X158295942Y-91922181D01*
X158569075Y-92330955D01*
X158977849Y-92604088D01*
X159460030Y-92700000D01*
X160579970Y-92700000D01*
X161062151Y-92604088D01*
X161470925Y-92330955D01*
X161744058Y-91922181D01*
X161775583Y-91763694D01*
X162195226Y-91763694D01*
X162443538Y-92364655D01*
X162902927Y-92824846D01*
X163503453Y-93074206D01*
X164153694Y-93074774D01*
X164754655Y-92826462D01*
X165214846Y-92367073D01*
X165464206Y-91766547D01*
X165464208Y-91763694D01*
X166005226Y-91763694D01*
X166253538Y-92364655D01*
X166712927Y-92824846D01*
X167313453Y-93074206D01*
X167963694Y-93074774D01*
X168564655Y-92826462D01*
X169024846Y-92367073D01*
X169274206Y-91766547D01*
X169274208Y-91763694D01*
X169815226Y-91763694D01*
X170063538Y-92364655D01*
X170522927Y-92824846D01*
X171123453Y-93074206D01*
X171773694Y-93074774D01*
X172374655Y-92826462D01*
X172834846Y-92367073D01*
X173084206Y-91766547D01*
X173084491Y-91440000D01*
X173440030Y-91440000D01*
X173535942Y-91922181D01*
X173809075Y-92330955D01*
X174217849Y-92604088D01*
X174700030Y-92700000D01*
X175819970Y-92700000D01*
X176302151Y-92604088D01*
X176710925Y-92330955D01*
X176984058Y-91922181D01*
X177079970Y-91440000D01*
X176984058Y-90957819D01*
X176710925Y-90549045D01*
X176302151Y-90275912D01*
X175819970Y-90180000D01*
X174700030Y-90180000D01*
X174217849Y-90275912D01*
X173809075Y-90549045D01*
X173535942Y-90957819D01*
X173440030Y-91440000D01*
X173084491Y-91440000D01*
X173084774Y-91116306D01*
X172836462Y-90515345D01*
X172377073Y-90055154D01*
X171776547Y-89805794D01*
X171126306Y-89805226D01*
X170525345Y-90053538D01*
X170065154Y-90512927D01*
X169815794Y-91113453D01*
X169815226Y-91763694D01*
X169274208Y-91763694D01*
X169274774Y-91116306D01*
X169026462Y-90515345D01*
X168567073Y-90055154D01*
X167966547Y-89805794D01*
X167316306Y-89805226D01*
X166715345Y-90053538D01*
X166255154Y-90512927D01*
X166005794Y-91113453D01*
X166005226Y-91763694D01*
X165464208Y-91763694D01*
X165464774Y-91116306D01*
X165216462Y-90515345D01*
X164757073Y-90055154D01*
X164156547Y-89805794D01*
X163506306Y-89805226D01*
X162905345Y-90053538D01*
X162445154Y-90512927D01*
X162195794Y-91113453D01*
X162195226Y-91763694D01*
X161775583Y-91763694D01*
X161839970Y-91440000D01*
X161744058Y-90957819D01*
X161470925Y-90549045D01*
X161062151Y-90275912D01*
X160579970Y-90180000D01*
X159460030Y-90180000D01*
X158977849Y-90275912D01*
X158569075Y-90549045D01*
X158295942Y-90957819D01*
X158200030Y-91440000D01*
X156970000Y-91440000D01*
X156970000Y-88390000D01*
X158314530Y-88390000D01*
X158295942Y-88417819D01*
X158200030Y-88900000D01*
X158295942Y-89382181D01*
X158569075Y-89790955D01*
X158977849Y-90064088D01*
X159460030Y-90160000D01*
X160579970Y-90160000D01*
X161062151Y-90064088D01*
X161470925Y-89790955D01*
X161744058Y-89382181D01*
X161839970Y-88900000D01*
X161744058Y-88417819D01*
X161725470Y-88390000D01*
X172405198Y-88390000D01*
X173452599Y-89437401D01*
X173669819Y-89582543D01*
X173809075Y-89790955D01*
X174217849Y-90064088D01*
X174700030Y-90160000D01*
X175819970Y-90160000D01*
X176302151Y-90064088D01*
X176710925Y-89790955D01*
X176984058Y-89382181D01*
X177079970Y-88900000D01*
X176984058Y-88417819D01*
X176710925Y-88009045D01*
X176302151Y-87735912D01*
X175819970Y-87640000D01*
X174700030Y-87640000D01*
X174217849Y-87735912D01*
X174027740Y-87862938D01*
X173257401Y-87092599D01*
X173010839Y-86927852D01*
X172720000Y-86870000D01*
X161725470Y-86870000D01*
X161744058Y-86842181D01*
X161839970Y-86360000D01*
X173440030Y-86360000D01*
X173535942Y-86842181D01*
X173809075Y-87250955D01*
X174217849Y-87524088D01*
X174700030Y-87620000D01*
X175819970Y-87620000D01*
X176302151Y-87524088D01*
X176710925Y-87250955D01*
X176984058Y-86842181D01*
X177079970Y-86360000D01*
X176984058Y-85877819D01*
X176710925Y-85469045D01*
X176302151Y-85195912D01*
X175819970Y-85100000D01*
X174700030Y-85100000D01*
X174217849Y-85195912D01*
X173809075Y-85469045D01*
X173535942Y-85877819D01*
X173440030Y-86360000D01*
X161839970Y-86360000D01*
X161744058Y-85877819D01*
X161470925Y-85469045D01*
X161062151Y-85195912D01*
X160579970Y-85100000D01*
X159460030Y-85100000D01*
X158977849Y-85195912D01*
X158569075Y-85469045D01*
X158295942Y-85877819D01*
X158200030Y-86360000D01*
X158295942Y-86842181D01*
X158314530Y-86870000D01*
X154054491Y-86870000D01*
X154073079Y-86842181D01*
X154168991Y-86360000D01*
X154073079Y-85877819D01*
X153799946Y-85469045D01*
X153391172Y-85195912D01*
X152908991Y-85100000D01*
X151891009Y-85100000D01*
X151408828Y-85195912D01*
X151000054Y-85469045D01*
X150726921Y-85877819D01*
X150631009Y-86360000D01*
X150726921Y-86842181D01*
X150745509Y-86870000D01*
X146434491Y-86870000D01*
X146453079Y-86842181D01*
X146548991Y-86360000D01*
X146453079Y-85877819D01*
X146179946Y-85469045D01*
X145771172Y-85195912D01*
X145288991Y-85100000D01*
X144271009Y-85100000D01*
X143788828Y-85195912D01*
X143380054Y-85469045D01*
X143106921Y-85877819D01*
X143011009Y-86360000D01*
X143106921Y-86842181D01*
X143125509Y-86870000D01*
X142240000Y-86870000D01*
X141949160Y-86927852D01*
X141702599Y-87092599D01*
X140432599Y-88362599D01*
X140267852Y-88609161D01*
X140210000Y-88900000D01*
X140210000Y-90680000D01*
X138647447Y-90680000D01*
X138559946Y-90549045D01*
X138151172Y-90275912D01*
X137668991Y-90180000D01*
X136651009Y-90180000D01*
X136168828Y-90275912D01*
X135760054Y-90549045D01*
X135486921Y-90957819D01*
X135391009Y-91440000D01*
X135486921Y-91922181D01*
X135760054Y-92330955D01*
X136168828Y-92604088D01*
X136651009Y-92700000D01*
X137668991Y-92700000D01*
X138151172Y-92604088D01*
X138559946Y-92330955D01*
X138647447Y-92200000D01*
X140210000Y-92200000D01*
X140210000Y-102110000D01*
X123574491Y-102110000D01*
X123593079Y-102082181D01*
X123688991Y-101600000D01*
X123593079Y-101117819D01*
X123319946Y-100709045D01*
X122911172Y-100435912D01*
X122428991Y-100340000D01*
X121411009Y-100340000D01*
X120928828Y-100435912D01*
X120520054Y-100709045D01*
X120246921Y-101117819D01*
X120151009Y-101600000D01*
X120246921Y-102082181D01*
X120265509Y-102110000D01*
X118110000Y-102110000D01*
X117819160Y-102167852D01*
X117572599Y-102332599D01*
X116525198Y-103380000D01*
X108167447Y-103380000D01*
X108079946Y-103249045D01*
X107671172Y-102975912D01*
X107188991Y-102880000D01*
X106171009Y-102880000D01*
X105688828Y-102975912D01*
X105280054Y-103249045D01*
X105006921Y-103657819D01*
X104911009Y-104140000D01*
X104267000Y-104140000D01*
X104267000Y-101600000D01*
X104911009Y-101600000D01*
X105006921Y-102082181D01*
X105280054Y-102490955D01*
X105688828Y-102764088D01*
X106171009Y-102860000D01*
X107188991Y-102860000D01*
X107671172Y-102764088D01*
X108079946Y-102490955D01*
X108353079Y-102082181D01*
X108448991Y-101600000D01*
X108353079Y-101117819D01*
X108079946Y-100709045D01*
X107671172Y-100435912D01*
X107188991Y-100340000D01*
X106171009Y-100340000D01*
X105688828Y-100435912D01*
X105280054Y-100709045D01*
X105006921Y-101117819D01*
X104911009Y-101600000D01*
X104267000Y-101600000D01*
X104267000Y-99060000D01*
X104911009Y-99060000D01*
X105006921Y-99542181D01*
X105280054Y-99950955D01*
X105688828Y-100224088D01*
X106171009Y-100320000D01*
X107188991Y-100320000D01*
X107671172Y-100224088D01*
X108079946Y-99950955D01*
X108353079Y-99542181D01*
X108448991Y-99060000D01*
X120151009Y-99060000D01*
X120246921Y-99542181D01*
X120520054Y-99950955D01*
X120928828Y-100224088D01*
X121411009Y-100320000D01*
X122428991Y-100320000D01*
X122911172Y-100224088D01*
X123319946Y-99950955D01*
X123593079Y-99542181D01*
X123688991Y-99060000D01*
X127771009Y-99060000D01*
X127866921Y-99542181D01*
X128140054Y-99950955D01*
X128548828Y-100224088D01*
X129031009Y-100320000D01*
X130048991Y-100320000D01*
X130531172Y-100224088D01*
X130939946Y-99950955D01*
X131213079Y-99542181D01*
X131245032Y-99381540D01*
X135466718Y-99381540D01*
X135472311Y-99424848D01*
X135704243Y-99861152D01*
X136085486Y-100175487D01*
X136558000Y-100320000D01*
X137033000Y-100320000D01*
X137033000Y-99187000D01*
X137287000Y-99187000D01*
X137287000Y-100320000D01*
X137762000Y-100320000D01*
X138234514Y-100175487D01*
X138615757Y-99861152D01*
X138847689Y-99424848D01*
X138853282Y-99381540D01*
X138728902Y-99187000D01*
X137287000Y-99187000D01*
X137033000Y-99187000D01*
X135591098Y-99187000D01*
X135466718Y-99381540D01*
X131245032Y-99381540D01*
X131308991Y-99060000D01*
X131245033Y-98738460D01*
X135466718Y-98738460D01*
X135591098Y-98933000D01*
X137033000Y-98933000D01*
X137033000Y-97800000D01*
X137287000Y-97800000D01*
X137287000Y-98933000D01*
X138728902Y-98933000D01*
X138853282Y-98738460D01*
X138847689Y-98695152D01*
X138615757Y-98258848D01*
X138234514Y-97944513D01*
X137762000Y-97800000D01*
X137287000Y-97800000D01*
X137033000Y-97800000D01*
X136558000Y-97800000D01*
X136085486Y-97944513D01*
X135704243Y-98258848D01*
X135472311Y-98695152D01*
X135466718Y-98738460D01*
X131245033Y-98738460D01*
X131213079Y-98577819D01*
X130939946Y-98169045D01*
X130531172Y-97895912D01*
X130048991Y-97800000D01*
X129031009Y-97800000D01*
X128548828Y-97895912D01*
X128140054Y-98169045D01*
X127866921Y-98577819D01*
X127771009Y-99060000D01*
X123688991Y-99060000D01*
X123593079Y-98577819D01*
X123319946Y-98169045D01*
X122911172Y-97895912D01*
X122428991Y-97800000D01*
X121411009Y-97800000D01*
X120928828Y-97895912D01*
X120520054Y-98169045D01*
X120246921Y-98577819D01*
X120151009Y-99060000D01*
X108448991Y-99060000D01*
X108353079Y-98577819D01*
X108079946Y-98169045D01*
X107671172Y-97895912D01*
X107188991Y-97800000D01*
X106171009Y-97800000D01*
X105688828Y-97895912D01*
X105280054Y-98169045D01*
X105006921Y-98577819D01*
X104911009Y-99060000D01*
X104267000Y-99060000D01*
X104267000Y-96520000D01*
X104911009Y-96520000D01*
X105006921Y-97002181D01*
X105280054Y-97410955D01*
X105688828Y-97684088D01*
X106171009Y-97780000D01*
X107188991Y-97780000D01*
X107671172Y-97684088D01*
X108079946Y-97410955D01*
X108353079Y-97002181D01*
X108448991Y-96520000D01*
X120151009Y-96520000D01*
X120246921Y-97002181D01*
X120520054Y-97410955D01*
X120928828Y-97684088D01*
X121411009Y-97780000D01*
X122428991Y-97780000D01*
X122911172Y-97684088D01*
X123319946Y-97410955D01*
X123593079Y-97002181D01*
X123688991Y-96520000D01*
X127771009Y-96520000D01*
X127866921Y-97002181D01*
X128140054Y-97410955D01*
X128548828Y-97684088D01*
X129031009Y-97780000D01*
X130048991Y-97780000D01*
X130531172Y-97684088D01*
X130939946Y-97410955D01*
X131213079Y-97002181D01*
X131308991Y-96520000D01*
X135391009Y-96520000D01*
X135486921Y-97002181D01*
X135760054Y-97410955D01*
X136168828Y-97684088D01*
X136651009Y-97780000D01*
X137668991Y-97780000D01*
X138151172Y-97684088D01*
X138559946Y-97410955D01*
X138833079Y-97002181D01*
X138928991Y-96520000D01*
X138833079Y-96037819D01*
X138559946Y-95629045D01*
X138151172Y-95355912D01*
X137668991Y-95260000D01*
X136651009Y-95260000D01*
X136168828Y-95355912D01*
X135760054Y-95629045D01*
X135486921Y-96037819D01*
X135391009Y-96520000D01*
X131308991Y-96520000D01*
X131213079Y-96037819D01*
X130939946Y-95629045D01*
X130531172Y-95355912D01*
X130048991Y-95260000D01*
X129031009Y-95260000D01*
X128548828Y-95355912D01*
X128140054Y-95629045D01*
X127866921Y-96037819D01*
X127771009Y-96520000D01*
X123688991Y-96520000D01*
X123593079Y-96037819D01*
X123319946Y-95629045D01*
X122911172Y-95355912D01*
X122428991Y-95260000D01*
X121411009Y-95260000D01*
X120928828Y-95355912D01*
X120520054Y-95629045D01*
X120246921Y-96037819D01*
X120151009Y-96520000D01*
X108448991Y-96520000D01*
X108353079Y-96037819D01*
X108079946Y-95629045D01*
X107671172Y-95355912D01*
X107188991Y-95260000D01*
X106171009Y-95260000D01*
X105688828Y-95355912D01*
X105280054Y-95629045D01*
X105006921Y-96037819D01*
X104911009Y-96520000D01*
X104267000Y-96520000D01*
X104267000Y-93980000D01*
X104911009Y-93980000D01*
X105006921Y-94462181D01*
X105280054Y-94870955D01*
X105688828Y-95144088D01*
X106171009Y-95240000D01*
X107188991Y-95240000D01*
X107671172Y-95144088D01*
X108079946Y-94870955D01*
X108353079Y-94462181D01*
X108448991Y-93980000D01*
X120151009Y-93980000D01*
X120246921Y-94462181D01*
X120520054Y-94870955D01*
X120928828Y-95144088D01*
X121411009Y-95240000D01*
X122428991Y-95240000D01*
X122911172Y-95144088D01*
X123319946Y-94870955D01*
X123593079Y-94462181D01*
X123688991Y-93980000D01*
X127771009Y-93980000D01*
X127866921Y-94462181D01*
X128140054Y-94870955D01*
X128548828Y-95144088D01*
X129031009Y-95240000D01*
X130048991Y-95240000D01*
X130531172Y-95144088D01*
X130939946Y-94870955D01*
X131213079Y-94462181D01*
X131308991Y-93980000D01*
X135391009Y-93980000D01*
X135486921Y-94462181D01*
X135760054Y-94870955D01*
X136168828Y-95144088D01*
X136651009Y-95240000D01*
X137668991Y-95240000D01*
X138151172Y-95144088D01*
X138559946Y-94870955D01*
X138833079Y-94462181D01*
X138928991Y-93980000D01*
X138833079Y-93497819D01*
X138559946Y-93089045D01*
X138151172Y-92815912D01*
X137668991Y-92720000D01*
X136651009Y-92720000D01*
X136168828Y-92815912D01*
X135760054Y-93089045D01*
X135486921Y-93497819D01*
X135391009Y-93980000D01*
X131308991Y-93980000D01*
X131213079Y-93497819D01*
X130939946Y-93089045D01*
X130531172Y-92815912D01*
X130048991Y-92720000D01*
X129031009Y-92720000D01*
X128548828Y-92815912D01*
X128140054Y-93089045D01*
X127866921Y-93497819D01*
X127771009Y-93980000D01*
X123688991Y-93980000D01*
X123593079Y-93497819D01*
X123319946Y-93089045D01*
X122911172Y-92815912D01*
X122428991Y-92720000D01*
X121411009Y-92720000D01*
X120928828Y-92815912D01*
X120520054Y-93089045D01*
X120246921Y-93497819D01*
X120151009Y-93980000D01*
X108448991Y-93980000D01*
X108353079Y-93497819D01*
X108079946Y-93089045D01*
X107671172Y-92815912D01*
X107188991Y-92720000D01*
X106171009Y-92720000D01*
X105688828Y-92815912D01*
X105280054Y-93089045D01*
X105006921Y-93497819D01*
X104911009Y-93980000D01*
X104267000Y-93980000D01*
X104267000Y-91440000D01*
X104911009Y-91440000D01*
X105006921Y-91922181D01*
X105280054Y-92330955D01*
X105688828Y-92604088D01*
X106171009Y-92700000D01*
X107188991Y-92700000D01*
X107671172Y-92604088D01*
X108079946Y-92330955D01*
X108353079Y-91922181D01*
X108448991Y-91440000D01*
X120151009Y-91440000D01*
X120246921Y-91922181D01*
X120520054Y-92330955D01*
X120928828Y-92604088D01*
X121411009Y-92700000D01*
X122428991Y-92700000D01*
X122911172Y-92604088D01*
X123319946Y-92330955D01*
X123593079Y-91922181D01*
X123688991Y-91440000D01*
X127771009Y-91440000D01*
X127866921Y-91922181D01*
X128140054Y-92330955D01*
X128548828Y-92604088D01*
X129031009Y-92700000D01*
X130048991Y-92700000D01*
X130531172Y-92604088D01*
X130939946Y-92330955D01*
X131213079Y-91922181D01*
X131308991Y-91440000D01*
X131213079Y-90957819D01*
X130939946Y-90549045D01*
X130531172Y-90275912D01*
X130048991Y-90180000D01*
X129031009Y-90180000D01*
X128548828Y-90275912D01*
X128140054Y-90549045D01*
X127866921Y-90957819D01*
X127771009Y-91440000D01*
X123688991Y-91440000D01*
X123593079Y-90957819D01*
X123319946Y-90549045D01*
X122911172Y-90275912D01*
X122428991Y-90180000D01*
X121411009Y-90180000D01*
X120928828Y-90275912D01*
X120520054Y-90549045D01*
X120246921Y-90957819D01*
X120151009Y-91440000D01*
X108448991Y-91440000D01*
X108353079Y-90957819D01*
X108079946Y-90549045D01*
X107671172Y-90275912D01*
X107188991Y-90180000D01*
X106171009Y-90180000D01*
X105688828Y-90275912D01*
X105280054Y-90549045D01*
X105006921Y-90957819D01*
X104911009Y-91440000D01*
X104267000Y-91440000D01*
X104267000Y-88900000D01*
X104911009Y-88900000D01*
X105006921Y-89382181D01*
X105280054Y-89790955D01*
X105688828Y-90064088D01*
X106171009Y-90160000D01*
X107188991Y-90160000D01*
X107671172Y-90064088D01*
X108079946Y-89790955D01*
X108353079Y-89382181D01*
X108448991Y-88900000D01*
X120151009Y-88900000D01*
X120246921Y-89382181D01*
X120520054Y-89790955D01*
X120928828Y-90064088D01*
X121411009Y-90160000D01*
X122428991Y-90160000D01*
X122911172Y-90064088D01*
X123319946Y-89790955D01*
X123593079Y-89382181D01*
X123688991Y-88900000D01*
X127771009Y-88900000D01*
X127866921Y-89382181D01*
X128140054Y-89790955D01*
X128548828Y-90064088D01*
X129031009Y-90160000D01*
X130048991Y-90160000D01*
X130531172Y-90064088D01*
X130939946Y-89790955D01*
X131213079Y-89382181D01*
X131308991Y-88900000D01*
X135391009Y-88900000D01*
X135486921Y-89382181D01*
X135760054Y-89790955D01*
X136168828Y-90064088D01*
X136651009Y-90160000D01*
X137668991Y-90160000D01*
X138151172Y-90064088D01*
X138559946Y-89790955D01*
X138833079Y-89382181D01*
X138928991Y-88900000D01*
X138833079Y-88417819D01*
X138559946Y-88009045D01*
X138151172Y-87735912D01*
X137668991Y-87640000D01*
X136651009Y-87640000D01*
X136168828Y-87735912D01*
X135760054Y-88009045D01*
X135486921Y-88417819D01*
X135391009Y-88900000D01*
X131308991Y-88900000D01*
X131213079Y-88417819D01*
X130939946Y-88009045D01*
X130531172Y-87735912D01*
X130048991Y-87640000D01*
X129031009Y-87640000D01*
X128548828Y-87735912D01*
X128140054Y-88009045D01*
X127866921Y-88417819D01*
X127771009Y-88900000D01*
X123688991Y-88900000D01*
X123593079Y-88417819D01*
X123319946Y-88009045D01*
X122911172Y-87735912D01*
X122428991Y-87640000D01*
X121411009Y-87640000D01*
X120928828Y-87735912D01*
X120520054Y-88009045D01*
X120246921Y-88417819D01*
X120151009Y-88900000D01*
X108448991Y-88900000D01*
X108353079Y-88417819D01*
X108079946Y-88009045D01*
X107671172Y-87735912D01*
X107188991Y-87640000D01*
X106171009Y-87640000D01*
X105688828Y-87735912D01*
X105280054Y-88009045D01*
X105006921Y-88417819D01*
X104911009Y-88900000D01*
X104267000Y-88900000D01*
X104267000Y-86360000D01*
X104911009Y-86360000D01*
X105006921Y-86842181D01*
X105280054Y-87250955D01*
X105688828Y-87524088D01*
X106171009Y-87620000D01*
X107188991Y-87620000D01*
X107671172Y-87524088D01*
X108079946Y-87250955D01*
X108353079Y-86842181D01*
X108448991Y-86360000D01*
X120151009Y-86360000D01*
X120246921Y-86842181D01*
X120520054Y-87250955D01*
X120928828Y-87524088D01*
X121411009Y-87620000D01*
X122428991Y-87620000D01*
X122911172Y-87524088D01*
X123319946Y-87250955D01*
X123593079Y-86842181D01*
X123688991Y-86360000D01*
X127771009Y-86360000D01*
X127866921Y-86842181D01*
X128140054Y-87250955D01*
X128548828Y-87524088D01*
X129031009Y-87620000D01*
X130048991Y-87620000D01*
X130531172Y-87524088D01*
X130939946Y-87250955D01*
X131213079Y-86842181D01*
X131308991Y-86360000D01*
X135391009Y-86360000D01*
X135486921Y-86842181D01*
X135760054Y-87250955D01*
X136168828Y-87524088D01*
X136651009Y-87620000D01*
X137668991Y-87620000D01*
X138151172Y-87524088D01*
X138559946Y-87250955D01*
X138833079Y-86842181D01*
X138928991Y-86360000D01*
X138833079Y-85877819D01*
X138559946Y-85469045D01*
X138151172Y-85195912D01*
X137668991Y-85100000D01*
X136651009Y-85100000D01*
X136168828Y-85195912D01*
X135760054Y-85469045D01*
X135486921Y-85877819D01*
X135391009Y-86360000D01*
X131308991Y-86360000D01*
X131213079Y-85877819D01*
X130939946Y-85469045D01*
X130531172Y-85195912D01*
X130048991Y-85100000D01*
X129031009Y-85100000D01*
X128548828Y-85195912D01*
X128140054Y-85469045D01*
X127866921Y-85877819D01*
X127771009Y-86360000D01*
X123688991Y-86360000D01*
X123593079Y-85877819D01*
X123319946Y-85469045D01*
X122911172Y-85195912D01*
X122428991Y-85100000D01*
X121411009Y-85100000D01*
X120928828Y-85195912D01*
X120520054Y-85469045D01*
X120246921Y-85877819D01*
X120151009Y-86360000D01*
X108448991Y-86360000D01*
X108353079Y-85877819D01*
X108079946Y-85469045D01*
X107671172Y-85195912D01*
X107188991Y-85100000D01*
X106171009Y-85100000D01*
X105688828Y-85195912D01*
X105280054Y-85469045D01*
X105006921Y-85877819D01*
X104911009Y-86360000D01*
X104267000Y-86360000D01*
X104267000Y-83820000D01*
X104911009Y-83820000D01*
X105006921Y-84302181D01*
X105280054Y-84710955D01*
X105688828Y-84984088D01*
X106171009Y-85080000D01*
X107188991Y-85080000D01*
X107671172Y-84984088D01*
X108079946Y-84710955D01*
X108353079Y-84302181D01*
X108448991Y-83820000D01*
X120151009Y-83820000D01*
X120246921Y-84302181D01*
X120520054Y-84710955D01*
X120928828Y-84984088D01*
X121411009Y-85080000D01*
X122428991Y-85080000D01*
X122911172Y-84984088D01*
X123319946Y-84710955D01*
X123593079Y-84302181D01*
X123688991Y-83820000D01*
X127771009Y-83820000D01*
X127866921Y-84302181D01*
X128140054Y-84710955D01*
X128548828Y-84984088D01*
X129031009Y-85080000D01*
X130048991Y-85080000D01*
X130531172Y-84984088D01*
X130939946Y-84710955D01*
X131213079Y-84302181D01*
X131308991Y-83820000D01*
X135391009Y-83820000D01*
X135486921Y-84302181D01*
X135760054Y-84710955D01*
X136168828Y-84984088D01*
X136651009Y-85080000D01*
X137668991Y-85080000D01*
X138151172Y-84984088D01*
X138559946Y-84710955D01*
X138833079Y-84302181D01*
X138928991Y-83820000D01*
X143011009Y-83820000D01*
X143106921Y-84302181D01*
X143380054Y-84710955D01*
X143788828Y-84984088D01*
X144271009Y-85080000D01*
X145288991Y-85080000D01*
X145771172Y-84984088D01*
X146179946Y-84710955D01*
X146453079Y-84302181D01*
X146548991Y-83820000D01*
X150631009Y-83820000D01*
X150726921Y-84302181D01*
X151000054Y-84710955D01*
X151408828Y-84984088D01*
X151891009Y-85080000D01*
X152908991Y-85080000D01*
X153391172Y-84984088D01*
X153799946Y-84710955D01*
X154073079Y-84302181D01*
X154168991Y-83820000D01*
X158200030Y-83820000D01*
X158295942Y-84302181D01*
X158569075Y-84710955D01*
X158977849Y-84984088D01*
X159460030Y-85080000D01*
X160579970Y-85080000D01*
X161062151Y-84984088D01*
X161470925Y-84710955D01*
X161744058Y-84302181D01*
X161839970Y-83820000D01*
X173440030Y-83820000D01*
X173535942Y-84302181D01*
X173809075Y-84710955D01*
X174217849Y-84984088D01*
X174700030Y-85080000D01*
X175819970Y-85080000D01*
X176302151Y-84984088D01*
X176710925Y-84710955D01*
X176984058Y-84302181D01*
X177079970Y-83820000D01*
X176984058Y-83337819D01*
X176710925Y-82929045D01*
X176302151Y-82655912D01*
X175819970Y-82560000D01*
X174700030Y-82560000D01*
X174217849Y-82655912D01*
X173809075Y-82929045D01*
X173535942Y-83337819D01*
X173440030Y-83820000D01*
X161839970Y-83820000D01*
X161744058Y-83337819D01*
X161470925Y-82929045D01*
X161062151Y-82655912D01*
X160579970Y-82560000D01*
X159460030Y-82560000D01*
X158977849Y-82655912D01*
X158569075Y-82929045D01*
X158295942Y-83337819D01*
X158200030Y-83820000D01*
X154168991Y-83820000D01*
X154073079Y-83337819D01*
X153799946Y-82929045D01*
X153391172Y-82655912D01*
X152908991Y-82560000D01*
X151891009Y-82560000D01*
X151408828Y-82655912D01*
X151000054Y-82929045D01*
X150726921Y-83337819D01*
X150631009Y-83820000D01*
X146548991Y-83820000D01*
X146453079Y-83337819D01*
X146179946Y-82929045D01*
X145771172Y-82655912D01*
X145288991Y-82560000D01*
X144271009Y-82560000D01*
X143788828Y-82655912D01*
X143380054Y-82929045D01*
X143106921Y-83337819D01*
X143011009Y-83820000D01*
X138928991Y-83820000D01*
X138833079Y-83337819D01*
X138559946Y-82929045D01*
X138151172Y-82655912D01*
X137668991Y-82560000D01*
X136651009Y-82560000D01*
X136168828Y-82655912D01*
X135760054Y-82929045D01*
X135486921Y-83337819D01*
X135391009Y-83820000D01*
X131308991Y-83820000D01*
X131213079Y-83337819D01*
X130939946Y-82929045D01*
X130531172Y-82655912D01*
X130048991Y-82560000D01*
X129031009Y-82560000D01*
X128548828Y-82655912D01*
X128140054Y-82929045D01*
X127866921Y-83337819D01*
X127771009Y-83820000D01*
X123688991Y-83820000D01*
X123593079Y-83337819D01*
X123319946Y-82929045D01*
X122911172Y-82655912D01*
X122428991Y-82560000D01*
X121411009Y-82560000D01*
X120928828Y-82655912D01*
X120520054Y-82929045D01*
X120246921Y-83337819D01*
X120151009Y-83820000D01*
X108448991Y-83820000D01*
X108353079Y-83337819D01*
X108079946Y-82929045D01*
X107671172Y-82655912D01*
X107188991Y-82560000D01*
X106171009Y-82560000D01*
X105688828Y-82655912D01*
X105280054Y-82929045D01*
X105006921Y-83337819D01*
X104911009Y-83820000D01*
X104267000Y-83820000D01*
X104267000Y-78867000D01*
X177673000Y-78867000D01*
X177673000Y-134493000D01*
M02*
