G04 #@! TF.FileFunction,Soldermask,Top*
%FSLAX46Y46*%
G04 Gerber Fmt 4.6, Leading zero omitted, Abs format (unit mm)*
G04 Created by KiCad (PCBNEW 4.0.2+dfsg1-stable) date Mit 11 Mai 2016 00:43:05 CEST*
%MOMM*%
G01*
G04 APERTURE LIST*
%ADD10C,0.100000*%
%ADD11R,1.300000X1.300000*%
%ADD12C,1.300000*%
%ADD13O,2.300000X1.250000*%
%ADD14R,2.000000X2.000000*%
%ADD15C,2.000000*%
%ADD16O,2.200000X1.250000*%
%ADD17C,1.998980*%
G04 APERTURE END LIST*
D10*
D11*
X166370000Y-105410000D03*
D12*
X168870000Y-105410000D03*
D13*
X175260000Y-83820000D03*
X160020000Y-83820000D03*
X175260000Y-86360000D03*
X160020000Y-86360000D03*
X175260000Y-88900000D03*
X160020000Y-88900000D03*
X175260000Y-91440000D03*
X160020000Y-91440000D03*
X175260000Y-93980000D03*
X160020000Y-93980000D03*
X175260000Y-96520000D03*
X160020000Y-96520000D03*
X175260000Y-99060000D03*
X160020000Y-99060000D03*
X175260000Y-101600000D03*
X160020000Y-101600000D03*
X175260000Y-104140000D03*
X160020000Y-104140000D03*
X175260000Y-106680000D03*
X160020000Y-106680000D03*
X175260000Y-109220000D03*
X160020000Y-109220000D03*
X175260000Y-111760000D03*
X160020000Y-111760000D03*
X175260000Y-114300000D03*
X160020000Y-114300000D03*
X175260000Y-116840000D03*
X160020000Y-116840000D03*
X175260000Y-119380000D03*
X160020000Y-119380000D03*
X175260000Y-121920000D03*
X160020000Y-121920000D03*
X175260000Y-124460000D03*
X160020000Y-124460000D03*
D14*
X153670000Y-132080000D03*
D15*
X153670000Y-129540000D03*
D14*
X140970000Y-132080000D03*
D15*
X140970000Y-129540000D03*
D14*
X128270000Y-132080000D03*
D15*
X128270000Y-129540000D03*
D16*
X137160000Y-99060000D03*
X137160000Y-96520000D03*
X137160000Y-93980000D03*
X137160000Y-91440000D03*
X137160000Y-88900000D03*
X137160000Y-86360000D03*
X137160000Y-83820000D03*
X129540000Y-83820000D03*
X129540000Y-86360000D03*
X129540000Y-88900000D03*
X129540000Y-91440000D03*
X129540000Y-93980000D03*
X129540000Y-96520000D03*
X129540000Y-99060000D03*
X152400000Y-116840000D03*
X152400000Y-114300000D03*
X152400000Y-111760000D03*
X152400000Y-109220000D03*
X152400000Y-106680000D03*
X152400000Y-104140000D03*
X152400000Y-101600000D03*
X152400000Y-99060000D03*
X152400000Y-96520000D03*
X152400000Y-93980000D03*
X152400000Y-91440000D03*
X152400000Y-88900000D03*
X152400000Y-86360000D03*
X152400000Y-83820000D03*
X144780000Y-83820000D03*
X144780000Y-86360000D03*
X144780000Y-88900000D03*
X144780000Y-91440000D03*
X144780000Y-93980000D03*
X144780000Y-96520000D03*
X144780000Y-99060000D03*
X144780000Y-101600000D03*
X144780000Y-104140000D03*
X144780000Y-106680000D03*
X144780000Y-109220000D03*
X144780000Y-111760000D03*
X144780000Y-114300000D03*
X144780000Y-116840000D03*
X106680000Y-83820000D03*
X106680000Y-86360000D03*
X106680000Y-88900000D03*
X106680000Y-91440000D03*
X106680000Y-93980000D03*
X106680000Y-96520000D03*
X106680000Y-99060000D03*
X106680000Y-101600000D03*
X106680000Y-104140000D03*
X106680000Y-106680000D03*
X106680000Y-109220000D03*
X106680000Y-111760000D03*
X106680000Y-114300000D03*
X106680000Y-116840000D03*
X106680000Y-119380000D03*
X106680000Y-121920000D03*
X106680000Y-124460000D03*
X106680000Y-127000000D03*
X106680000Y-129540000D03*
X106680000Y-132080000D03*
X121920000Y-132080000D03*
X121920000Y-129540000D03*
X121920000Y-127000000D03*
X121920000Y-124460000D03*
X121920000Y-121920000D03*
X121920000Y-119380000D03*
X121920000Y-116840000D03*
X121920000Y-114300000D03*
X121920000Y-111760000D03*
X121920000Y-109220000D03*
X121920000Y-106680000D03*
X121920000Y-104140000D03*
X121920000Y-101600000D03*
X121920000Y-99060000D03*
X121920000Y-96520000D03*
X121920000Y-93980000D03*
X121920000Y-91440000D03*
X121920000Y-88900000D03*
X121920000Y-86360000D03*
X121920000Y-83820000D03*
X137160000Y-116840000D03*
X137160000Y-114300000D03*
X137160000Y-111760000D03*
X137160000Y-109220000D03*
X129540000Y-109220000D03*
X129540000Y-111760000D03*
X129540000Y-114300000D03*
X129540000Y-116840000D03*
D17*
X171450000Y-99060000D03*
X171450000Y-91440000D03*
X167640000Y-99060000D03*
X167640000Y-91440000D03*
X163830000Y-99060000D03*
X163830000Y-91440000D03*
M02*
